/* XPM */
static char *enm0[] = {
/* columns rows colors chars-per-pixel */
"64 64 204 2 ",
"   c None",
".  c #2A210F",
"X  c #2B2310",
"o  c #332A14",
"O  c #3C3117",
"+  c #3C3B30",
"@  c #4A2611",
"#  c #4D2913",
"$  c #4E2C1A",
"%  c #402E1D",
"&  c #542B13",
"*  c #5A2E13",
"=  c #512F1E",
"-  c #4C311C",
";  c #5E3014",
":  c #55331D",
">  c #5C341D",
",  c #5C381B",
"<  c #643314",
"1  c #693615",
"2  c #6D3916",
"3  c #66391A",
"4  c #6B3E1A",
"5  c #703B17",
"6  c #453426",
"7  c #4A3522",
"8  c #4D3926",
"9  c #4F3E29",
"0  c #5D3520",
"q  c #533922",
"w  c #523F2A",
"e  c #5F3F21",
"r  c #603721",
"t  c #623923",
"y  c #2D483F",
"u  c #3B4336",
"i  c #3A4A3D",
"p  c #3F4738",
"a  c #6D411C",
"s  c #72441D",
"d  c #7C4219",
"f  c #7A481B",
"g  c #47402D",
"h  c #55432C",
"j  c #564027",
"k  c #444535",
"l  c #514C38",
"z  c #55573C",
"x  c #684824",
"c  c #734520",
"v  c #7B4A20",
"b  c #6B5229",
"n  c #7B5A2B",
"m  c #71572B",
"M  c #6D5E38",
"N  c #776034",
"B  c #1E5754",
"V  c #1F5955",
"C  c #3B4E42",
"Z  c #314D44",
"A  c #2E554D",
"S  c #365347",
"D  c #215F5A",
"F  c #275A54",
"G  c #315C55",
"H  c #22625E",
"J  c #2B655C",
"K  c #2E685E",
"L  c #33635B",
"P  c #33695E",
"I  c #3A6A5B",
"U  c #386156",
"Y  c #246562",
"T  c #256965",
"R  c #2C6A64",
"E  c #276E6B",
"W  c #2A6F6B",
"Q  c #336A61",
"!  c #29726E",
"~  c #27726F",
"^  c #3D7567",
"/  c #32756C",
"(  c #36786F",
")  c #3D7A6C",
"_  c #3E776B",
"`  c #2A7572",
"'  c #2A7875",
"]  c #2B7C7A",
"[  c #317771",
"{  c #347B73",
"}  c #495843",
"|  c #5B6D4C",
" . c #426D5B",
".. c #486D5A",
"X. c #456A54",
"o. c #556B52",
"O. c #47715F",
"+. c #4D735C",
"@. c #59755B",
"#. c #616F49",
"$. c #6B6C43",
"%. c #64744C",
"&. c #6E784E",
"*. c #787446",
"=. c #657A53",
"-. c #657C56",
";. c #7E7D53",
":. c #4B7D66",
">. c #437E6E",
",. c #487E6B",
"<. c #5A7E67",
"1. c #834A1E",
"2. c #895425",
"3. c #9B6725",
"4. c #9A722D",
"5. c #876735",
"6. c #996B33",
"7. c #8C7639",
"8. c #897439",
"9. c #9B7137",
"0. c #967539",
"q. c #A5692E",
"w. c #AC7C2C",
"e. c #AB7327",
"r. c #B37D2B",
"t. c #BA7F2B",
"y. c #A86D33",
"u. c #AC7135",
"i. c #A77A3A",
"p. c #B37A3A",
"a. c #B77A39",
"s. c #847F45",
"d. c #807D52",
"f. c #927846",
"g. c #79814C",
"h. c #64835D",
"j. c #6D8459",
"k. c #748352",
"l. c #798655",
"z. c #7A8955",
"x. c #718659",
"c. c #71885A",
"v. c #778857",
"b. c #44806F",
"n. c #5A8161",
"m. c #568164",
"M. c #B5802C",
"N. c #A98E3E",
"B. c #BE8D35",
"V. c #B78139",
"C. c #BB963D",
"Z. c #DC9B2F",
"A. c #C2853F",
"S. c #CD9D37",
"D. c #C59A39",
"F. c #C99839",
"G. c #D29230",
"H. c #DF9F30",
"J. c #D79C30",
"K. c #E2A136",
"L. c #858147",
"P. c #84844A",
"I. c #848A4E",
"U. c #8B8C4E",
"Y. c #9A8B45",
"T. c #928E4C",
"R. c #94864A",
"E. c #838B51",
"W. c #898D50",
"Q. c #898052",
"!. c #968450",
"~. c #9F8A52",
"^. c #A78743",
"/. c #BB8541",
"(. c #B78845",
"). c #A79447",
"_. c #A99346",
"`. c #B39446",
"'. c #A78F56",
"]. c #B69351",
"[. c #A99257",
"{. c #C48741",
"}. c #CA8C44",
"|. c #CA9146",
" X c #CD9349",
".X c #C0944E",
"XX c #D29447",
"oX c #D29548",
"OX c #D89749",
"+X c #D49B4E",
"@X c #DC9B4B",
"#X c #D69F50",
"$X c #C59851",
"%X c #E09F4E",
"&X c #E5A24F",
"*X c #E2A14E",
"=X c #E5A250",
"-X c #E5A552",
";X c #EBA954",
":X c #ECAA55",
">X c #EDAB56",
",X c #EDAA55",
"<X c #ECAA55",
"1X c #E8A854",
/* pixels */
"                                                Y T ` ] ] ] ] ] ] ] ] ] ] ] ] ] ]                                               ",
"                                            Y Y Y T ` ] ] ] ] ] ] ] ] ] ] ] ] ] ` Y H                                           ",
"                                            Y T T T ` ] ] ] ] ] ] ] ] ] ] ] ] ] ' T Y                                           ",
"                                            Y T T T ` ] ] ] ] ] ] ] ] ] ] ] ] ] ' T Y                                           ",
"                                            Y T T T ` ] ] ] ] ] ] ] ] ] ] ] ] ] ' T Y                                           ",
"                                            Y T T T ` ] ] ] ] ] ] ] ] ] ] ] ] ] ' T Y                                           ",
"                                            Y T T T ` ] ] ] ] ] ] ] ] ] ] ] ] ] ` T Y                                           ",
"                                            Y T T T ` ] ] ] ] ] ] ] ] ] ] ] ] ] ' T Y                                           ",
"                                            Y T T T ` ] ] ] ] ] ] ] ] ] ] ] ] ] ' T Y                                           ",
"                                            Y T T T ` ] ] ] ] ] ] ] ] ] ] ] ] ] ' T Y                                           ",
"                                            Y T T T ` ] ] ] ] ] ] ] ] ] ] ] ] ] ` T Y                                           ",
"                                            Y T T T ` ] ] ] ] ] ] ] ] ] ] ] ] ] ` T Y                                           ",
"                                            Y T T T ` ] ] ] ] ] ] ] ] ] ] ] ] ] ` T Y                                           ",
"                                            Y Y Y T ` ] ] ] ] ] ] ] ] ] ] ] ] ] ` T Y                                           ",
"                                            I I I I ^ >.>.>.b.>.>.>.>.b.>.>.>.>.>.I I                                           ",
"                                            7.7.7.7.Y.).).).).).).)._.).).).).).^.7.7.                                          ",
"                                            w.w.w.r.B.S.S.S.S.S.S.S.S.S.S.S.S.S.F.M.M.                                          ",
"                                            #.#.| %.%.&.x.c.c.c.c.c.c.c.c.c.c.c.j.=.@.H                                         ",
"                                            K K K K K R ( { { { { { { { { { { { { [ / Y H                                       ",
"                                            u u u i A Y E E E E E E E E E E E E E E T Y H                                       ",
"                                            $ $ $ 7 C P P Q Q Q Q Q Q Q Q Q Q Q Q Q Q Y H                                       ",
"                                          * < < * , N !.!.!.!.!.!.!.!.!.!.!.!.!.!.!.Q.                                          ",
"                                        & * 1 2 < 3 6.oXoXoXoXoXoXXXXXXXXXoXXX XoXoX X                                          ",
"                                        & 4 6.y.s 3 i.=X=X@X9.n i.&X&X&X&X@X/.n 9.=X&X                                          ",
"                                        & c /. X2.a p.>X<X+Xb O 5.>X>X>X>X-Xi.o m >X<X                                          ",
"                                        & c /.@Xp.u. X>X>X+Xb o 5.>X>X>X>X-X9.X b >X<X                                          ",
"                                        & c /.-X@XXX=X>X>X+Xb o 5.>X>X>X>X-X9.. b >X<X                                          ",
"                                        & 3 2.u.}.@X=X>X>X-X^.0.(.>X>X>X>X<X|.6.(.>X>X                                          ",
"                                        & ; 1 1.a.@X=X>X>X>X1X-X<X>X<X-X-X-X-X1X1X>X<X                                          ",
"                                        & * < 2.{.@X@X=X<X>X>X>X>X1X}.u.u.u.{.>X>X                                              ",
"                                        & &     XXXXOX@X-X>X>X>X>X-Xp.d d d q.>X1X                                              ",
"                                        & &       XXXXOX@X*X*X%X*X@XA.q.q.q.p.                                                  ",
"                                        & &         |. X X X X X X X|.|.|.|.|.                                                  ",
"                                        & 3 3.    F.R.;.;.;.;.;.;.;.;.;.;.d.R.                                                  ",
"                                        & a r.K.K.F.;.P Q Q P P P Q Q Q Q P &.H.H.Z.Z.                                          ",
"                                        & 4 e.G.G.B.&.P =.g.+.T E E E E +.g.P.P.P.L.s.                                          ",
"                                        & 2 3.t.M.w.#. .N.D.k./ ` ' ` ) k.S.R.R R J H                                           ",
"                                        & , M *.*.$.X.P k.U.I.k.n.` :.z.I.U.h.E E Y H                                           ",
"                                        & 7 C L L J J Y / :.T.D.I.[ x.S.U.( ( ` ! Y H                                           ",
"                                      S 7 7 S H D D H Y ! ( h.U.E.z.E.U.h.' ' ' ` Y H                                           ",
"                                    H G g q S J D V H Y ! ' ` _ l.S.T.[ [ ' ' ' ` Y H                                           ",
"                                    H U M 5.*.-.U B D Y ` [ n.z.E.T.W.v.m.' ' ' ` Y H                                           ",
"                                    H  .~.@X#X].o.B D Y ! ) T.D.U.) z.D.E.' ' ' ` Y H                                           ",
"                                    H O.[.1X1X$Xo.V D P -.z.W.U.h.` m.T.E.x.n.' ` Y H                                           ",
"                                    Y O.'.-X*X.Xo.F D X.N.F.k.` ` [ ` ( l.J.Y.` ! Y H                                           ",
"                                      ..f.V.V.i.z y Z } 4.w.$.U ..h.h.h.L.r.8.U L Y H                                           ",
"                                        x s v c : % 7 q a s e j N C.C.C.4.f c w k Y Y                                           ",
"                                        @ & < 1 & # - 8 9 w w h N `.`._.8.h h h l +.+.                                          ",
"                                            2 2 < : p G P Q Q Q ^ ,.,.,.^ Q Q Q @.].].                                          ",
"                                            2 2 < : C Y ~ ' ' ' ' ' ' ' ' ' ' ' <.@X@X                                          ",
"                                            2 2 < : i H ! ` ' ' ' ' ' ` ' ' ' ` <.@X@X                                          ",
"                                            2 2 < : k A G L W ' ' ` R L L L L L o.XX@X                                          ",
"                                        < 2 2 2 < * - 6 6 6         + 6 6 6 6 6 8                                               ",
"                                        1 2 5 2 < * & $ $ $           $ $ $ $ $ $                                               ",
"                                        2 5 5 2 < ; > 0 0 0           = : 0 0 0 >                                               ",
"                                        1 5 5 2 < ; > r t r           = : t t t >                                               ",
"                                        2 5 5 2 < ; > r t r           = : t t t 0                                               ",
"                                        2 5 5 2 < ; > > > >           $ : r r r >                                               ",
"                                        1 5 5 2 < * & & & &           # & * * & &                                               ",
"                                        1 5 5 2 < * & & & &           @ # * & & #                                               ",
"                                        2 5 5 2 < * & & & &           @ # * & & &                                               ",
"                                        1 5 5 2 < * & & & &           @ # * * * &                                               ",
"                                        < 1 1 < < ; < < < 1 < <       @ & 1 1 1 1 1 <                                           ",
"                                        < 1 < < < < < 1 2 2 2 2       @ & 2 2 2 2 2 1                                           "
};
