/* XPM */
static char *enm1[] = {
/* columns rows colors chars-per-pixel */
"64 64 190 2 ",
"   c None",
".  c #26200E",
"X  c #2C2511",
"o  c #342C15",
"O  c #3E3C2F",
"+  c #44230F",
"@  c #4E270F",
"#  c #452412",
"$  c #4C2611",
"%  c #4E2911",
"&  c #4B2A1A",
"*  c #522A11",
"=  c #5A2D13",
"-  c #512E1B",
";  c #4F311B",
":  c #5E3215",
">  c #54321C",
",  c #5B341D",
"<  c #5F381B",
"1  c #643414",
"2  c #6A3614",
"3  c #653816",
"4  c #6D3916",
"5  c #643919",
"6  c #6C3E1B",
"7  c #61361F",
"8  c #733B15",
"9  c #733D18",
"0  c #443E2F",
"q  c #523521",
"w  c #5F3621",
"e  c #5A3923",
"r  c #443F30",
"t  c #613721",
"y  c #643922",
"u  c #58411F",
"i  c #6B401E",
"p  c #5C4622",
"a  c #624B24",
"s  c #774A21",
"d  c #765B2D",
"f  c #7C572A",
"g  c #6C5B33",
"h  c #735632",
"j  c #1F5754",
"k  c #1F5955",
"l  c #1F5C5A",
"z  c #374F43",
"x  c #3D4F40",
"c  c #2D5047",
"v  c #325047",
"b  c #32524A",
"n  c #3A5347",
"m  c #235B56",
"M  c #215E5A",
"N  c #2F5952",
"B  c #375C55",
"V  c #23625E",
"C  c #2C625D",
"Z  c #3B645C",
"A  c #356359",
"S  c #246662",
"D  c #256965",
"F  c #276D69",
"G  c #2A6E6A",
"H  c #336761",
"J  c #356E63",
"K  c #29716D",
"L  c #26706D",
"P  c #3C766B",
"I  c #3B7669",
"U  c #2A7673",
"Y  c #2A7876",
"T  c #2C7C7A",
"R  c #287577",
"E  c #357972",
"W  c #516B4F",
"Q  c #446959",
"!  c #48715B",
"~  c #5D7152",
"^  c #5B7A5A",
"/  c #577657",
"(  c #656A4B",
")  c #656F46",
"_  c #6A774B",
"`  c #727D4D",
"'  c #7D7341",
"]  c #6E7955",
"[  c #647555",
"{  c #7B7C51",
"}  c #4D7E65",
"|  c #467D69",
" . c #507D64",
".. c #80461B",
"X. c #894F20",
"o. c #885C29",
"O. c #9A6528",
"+. c #8D6C36",
"@. c #916B34",
"#. c #887139",
"$. c #997436",
"%. c #A46C2F",
"&. c #AA7B2D",
"*. c #A7702A",
"=. c #BB7F26",
"-. c #B37C2A",
";. c #B87D28",
":. c #A66C32",
">. c #A86D32",
",. c #A87539",
"<. c #B37939",
"1. c #B27A37",
"2. c #877F51",
"3. c #A27F46",
"4. c #5F845F",
"5. c #63845E",
"6. c #6B845A",
"7. c #758454",
"8. c #7C8954",
"9. c #758858",
"0. c #5E8461",
"q. c #568062",
"w. c #628462",
"e. c #688466",
"r. c #BE8026",
"t. c #A58438",
"y. c #B58731",
"u. c #B9823D",
"i. c #B7813E",
"p. c #BE963C",
"a. c #BD983E",
"s. c #C4862B",
"d. c #DD9D2F",
"f. c #D1972F",
"g. c #D18F34",
"h. c #CE9A36",
"j. c #CC9C38",
"k. c #C0953A",
"l. c #D19D36",
"z. c #DE9F31",
"x. c #E09F32",
"c. c #DDA232",
"v. c #E0A031",
"b. c #868B4F",
"n. c #8C8C4E",
"m. c #918A46",
"M. c #948F4C",
"N. c #9A8F4A",
"B. c #9A8E47",
"V. c #9D9149",
"C. c #9E9047",
"Z. c #838A51",
"A. c #A88B47",
"S. c #BD8643",
"D. c #B28F4F",
"F. c #BF8F4A",
"G. c #B28543",
"H. c #A69147",
"J. c #B1904E",
"K. c #C48741",
"L. c #C38C44",
"P. c #C08F4A",
"I. c #CA8C43",
"U. c #C2904A",
"Y. c #C99248",
"T. c #D79546",
"R. c #D89747",
"E. c #D99847",
"W. c #D69548",
"Q. c #D89649",
"!. c #D99948",
"~. c #D99E4F",
"^. c #DE9C4C",
"/. c #D2994C",
"(. c #D99F50",
"). c #E39F44",
"_. c #CDA257",
"`. c #E2A04E",
"'. c #E9A84F",
"]. c #E6A552",
"[. c #E4A451",
"{. c #E8A652",
"}. c #E8A551",
"|. c #EBA955",
" X c #EDAA55",
".X c #EDAB56",
"XX c #EDAA56",
"oX c #ECA954",
"OX c #EEAC56",
"+X c #E9A952",
/* pixels */
"                                              V S U T T T T T T T T T T T T T T                                                 ",
"                                          S D S D U T T T T T T T T T T T T T T F D                                             ",
"                                          S D S D U T T T T T T T T T T T T T T F D                                             ",
"                                          S D S S U T T T T T T T T T T T T T T F D                                             ",
"                                          S D S S U T T T T T T T T T T T T T T F D                                             ",
"                                          S S S S U T T T T T T T T T T T T T T F D                                             ",
"                                          S S S S U T T T T T T T T T T T T T T F S                                             ",
"                                          S S S S U T T T T T T T T T T T T T T F S                                             ",
"                                          S S S S U T T T T T T T T T T T T T T F S                                             ",
"                                          S S S S U T T T T T T T T T T T T T T F S                                             ",
"                                          S S S S U T T T T T T T T T T T T T T F S                                             ",
"                                          S S S S U T T T T T T T T T T T T T T F S                                             ",
"                                          S S S S U T T T T T T T T T T T T T T F S                                             ",
"                                          V S S S U Y T T T T T T T T T Y T T T F S                                             ",
"                                          S S S S R R Y Y Y Y Y Y Y Y Y Y Y Y Y F S                                             ",
"                                          r.;.;.;.f.c.c.c.c.c.c.c.c.c.c.c.c.c.c.s.r.                                            ",
"                                          &.&.&.&.k.h.j.j.j.j.j.j.j.j.j.j.j.j.j.y.&.                                            ",
"                                          W W W W / ^ 0.0.0.0.0.w.w.0.0.0.0.4.4.^ / A M                                         ",
"                                          V S S S S F T T T T T T T T T T T T T Y Y D V                                         ",
"                                          O r 0 0 N S F F F F F F F F F F F F F F F S V                                         ",
"                                          $ * * * b S S S S S S S S S S S S S S S S S S                                         ",
"                                          3 4 : * ,.P.F.F.F.P.P.P.P.P.P.F.P.P.U.F.F.                                            ",
"                                          8 9 1 * <.R.R.R.R.!.E.R.R.R.R.R.E.!.!.!.R.                                            ",
"                                      2 2 K.K.s * S.{.{.{.,.u @.{.{.{.{.{.Y.p a Y.].                                            ",
"                                      8 8 ~.~.f * S.XXXXOX+.. d XXXXXXXXXXP.X o U.|.                                            ",
"                                      8 8 (.].S.,.~.XXXXOX+.. d XXXXXXXXXXP.X o U.|.                                            ",
"                                      2 2 /.[.^.Q.].|.XXOX+.. d XXXXXXXXXXP.X o U.|.                                            ",
"                                          O.:.K.Q.].XXXXOXF.+.G.XXXXXXOXXX~.+.+.(.XX                                            ",
"                                          8 ..<.W.].XXOXOXXXXXXXXXXXXXXXXXXXXXXXXX|.                                            ",
"                                          1 9 1.W.^.`.|.XXXXXXW.>.>.>.>.>.<.].|.{.                                              ",
"                                          * 5 ,.W.Q.Q.].OXXXXXu.8 8 8 8 8 X.[.XX                                                ",
"                                          * : o.  W.W.^.`.`.`.I.>.>.>.>.%.>.                                                    ",
"                                          * =     W.W.R.R.R.R.R.T.R.T.T.R.T.                                                    ",
"                                        =.: : %.).2.] ] ] ] ] ] ] ] ] ] ] { h.d.d.d.                                            ",
"                                      r.r.3 5 1.).[ V S S S S S S S S S S ! h.v.x.z.                                            ",
"                                      ) ) , 1 *.g.~ S ` m.] K K K K K I m.n.7.` ` `                                             ",
"                                      V S > 1 O.s.~ D H.z.B.U U U U U  .v.k.J D S V                                             ",
"                                      S S > : g ' ! F 6.b.Z.b.5.U } 8.Z.b.7.K F S V                                             ",
"                                      S S > > v V F U U U 6.c.N.U 6.l.p.K U Y Y V k V V                                         ",
"                                      D F > > v V K U U U q.V.b.6.8.N.Z.U U Y Y V j V V                                         ",
"                                      K U q > b S K U Y U U U 9.c.C.E U U Y Y Y V j V S                                         ",
"                                      F F h f ( ^ P U Y Y | 9.Z.V.n.9.5.U Y Y Y V j V S                                         ",
"                                      D S _.+X+X+Xe.U U U 6.v.N.U 6.l.a.U U Y Y V j V S                                         ",
"                                      F F _.+X+X+Xe.U w.9.Z.M.6.U } b.n.9.6.Y Y V k S S                                         ",
"                                      U U _.+X+X'.e.U H.z.N.U U U U U } z.k.E Y V k S S                                         ",
"                                      F F 3.i.u.u.( B +.-.#.A ! 5.5.5.7.-.$.Q Z m m D D                                         ",
"                                      V V e < 6 6 > ; : 3 < > o.h.h.h.y.4 3 , , c k K K                                         ",
"                                      l M - * > > > q q q q q f p.p.p.t.e e e e n A P P                                         ",
"                                          : < z l L Y Y Y Y Y Y Y Y Y Y Y Y Y E J.T.].+X                                        ",
"                                          3 5 z k F Y Y Y Y Y Y Y Y Y Y Y Y Y E D.T.].+X                                        ",
"                                      : 1 9 i n M F Y Y Y Y Y Y Y Y Y Y Y Y Y E D.T.].|.                                        ",
"                                      1 1 9 6 x l C H H H G U U U G H H H H H Z A.W.[.].                                        ",
"                                      1 3 9 9     # & & & #         & & & & & #                                                 ",
"                                      1 3 9 9     & - - & &         & & - - - &                                                 ",
"                                      3 3 9 9     > t t w >         & - w w w ,                                                 ",
"                                      1 3 9 9     , y y t >         & > y y y ,                                                 ",
"                                      1 3 9 9     , y y t >         & > y y y ,                                                 ",
"                                      1 1 9 9     , y y 7 >         & - y y y ,                                                 ",
"                                      1 1 9 4 % + * = = = $         # % = = = *                                                 ",
"                                      1 1 9 4 * + * = = = $         # $ = = = *                                                 ",
"                                      1 1 9 4 * + * = = = @         + $ = = = *                                                 ",
"                                      1 3 9 4 * # * = = = *         + $ = = = *                                                 ",
"                                      3 3 2 1 * # : 2 4 4 2 1       + * 2 4 4 4 2 2                                             ",
"                                      3 3 2 1 % + : 2 4 4 4 2       + * 4 4 4 4 4 8                                             "
};
