/* XPM */
static char *enm2[] = {
/* columns rows colors chars-per-pixel */
"64 64 180 2 ",
"   c None",
".  c #251E0D",
"X  c #3B1E0D",
"o  c #28210F",
"O  c #26200E",
"+  c #362C15",
"@  c #3A3B2F",
"#  c #333E32",
"$  c #3B3F34",
"%  c #44230F",
"&  c #4B240F",
"*  c #452513",
"=  c #452719",
"-  c #4C2B1A",
";  c #4A2815",
":  c #552B12",
">  c #5B2E13",
",  c #542F1C",
"<  c #4D311C",
"1  c #4A3C1D",
"2  c #463A1C",
"3  c #5D3013",
"4  c #56301C",
"5  c #5D331D",
"6  c #602F12",
"7  c #633214",
"8  c #6A3716",
"9  c #6E3915",
"0  c #61351D",
"q  c #6B3B1A",
"w  c #743B14",
"e  c #783E14",
"r  c #4A3724",
"t  c #5B3420",
"y  c #613721",
"u  c #633921",
"i  c #3A4336",
"p  c #3F493E",
"a  c #6F411D",
"s  c #70421E",
"d  c #564522",
"f  c #55543C",
"g  c #644D27",
"h  c #714520",
"j  c #6E542A",
"k  c #665734",
"l  c #6E603F",
"z  c #1F5B58",
"x  c #394B43",
"c  c #205C57",
"v  c #2A5C56",
"b  c #2A5E58",
"n  c #205C58",
"m  c #335850",
"M  c #22615D",
"N  c #2B665F",
"B  c #2F685F",
"V  c #3F6C5D",
"C  c #256662",
"Z  c #256965",
"A  c #266D6A",
"S  c #286E6A",
"D  c #346B63",
"F  c #3C6D60",
"G  c #29726E",
"H  c #27716D",
"J  c #38786C",
"K  c #297673",
"L  c #2A7976",
"P  c #287778",
"I  c #2B7C7A",
"U  c #317871",
"Y  c #455042",
"T  c #485344",
"R  c #5A6D4D",
"E  c #596349",
"W  c #406C5D",
"Q  c #4E6B57",
"!  c #596F51",
"~  c #506F55",
"^  c #4E715C",
"/  c #4C785F",
"(  c #50715B",
")  c #5D7351",
"_  c #667A56",
"`  c #737B51",
"'  c #4F7E65",
"]  c #447C69",
"[  c #447A67",
"{  c #537F64",
"}  c #854D1F",
"|  c #8A501F",
" . c #8F5E1F",
".. c #874E20",
"X. c #894E20",
"o. c #8D5321",
"O. c #805528",
"+. c #985F29",
"@. c #8D6328",
"#. c #956423",
"$. c #8E7435",
"%. c #AD7C2C",
"&. c #B07E2D",
"*. c #A3793D",
"=. c #A67F37",
"-. c #B57B3A",
";. c #9B7541",
":. c #5F815E",
">. c #7C814C",
",. c #63845D",
"<. c #6A865F",
"1. c #778652",
"2. c #768A55",
"3. c #7C8B55",
"4. c #7D855B",
"5. c #4D8069",
"6. c #568062",
"7. c #5B8262",
"8. c #6A8660",
"9. c #AF812D",
"0. c #B6832E",
"q. c #A68037",
"w. c #BA853F",
"e. c #BD8F31",
"r. c #BE943D",
"t. c #B9993C",
"y. c #B4993F",
"u. c #C3832A",
"i. c #C0882B",
"p. c #C18D31",
"a. c #CA9F37",
"s. c #C39A3B",
"d. c #CA9937",
"f. c #D29D37",
"g. c #DE9E31",
"h. c #E09F32",
"j. c #D5A133",
"k. c #DBA131",
"l. c #E1A032",
"z. c #8F8847",
"x. c #8B8C4E",
"c. c #918E4F",
"v. c #938646",
"b. c #9F9246",
"n. c #9A9149",
"m. c #848B53",
"M. c #BD8F48",
"N. c #BF8440",
"B. c #A59444",
"V. c #AC9541",
"C. c #B09641",
"Z. c #BE9048",
"A. c #BB9550",
"S. c #C48B42",
"D. c #C68E45",
"F. c #CF9145",
"G. c #C39049",
"H. c #CF964A",
"J. c #D59446",
"K. c #D99747",
"L. c #D69648",
"P. c #D99748",
"I. c #DC9A4A",
"U. c #D79F51",
"Y. c #E09D4D",
"T. c #DEA04E",
"R. c #DCA252",
"E. c #E2A14E",
"W. c #E6A551",
"Q. c #E2A352",
"!. c #E9A752",
"~. c #EBA954",
"^. c #EAAA55",
"/. c #EDAA55",
"(. c #EDAB56",
"). c #EDAB56",
"_. c #EDAA55",
"`. c #EDAD56",
"'. c #E9A853",
"]. c #EEAE58",
/* pixels */
"                                                C Z L I I I I I I I I I I I I I L                                               ",
"                                              M C Z L I I I I I I I I I I I I I K                                               ",
"                                            Z Z Z A L I I I I I I I I I I I I I K Z                                             ",
"                                            Z Z Z A L I I I I I I I I I I I I I G Z                                             ",
"                                            Z Z Z A L I I I I I I I I I I I I I G Z                                             ",
"                                            Z Z Z A L I I I I I I I I I I I I I K Z                                             ",
"                                            Z Z Z Z L I I I I I I I I I I I I I K Z                                             ",
"                                            C Z Z Z L I I I I I I I I I I I I I K Z                                             ",
"                                            C Z Z Z L I I I I I I I I I I I I I G Z                                             ",
"                                            C Z Z Z L I I I I I I I I I I I I I G Z                                             ",
"                                            C C C Z L I I I I I I I I I I I I I G Z                                             ",
"                                            C C C Z L I I I I I I I I I I I I I G C                                             ",
"                                            C C C Z L I I I I I I I I I I I I L G C                                             ",
"                                            C C C Z L I I I I I I I I I I I I I G Z                                             ",
"                                            C C C Z L L L L L L L L L L L L L L G Z                                             ",
"                                            R R R ) <.<.<.<.<.8.8.8.8.<.8.<.<.<._ R                                             ",
"                                            %.%.%.0.d.f.f.f.f.f.f.f.f.f.f.f.f.f.p.&.                                            ",
"                                            %.%.%.9.d.a.a.a.a.a.a.a.a.a.a.a.a.a.e.%.                                            ",
"                                            C C C C C A K L L P K K K K K K L L K K A C                                         ",
"                                            v b b b C Z K K K K K K K K K K K L K K A C                                         ",
"                                            - < < r b C C Z Z Z Z Z Z Z Z Z Z Z Z Z C C                                         ",
"                                            : > : r Q ( ^ ^ ^ ^ ( ^ ( ( ( ^ ( ^ ( ^ D C                                         ",
"                                            e w : a D.K.K.K.K.K.K.K.K.K.K.K.K.K.K.K.                                            ",
"                                            o.} : s F.I.I.I.S.w.L.I.I.I.I.I.S.w.F.I.                                            ",
"                                        w | T.D.: h I._._.~.d + G._._._.~.).j + *.~.                                            ",
"                                        e o.W.H.q O.R._._._.1 o M._._._._.`.g . *.~.                                            ",
"                                        e o.W.W.K.I.~._._._.1 o M.`.`._._.`.g O *._.                                            ",
"                                        9 } W.W.P.I._._._._.2 . Z._._._._.].g . *._.                                            ",
"                                            e ..I.I._._._._.R.R.~._._._._._.R.U.W._.                                            ",
"                                            w | I.I.~._._._.`._.Q.Q.Q.Q.Q.Q.W._._.~.                                            ",
"                                                P.P.I.Y.~._._.Q.+.X.} } ..X.N._.~.                                              ",
"                                                P.L.L.I.'._._.Q.} w w w w w -._.~.                                              ",
"                                                    J.J.P.I.I.I.J.F.F.F.F.F.                                                    ",
"                                                    G.G.G.G.G.G.G.G.G.G.G.G.                                                    ",
"                                        g.g.h.h.h.r.( V W V V V V V V V V W v.g.g.g.                                            ",
"                                        l.l.l.l.l.r.V C Z Z Z C C C C C C Z z.l.h.g.                                            ",
"                                        u.u.u.u.u.q.F / t.j.] K L L L K x.j.1.D B N                                             ",
"                                        u.u.u.u.u.=.F / s.k.[ K K K K K c.k.1.A C C                                             ",
"                                        ! ! ! ! ! ~ G J 6.,.b.B.] K x.V.3.,.[ K A C                                             ",
"                                        C C C C C Z K K K K s.j.' K V.j.2.K K L A C                                             ",
"                                        K K K G M C K L K K { { n.C.,.6.J K L L A C                                             ",
"                                        L L L K M C K L L K K K y.l.{ K K L L L G C                                             ",
"                                        L L L K M C K L L K b.C.<.7.n.C.,.L L L A C                                             ",
"                                        L L L K M C K L L K s.f.' K V.j.2.K L L A C                                             ",
"                                        L L L K M C K ] B.t.:.' U K ] { x.t.,.L A C Z H                                         ",
"                                        L L L K M C K 5.s.g.] K K K K K c.l.2.L A C S K                                         ",
"                                        A A A N # i T f @.#.f Y >.x.x.x.$.#.k Y m M Z A                                         ",
"                                        Z Z C v % & > 7 7 7 6 > i.g.h.g. .> > > i z M Z                                         ",
"                                        4.4.4._ # i Y T T T T Y ` m.m.m.R Y Y Y E ` 4.4.                                        ",
"                                        '.'.~.A.n M K L L L L L L L L L L L L K 4.J.E.'.                                        ",
"                                        '.'.~.A.c M K L L L L L L L L L L L L K 4.J.E.~.                                        ",
"                                        '.'.~.A.c M K L L L L L L L L L L L L K 4.J.E.~.                                        ",
"                                              ;.@ $ p p p p         x p p p p p l                                               ",
"                                                - - - - - -         * ; ; ; ; ;                                                 ",
"                                                4 , , , , ,         = - - , , ,                                                 ",
"                                                u y y y y t         = - t u u u                                                 ",
"                                              7 u u u y 5 4         = - t u u u                                                 ",
"                                            q q u u u 0             = - t u u u                                                 ",
"                                            q q 0 0 0 5             = - 4 0 0 0                                                 ",
"                                            7 7 > > > :             X * : : > >                                                 ",
"                                            7 7 > > : &             X * : : : :                                                 ",
"                                            7 7 > >                 X * : : > >                                                 ",
"                                            7 7 7 7                 X * : > 3 3 >                                               ",
"                                            8 8 w 9 9 8             X % > 8 8 8 8 9                                             "
};
