/* XPM */
static char *l2[] = {
/* columns rows colors chars-per-pixel */
"64 64 221 2 ",
"   c None",
".  c #101017",
"X  c #15141D",
"o  c #19151D",
"O  c #1B181E",
"+  c #100F16",
"@  c #3A130C",
"#  c #35130D",
"$  c #23151B",
"%  c #2C151A",
"&  c #2E191B",
"*  c #26161A",
"=  c #3C1415",
"-  c #3D1916",
";  c #34131A",
":  c #3A1319",
">  c #321C1C",
",  c #3B1919",
"<  c #3B2119",
"1  c #37261D",
"2  c #191720",
"3  c #1D1A21",
"4  c #171920",
"5  c #231E24",
"6  c #2C1D21",
"7  c #19352D",
"8  c #172E2A",
"9  c #2A2429",
"0  c #3D2925",
"q  c #362B29",
"w  c #372928",
"e  c #343135",
"r  c #383436",
"t  c #3A363A",
"y  c #3D3A3E",
"u  c #373438",
"i  c #2E2E2F",
"p  c #4A160A",
"a  c #48150A",
"s  c #521A0D",
"d  c #57170A",
"f  c #4B1A14",
"g  c #411519",
"h  c #4B1419",
"j  c #4A1B19",
"k  c #441916",
"l  c #531216",
"z  c #5D1414",
"x  c #521C13",
"c  c #5B1D13",
"v  c #511D19",
"b  c #551118",
"n  c #6C1C0D",
"m  c #681809",
"M  c #751A0A",
"N  c #631316",
"B  c #631D12",
"V  c #661616",
"C  c #741315",
"Z  c #7B1816",
"A  c #45281C",
"S  c #552216",
"D  c #5A2617",
"F  c #5C381B",
"G  c #69200D",
"H  c #75220E",
"J  c #7C230E",
"K  c #6D2412",
"L  c #682B17",
"P  c #712514",
"I  c #7D2B12",
"U  c #7B2717",
"Y  c #683319",
"T  c #733917",
"R  c #4E1F25",
"E  c #462C28",
"W  c #542D27",
"Q  c #48322C",
"!  c #4A393B",
"~  c #583B2D",
"^  c #653B2B",
"/  c #1D4936",
"(  c #214A37",
")  c #24513B",
"_  c #7B481A",
"`  c #58413C",
"'  c #644732",
"]  c #3F3D41",
"[  c #423E42",
"{  c #2C764E",
"}  c #454245",
"|  c #4A4546",
" . c #4A4649",
".. c #4C494B",
"X. c #534E4E",
"o. c #555051",
"O. c #5A5656",
"+. c #655F5D",
"@. c #66615F",
"#. c #726C69",
"$. c #881905",
"%. c #9A1B02",
"&. c #971809",
"*. c #860F12",
"=. c #8A0F13",
"-. c #910F12",
";. c #841113",
":. c #8B1113",
">. c #831E16",
",. c #821F18",
"<. c #891D17",
"1. c #931413",
"2. c #9A1614",
"3. c #9D1814",
"4. c #961B15",
"5. c #A41E08",
"6. c #A31914",
"7. c #AB1D15",
"8. c #B01F15",
"9. c #83240D",
"0. c #8C280C",
"q. c #982B0C",
"w. c #9E330E",
"e. c #8F2617",
"r. c #842C12",
"t. c #892B12",
"y. c #932A16",
"u. c #863714",
"i. c #973B12",
"p. c #A42206",
"a. c #AB2A07",
"s. c #AB2607",
"d. c #B42B07",
"f. c #B22B08",
"g. c #BC2D09",
"h. c #B52809",
"j. c #A1350E",
"k. c #BB350D",
"l. c #AF2115",
"z. c #B32115",
"x. c #BB2316",
"c. c #BE2916",
"v. c #A43816",
"b. c #C42E09",
"n. c #C23007",
"m. c #C43209",
"M. c #CB3609",
"N. c #CD3B09",
"B. c #D43B09",
"V. c #DC3D0A",
"C. c #D33E07",
"Z. c #C32616",
"A. c #C32A15",
"S. c #CA2916",
"D. c #D22E16",
"F. c #D53116",
"G. c #DA3313",
"H. c #DE3C19",
"J. c #D73A18",
"K. c #CA3819",
"L. c #E33C0A",
"P. c #E23D18",
"I. c #9E4312",
"U. c #9F4B14",
"Y. c #8D5017",
"T. c #B45112",
"R. c #934F26",
"E. c #B35E2A",
"W. c #C7440E",
"Q. c #DD4309",
"!. c #D3440B",
"~. c #DC411A",
"^. c #D15710",
"/. c #E2430A",
"(. c #EB450B",
"). c #EC4D0B",
"_. c #E54D0A",
"`. c #F34A0A",
"'. c #EC550B",
"]. c #E3550D",
"[. c #F2540A",
"{. c #F45D0C",
"}. c #F95E0A",
"|. c #E5441B",
" X c #E7491B",
".X c #E8471C",
"XX c #C76715",
"oX c #D56B14",
"OX c #F6620C",
"+X c #F7670D",
"@X c #F7700F",
"#X c #E96A11",
"$X c #F57311",
"%X c #F77C14",
"&X c #EE6711",
"*X c #D46937",
"=X c #E36D3A",
"-X c #E7763D",
";X c #F1743F",
":X c #CC5D2F",
">X c #B87F4B",
",X c #D57342",
"<X c #F97D45",
"1X c #E57545",
"2X c #2F8253",
"3X c #F88415",
"4X c #F98A18",
"5X c #B8824C",
"6X c #CA844D",
"7X c #D99355",
"8X c #D98C4F",
"9X c #FC854C",
"0X c #F4854A",
"qX c #E89654",
"wX c #F69A56",
"eX c #EF8C4F",
"rX c #ECA15D",
"tX c #F3A45D",
"yX c #FAA55C",
"uX c #FBA95E",
"iX c #FCAB60",
/* pixels */
"                                                  y t t r r t r r r r t t X.                                                    ",
"                                                  o o o o o o o o o o o o y                                                     ",
"                                          X.o.o.! P U U U N N N N b b b b W o.o.o.                                              ",
"                                          o o o > J.|.|.|.7.7.7.6.;.:.:.:.h o o o X.                                            ",
"                                      ..! j A A D ~.|.|.|.c.c.l.7.1.1.:.:.z ; ; ; ! ..                                          ",
"                                      X $ J.|. X X X X X X X|.c.7.7.7.2.:.:.=.=.*.l o                                           ",
"                                    [ ; : y.v.v.v.K.K.~.|.|.|.A.x.8.7.3.1.1.1.:.=.N ; 9                                         ",
"                                  X $ 1.:.o X X o ;.:.A.D.H.|.|.|.x.8.7.7.7.7.2.:.;.*.; X 5                                     ",
"                                  o $ *.;.$ $ o o V C l.c.F.H.P.|.x.z.l.7.7.7.2.:.:.;.; o o                                     ",
"                                @.o $ m m a p @ # o X C :.z.Z.F.|.P.P.A.7.7.7.7.7.2.:.; o 5                                     ",
"                                o.o % H G p p @ # o o N C l.Z.S.H.H.H.A.7.7.7.7.7.3.:.: O 6                                     ",
"                              X o d G ;X=Xd p @ @ p p o X >.6.x.Z.Z.S.x.7.7.7.7.7.3.:.;.;.l o  .                                ",
"                              o $ d G <X-XS s @ @ p p $ o Z 2.z.Z.S.S.x.7.7.7.7.7.3.:.:.:.l 2 }                                 ",
"                              o $ d L yXyX;X=X6 o a p p p * $ <.Z.S.S.S.S.z.7.7.7.3.:.:.:.l o  .                                ",
"                              o * Y.R.uXyX9X0X^ W p p p a * o ,.Z.S.S.S.S.z.7.7.7.6.2.:.:.l 2  .                                ",
"                              o w uXuXiXiXiXuX<X=Xs p p a * X ,.Z.S.S.S.S.z.7.7.7.7.7.1.:.l o }                                 ",
"                              o q 7X7XiXiXiXuX*XE.Y Y L D & X Z Z.S.S.S.S.z.7.7.7.7.7.1.:.l o  .                                ",
"                              X o 5 Q iXiXiXtXw w qXwXeX0X^ X ,.Z.S.S.S.S.z.7.7.7.7.7.1.:.l o  .                                ",
"                              o o 2 q iXiXiXtXq q rXiXuXyX' X ,.Z.S.S.Z.Z.z.7.7.7.6.6.1.:.l o }                                 ",
"                              o 2 2 q iXiXiXtX9 q rXiXiXuX' X Z Z.S.S.z.7.7.7.7.7.3.:.:.:.l o }                                 ",
"                            y O O 3 0 iXiXiXtXw w rXiXiXuX' X 9.Z.S.S.x.7.7.7.7.7.3.:.:.:.b o  .                                ",
"                        +.X 0 =X-XuXuXiXiXiXiX9X<X9X9X9X<X^ X ,.Z.z.7.7.7.7.7.7.7.3.:.:.:.l 2  .                                ",
"                        +.X 0 -X-XrXtXiXiXrXrX9X<X9X9X1X1XW O ,.x.z.7.7.7.7.7.7.7.3.:.;.;.j 5 |                                 ",
"                        @.o E uX>XX w yX7XX 3 1X9X9X9XE X 4.7.7.7.7.7.7.7.7.7.2.:.:.;.: X 9                                     ",
"                          X 0 uX5XX 0 yX7XX 3 8X9X9X9XW X 4.7.7.7.7.7.7.7.7.7.2.:.:.*.= o 3                                     ",
"                              $ E qX,Xo 9 8XqX9X,X6 O Z 3.7.7.7.7.7.7.7.7.1.:.:.:.:.*.= X o                                     ",
"                              o 0 wX6Xo 9 qXwX9X,X5 X >.7.7.7.7.7.7.7.7.7.1.:.:.:.:.;.g X 2                                     ",
"                                | ~ ~ R.E.-X-X^ W Z Z 3.7.7.7.7.7.7.7.6.1.:.:.:.:.:.:.C V h X y                                 ",
"                                  X & :X:X*X:X6 $ 3.7.8.z.z.8.7.7.7.7.6.:.:.:.:.:.:.:.:.:.l o }                                 ",
"                                    #.& > > > N Z 7.x.S.D.D.D.x.7.7.7.7.7.2.:.:.:.:.:.:.:.b o }                                 ",
"                                      X X X X Z 1.7.x.D.D.D.D.x.7.7.7.7.7.2.:.:.:.:.:.:.:.b X ]                                 ",
"                                      X o n M = : 1.6.S.D.D.D.S.S.z.7.7.7.6.6.6.6.2.:.:.:.C z R y X.                            ",
"                                      X $ p.s.% $ 1.3.S.F.D.D.F.F.z.7.7.7.7.7.7.7.3.:.:.:.:.=.b o y                             ",
"                                  r w q.w.!.Q.q.I ; % <.7.S.F.F.F.z.7.7.7.7.7.7.7.3.:.:.=.=.=.b X t                             ",
"                                  X & B.B.).).B.k.$ X Z 6.S.D.F.F.l.7.7.7.7.7.7.7.3.:.:.:.:.:.l X t                             ",
"                              9 0 q.w.&X#X%X%X#X#Xq.0.f ; : , <.z.7.7.7.7.2.1.1.:.:.:.:.:.:.:.b X u                             ",
"                              o > /./.%X3X4X4X3X$XN.B.k X X X Z 7.7.7.7.7.1.:.:.:.:.:.:.:.:.:.b X i                             ",
"                              o O S S F F F F F F !._.j.0.0.0.c g g g g g : : : : : : : : : : % X 5 e                           ",
"                              o X X X X X X X X o ^.{.!.M.M.M.S X X X X X X X X X X X X X X X X X X o O                         ",
"                              X > r.K X o z N u.u.D D T.].].].j.I r.r.J H - X : z z z z z : X X X e |                           ",
"                              o A /.k.X O 3.5.'.&X> X T.%X$X@X_.Q.V.V.M.n.c X z 1.1.1.1.1.l X X X [                             ",
"                          } ` u.i.(.m.X $ k.B.(.).> X D Y Y T L K T.'.B.n.c X N 1.6.h.h.s.9.B c z W ..                          ",
"                          X A [.).`.m.X $ B.(.`.(.> X X X X X X X I.OX!.n.c X N 1.l.M.M.M.g.g.h.s.z X +                         ",
"                          X A $X^.I I Y._ P r.r.r.$ X 7 / ( ( 4 X U.@X].Q.w.H z h M h.m.B.N.M.m.b.c X .                         ",
"                          X A 3XT.X > 3XoXX X X X X X ) { { 2X3 X U.%XOX[.C.n.c X x 5.b./././.V.B.D X .                         ",
"                          X A 3XXXP K Y._ B B P P $ X 7 / ( ) F _ XX3XOX[.C.n.9.x c B P r.t.t.r.r.k X .                         ",
"                          X A 4X#XV.k.X $ h.g.V.V.% X X X X X U.4X4X4XOX`.B.n.d.s.n X X X X X X X X X .                         ",
"                          X A %X&XV.k.X $ g.b.L.L.& X 4 8 1 Y XX3X%X$X'./.M.n.g.d.9.f f f f x , X 9 9                           ",
"                          X A +X{.(.W.X $ M.L.L.V.& X 7 ) R.OX$X%X{.).B.m.m.m.m.n.d.p.p.p.a.f.K X [                             ",
"                          i Q U.i.y.r.f x r.t.y.t.S S i 7 F i.oX$X_.Q.N.m.m.n.g.d.s.p.p.p.a.f.K o }                             ",
"                              2 X X & B.N.O X X X W.[.S X X X I.'.N.n.n.n.n.n.g.p.p.p.p.p.a.f.K o  .                            ",
"                              e 9 X > Q.!.A < < < W.[.Y < < < j.Q.M.n.n.n.g.g.d.5.p.p.p.p.q.9.L r O.                            ",
"                                  X > '.{.OXOXOX}.}.OX+X@X+X{.N.d.d.g.g.g.f.5.p.p.p.p.p.p.B X t                                 ",
"                                  o Q i.i.I.I.I.I.i.I.U.U.U.I.r.H H J J J M n n n n n n n x - E |                               ",
"                                      X X X X X X X X X X X X X X X X X X X X X X X X X X x q.B X }                             ",
"                                 .  } X o j v v v v v v v j j j j g : : : : : $ X $ = = = n p.B X  .                            ",
"                              o X X X X $ A.F.F.G.G.G.G.G.Z.x.Z.Z.6.-.-.=.-.-.g X x %.%.%.%.5.n X |                             ",
"                              o $ c x f x t.e.e.e.e.e.e.y.>.,.>.>.C N N N N N h , m %.%.%.$.M D o |                             ",
"                              o - a.a.f.a.o X X X X X X X X X X X X X X X X X c $.$.$.%.%.c X ..                                ",
"                              y Q G H p.p.k - - - o X e y [ [ [ y [ } [ y y y A d n $.$.$.s X  .                                ",
"                                  X $ p.a.a.f.a.a.% X                         y X a M M M p X  .                                ",
"                                  o o H J J 9.J J $ X                         t X * s s s = O }                                 ",
"                                      X X X X X X X X                     ] X X X X X X X .                                     ",
"                                      X X X X X X X X                     y X X X X X X X                                       "
};
