/* XPM */
static char *u1[] = {
/* columns rows colors chars-per-pixel */
"64 64 165 2 ",
"   c None",
".  c #1B171C",
"X  c #1E191E",
"o  c #211A1E",
"O  c #2A1C1E",
"+  c #351D1D",
"@  c #3D1F1E",
"#  c #3C211E",
"$  c #1F1A20",
"%  c #231D22",
"&  c #2C1C22",
"*  c #321D22",
"=  c #3B1C21",
"-  c #342022",
";  c #3A2020",
":  c #441E1E",
">  c #4E1C1F",
",  c #501C1F",
"<  c #5C1B1E",
"1  c #631C1F",
"2  c #6C1C1E",
"3  c #731D1E",
"4  c #7C1D1D",
"5  c #44251F",
"6  c #4C271F",
"7  c #4F281F",
"8  c #53271D",
"9  c #55291E",
"0  c #5F2C1D",
"q  c #64221D",
"w  c #6C2318",
"e  c #602C1D",
"r  c #7C2216",
"t  c #76281B",
"y  c #441C21",
"u  c #4C1C21",
"i  c #551B21",
"p  c #5C1B21",
"a  c #621C21",
"s  c #6A1D20",
"d  c #432221",
"f  c #831E1C",
"g  c #8D1E1B",
"h  c #911F1B",
"j  c #842316",
"k  c #8E2615",
"l  c #85201D",
"z  c #8D211C",
"x  c #8B281B",
"c  c #95211B",
"v  c #9B221A",
"b  c #99211B",
"n  c #9C2319",
"m  c #9E2319",
"M  c #9D211B",
"N  c #9C221A",
"B  c #9E241A",
"V  c #9D261D",
"C  c #9B221A",
"Z  c #932819",
"A  c #A42612",
"S  c #A92712",
"D  c #AE2A12",
"F  c #A0201B",
"G  c #A22519",
"H  c #A3251A",
"J  c #A3251A",
"K  c #A72519",
"L  c #A52619",
"P  c #A62619",
"I  c #A72618",
"U  c #A5251B",
"Y  c #A7251A",
"T  c #A32519",
"R  c #A8251A",
"E  c #AA261A",
"W  c #AE261A",
"Q  c #AA2619",
"!  c #A22C1B",
"~  c #A62E1B",
"^  c #A7291C",
"/  c #A72819",
"(  c #AC2819",
")  c #AC2919",
"_  c #B42C13",
"`  c #BC2D16",
"'  c #B02918",
"]  c #B12918",
"[  c #B52A1A",
"{  c #B72F1B",
"}  c #B62C18",
"|  c #BA2D18",
" . c #B82E19",
".. c #BB2E19",
"X. c #BC2D19",
"o. c #BC2E18",
"O. c #BD2E18",
"+. c #BC2E19",
"@. c #BE2E18",
"#. c #BF2E19",
"$. c #BA2D18",
"%. c #BC3112",
"&. c #B8301B",
"*. c #B9301B",
"=. c #B9301C",
"-. c #C42F17",
";. c #C52F15",
":. c #C12F18",
">. c #C02E19",
",. c #C02F19",
"<. c #C12F19",
"1. c #C32F18",
"2. c #C02F18",
"3. c #C43117",
"4. c #C53117",
"5. c #C63117",
"6. c #C73117",
"7. c #C73217",
"8. c #C53216",
"9. c #C83217",
"0. c #CA3416",
"q. c #CF3A15",
"w. c #C33018",
"e. c #C43018",
"r. c #C53018",
"t. c #C53118",
"y. c #C53019",
"u. c #C53119",
"i. c #C63018",
"p. c #C63118",
"a. c #C73118",
"s. c #C73119",
"d. c #C63218",
"f. c #C73218",
"g. c #C63219",
"h. c #C73219",
"j. c #C73319",
"k. c #C53218",
"l. c #C83118",
"z. c #C83119",
"x. c #C83218",
"c. c #C93218",
"v. c #C83318",
"b. c #C93318",
"n. c #C83219",
"m. c #C93219",
"M. c #C83319",
"N. c #C93319",
"B. c #CA3218",
"V. c #CA3318",
"C. c #CB3318",
"Z. c #CA3219",
"A. c #CB3219",
"S. c #CA3319",
"D. c #CB3319",
"F. c #CA331A",
"G. c #C83318",
"H. c #D13D14",
"J. c #D64214",
"K. c #DD4B14",
"L. c #E14F13",
"P. c #E45513",
"I. c #E85713",
"U. c #E75913",
"Y. c #EA5C13",
/* pixels */
"                                                  $ % % % % % % % % % % % % %                                                   ",
"                                                  & * * * - - - - * - - * * *                                                   ",
"                                            . % % h z V *.*.=.*.*.*.*.} ^ z g = % X                                             ",
"                                            X % & F M E D.D.D.D.D.D.D.d.[ M c y % %                                             ",
"                                            : u u W E [ D.D.D.D.D.D.D.D.+.P P a u y                                             ",
"                                      X % % f c b D.D.D.D.D.D.D.D.D.D.D.D.D.d.H c c = % %                                       ",
"                                      X % % l M M D.D.D.D.D.D.D.D.D.D.D.D.D.d.P M M = % %                                       ",
"                                      X % % ! ,.,.D.D.D.D.D.D.D.D.D.D.D.D.D.D.w.,.+.d % o                                       ",
"                                      X % % ~ d.d.D.D.D.D.D.D.D.D.D.D.D.D.d.D.d.d.d.d % %                                       ",
"                                  X X < 4 4 ..d.d.d.D.D.D.D.D.D.D.D.D.D.D.d.D.d.d.d.z 4 1 X X                                   ",
"                                  % % 1 h h +.d.d.D.D.D.D.D.D.D.D.D.D.D.d.d.d.d.d.d.M h 3 % %                                   ",
"                                  % % 1 h h ..d.d.d.d.d.d.d.d.d.D.D.D.D.d.d.d.d.d.d.M h 3 % %                                   ",
"                                  % % 1 h h ..d.d.d.d.d.d.d.D.D.D.D.9.D.d.d.d.d.d.d.M h 3 % %                                   ",
"                                  % % 1 h h ..d.d.d.d.d.d.7.D.D.d.D.9.d.d.d.d.d.d.;.M h 3 % %                                   ",
"                                  % % 1 g g B H H D.d.d.d.d.d.D.7.d.7.d.d.d.d.( H H h h 3 % %                                   ",
"                                  % % 1 g g h h h D.d.d.d.d.d.d.d.d.7.7.d.d.d.M h g g g 3 % %                                   ",
"                                  % % 1 g g g h h ,.+.,.7.7.d.d.7.7.7.d.,.+.+.M g g g g 3 % %                                   ",
"                                  % % 1 g g g g g g g H 7.7.d.7.7.7.7.7.] h g g g g g g 2 % %                                   ",
"                                  % % 1 g g g g g g g H 7.7.7.7.7.7.7.7.] g g g g g g g 2 % %                                   ",
"                                  % % i 3 3 g g g g g b P P P P P P P P M g g g g g g g 2 % %                                   ",
"                                  % % y p < f g g g g g g g g g g g g g g g g g g g g g 2 % %                                   ",
"                                  % % y p p f g g g g g g g g g g g g g g g g g g g f f 1 % %                                   ",
"                                  % % y p p f g g g g g g g g g g g g g g g g g g g 1 p u % %                                   ",
"                                  % % y p < f g g g g g g g g g g g g g g g g g g g 1 p u % %                                   ",
"                                  % % y p p 2 3 3 g g g g g g g g g g g g g g 4 3 2 p p u % %                                   ",
"                                  % % y p p p a 1 g g g g g g g g g g g g g g 2 p p p p u % %                                   ",
"                                  % % y i p < < 1 g g g g g g g g g g g g g g 2 < < p p u % %                                   ",
"                            . X O i i p p < f g g g g g g g g g g g g g g g g g g f 2 a p i i = X .                             ",
"                            X % & i p p p 1 f g g g g g g g g g g g g g g g g g g g 2 a p p i = % %                             ",
"                            X % & p p 2 3 3 g g g g g h H P P P P P P P M g g g g g 4 3 2 p p y % %                             ",
"                            X % & p p 4 g g g g g g g M ..@.+.@.@.;.;.@.W h g g g g g g 4 < p y % %                             ",
"                            X % & 1 1 4 g g g g g g g M [ } ....o.o.o.$.P g g g g g g g f 1 < y % %                             ",
"                        % % % % * f f g g g g g g g g g h h h h h h h h h g g g g g g g g g f < % % o % .                       ",
"                        % % % % * f g g g g g g g g g g g g g g h h h g g g g g g g g g g g f < % % % % X                       ",
"                        % % % % & u u > > > u > > > > , > > , , , , , , > > > , , , > > > > > = % % % % X                       ",
"                        % % % % % % % % % % % % % % % % % % % % % % % % % % % % % % % % % % % % % % % % X                       ",
"                        % % & & & & & & & & * * * * * * * * * * * * * * * * * * * * & & & & & & & & % % X                       ",
"                        % % i p p p p p a 1 f f g g g g g g z g g g g g g g g g f f 1 p p p p p p i & % X                       ",
"                        % % i p p p p a 1 2 g h c b b b b M b b M b M M b b b h g g 2 a a a a a p p & % X                       ",
"                        % % p p p p a 3 f f b M M [ [ } } ..............[ [ [ M h g f 4 3 a a a p p & % X                       ",
"                        % % i p p p a f h h M M M d.7.d.d.7.d.d.d.d.7.d.d.d.w.H b h g g f a a a a p & % X                       ",
"                        % % p p a 2 3 g b b H E E d.7.d.D.9.D.9.D.D.9.9.7.d.d.( H M b g f 3 2 s a p & % o                       ",
"                        % % p a 2 z z b M M ..w.d.7.7.d.9.0.b.9.9.9.9.9.9.7.7.3.,.;.H b b g g 3 a p & % o                       ",
"                        % % p a 2 c b M M F +.7.d.d.7.d.0.0.9.9.9.9.0.0.7.7.7.7.7.7.P M b c z 4 a p & % o                       ",
"                        % % a s 3 b M ( ..@.7.9.9.0.9.q.K.K.K.K.K.K.K.K.J.0.9.9.7.7.o.} ( b c f s a & % o                       ",
"                        % % a s 3 M M } 7.9.9.0.0.0.0.J.I.I.I.Y.Y.Y.Y.I.K.0.0.0.7.7.7.3.} b b f s a * % o                       ",
"                        % % 2 3 4 H P ..9.9.0.0.0.q.q.J.Y.Y.Y.Y.Y.Y.Y.I.K.q.q.0.9.9.7.7...B M z 3 a * % o                       ",
"                        % % l c M d.7.7.0.0.0.0.0.Y.I.Y.Y.Y.Y.Y.Y.Y.Y.Y.Y.I.I.H.0.0.7.7.7.3.w./ g 4 * % o                       ",
"                        % $ z M B d.7.0.0.9.0.0.0.Y.I.Y.Y.Y.Y.Y.Y.Y.Y.Y.Y.Y.I.H.0.0.0.9.7.7.w.( z f & % X                       ",
"                            > , q 8.9.0.0.0.J.K.K.Y.Y.Y.Y.Y.Y.Y.Y.Y.Y.Y.Y.Y.Y.L.K.K.q.9.9.7.7.x , >                             ",
"                            X % ; 8.0.0.0.0.P.U.U.Y.Y.Y.Y.Y.Y.Y.Y.Y.Y.Y.Y.Y.Y.Y.Y.I.H.0.0.7.7.t % %                             ",
"                            X % ; 3.7.0.0.0.K.P.P.Y.Y.Y.Y.Y.Y.Y.Y.Y.Y.Y.Y.Y.Y.P.P.L.q.0.7.3.%.t % %                             ",
"                            X % + %.` 3.0.0.q.q.q.Y.Y.Y.Y.Y.Y.Y.Y.Y.Y.Y.Y.Y.Y.J.q.9.9.9.3.D D w % %                             ",
"                            . % + %.%.8.0.0.q.q.H.Y.Y.Y.Y.Y.Y.Y.Y.Y.Y.Y.Y.Y.Y.J.q.q.9.9.3._ _ w % X                             ",
"                                  @ : r A S ` ;.7.0.0.q.q.q.q.q.q.q.q.q.q.q.q.7.;.;._ D k @ @ +                                 ",
"                                  % % w A A ` ;.;.;.;.;.;.;.;.;.;.;.;.;.;.;.;.;.;.;.D S j % % .                                 ",
"                                  . X < r r k Z Z Z Z Z Z Z Z Z Z Z Z Z Z Z Z Z Z Z j j w . X                                   ",
"                                      X % % % % % % % % % % % % % % % % % % % % % % % % X                                       ",
"                                      . % % % % % % % % % % % % % % % % % % % % % % % % o                                       ",
"                                      . % % 6 9 9 9 9 d % %         % % - 9 9 9 9 9 & % o                                       ",
"                                      . % % 9 e e 0 0 6 % %         % % ; 0 e e e e & % X                                       ",
"                                        . . 5 7 7 7 6 5 % %         % % - 9 9 8 8 7 O . .                                       ",
"                                            X % % % % % % %         % % & # # + O O                                             ",
"                                            . % % % % % % %         X % O + + O O o                                             "
};
