/* XPM */
static char *u2[] = {
/* columns rows colors chars-per-pixel */
"64 64 179 2 ",
"   c None",
".  c #171318",
"X  c #1B171C",
"o  c #1C181D",
"O  c #28171D",
"+  c #211B1F",
"@  c #3B1A17",
"#  c #31171C",
"$  c #321B1E",
"%  c #3B1D1F",
"&  c #35201E",
"*  c #3A211E",
"=  c #1F1B21",
"-  c #231C22",
";  c #2D1D22",
":  c #361D21",
">  c #391C21",
",  c #372220",
"<  c #3A2320",
"1  c #401B1E",
"2  c #4F1C1F",
"3  c #551C1E",
"4  c #5B1D1E",
"5  c #641B1F",
"6  c #6C1C1E",
"7  c #741D1D",
"8  c #7C1D1D",
"9  c #40231E",
"0  c #4B201A",
"q  c #4E281F",
"w  c #53231C",
"e  c #5C241B",
"r  c #55291E",
"t  c #5F2C1E",
"y  c #62241D",
"u  c #6E241C",
"i  c #612D1D",
"p  c #71241C",
"a  c #70281E",
"s  c #431C20",
"d  c #4A1C20",
"f  c #561B21",
"g  c #5B1A20",
"h  c #641B20",
"j  c #402420",
"k  c #831D1C",
"l  c #8C1E1B",
"z  c #921F1B",
"x  c #9A1F1B",
"c  c #822814",
"v  c #84211D",
"b  c #88211D",
"n  c #89291A",
"m  c #912C13",
"M  c #9E2D12",
"N  c #93201B",
"B  c #97211B",
"V  c #97221A",
"C  c #97201C",
"Z  c #97271C",
"A  c #95201A",
"S  c #9B211B",
"D  c #9D231A",
"F  c #9A201C",
"G  c #9B211A",
"H  c #98281C",
"J  c #982F18",
"K  c #9B3019",
"L  c #B42F0D",
"P  c #B6300D",
"I  c #BA320D",
"U  c #AE2717",
"Y  c #A12D12",
"T  c #A1251A",
"R  c #A3241B",
"E  c #A12519",
"W  c #A52519",
"Q  c #A52619",
"!  c #A62619",
"~  c #A5251B",
"^  c #A42519",
"/  c #A92719",
"(  c #A8261A",
")  c #AA271A",
"_  c #AA2718",
"`  c #A42B1C",
"'  c #AD2819",
"]  c #AF291B",
"[  c #AB2E1B",
"{  c #AB2F1C",
"}  c #AA2E1C",
"|  c #AB2A19",
" . c #B72B17",
".. c #BD2D17",
"X. c #B12919",
"o. c #B32A19",
"O. c #B12A1A",
"+. c #B72C19",
"@. c #B42B18",
"#. c #BA2D18",
"$. c #BD2D18",
"%. c #BD2E18",
"&. c #BF2E19",
"*. c #BE2D19",
"=. c #BA2D18",
"-. c #AD3119",
";. c #BC3310",
":. c #C3370E",
">. c #C5390E",
",. c #CA3E0F",
"<. c #C32F17",
"1. c #C12F16",
"2. c #C02E1A",
"3. c #C02F18",
"4. c #C43017",
"5. c #C53017",
"6. c #C53117",
"7. c #C63117",
"8. c #C73117",
"9. c #C53217",
"0. c #C83217",
"q. c #C93217",
"w. c #CA3217",
"e. c #C93417",
"r. c #C73812",
"t. c #CD3C17",
"y. c #C33018",
"u. c #C43018",
"i. c #C53118",
"p. c #C43119",
"a. c #C63118",
"s. c #C73118",
"d. c #C73119",
"f. c #C63119",
"g. c #C63218",
"h. c #C73218",
"j. c #C63219",
"k. c #C73219",
"l. c #C53218",
"z. c #C83118",
"x. c #C83119",
"c. c #C93119",
"v. c #C83218",
"b. c #C93218",
"n. c #C83318",
"m. c #C93318",
"M. c #C83219",
"N. c #C83319",
"B. c #C93319",
"V. c #CA3218",
"C. c #CA3318",
"Z. c #CA3219",
"A. c #CA3319",
"S. c #CB3219",
"D. c #C9321A",
"F. c #CA3518",
"G. c #CC3A18",
"H. c #D03F17",
"J. c #C5430F",
"K. c #C54611",
"L. c #C64911",
"P. c #D44415",
"I. c #D24B10",
"U. c #DA4A15",
"Y. c #DE5215",
"T. c #DB5319",
"R. c #DF581A",
"E. c #E25614",
"W. c #E55B15",
"Q. c #EA5E16",
"!. c #E76215",
"~. c #EA6315",
"^. c #EB6B17",
"/. c #E6621A",
"(. c #ED6F19",
"). c #EF7219",
"_. c #F2751B",
"`. c #F57A1C",
"'. c #F87C1B",
/* pixels */
"                                                  - - - - - - - - - - - - - o                                                   ",
"                                                  - - - - - - - - - - - - - o                                                   ",
"                                            o o 1 8 v Z { { [ [ { { [ ` b v 4 o X                                               ",
"                                            - - d z C ] Z.Z.Z.Z.Z.Z.Z.3.G F 5 - - X                                             ",
"                                            d d y ~ ( +.Z.Z.Z.Z.Z.Z.Z.d.( ( v d d %                                             ",
"                                      X - ; z z R d.Z.Z.Z.Z.Z.Z.Z.Z.Z.Z.d.d.X.z z 5 - -                                         ",
"                                      X - ; z z ~ Z.Z.Z.Z.Z.Z.Z.Z.Z.Z.Z.Z.Z.X.x z 5 - -                                         ",
"                                      X - ; $.$.$.Z.Z.Z.Z.Z.Z.Z.Z.Z.Z.Z.Z.Z.d.$.$.p - -                                         ",
"                                      o - : Z.d.d.d.Z.Z.Z.Z.Z.w.Z.Z.Z.Z.d.Z.Z.Z.Z.a - -                                         ",
"                                  X X 4 5 u Z.d.d.d.Z.Z.Z.Z.Z.Z.w.Z.Z.Z.d.d.Z.Z.Z.H 6 6 # X                                     ",
"                                  - - 7 z B d.d.d.d.d.Z.Z.d.Z.Z.Z.Z.Z.Z.d.Z.d.8.d.] z z > - o                                   ",
"                                  - - 7 l B d.d.d.d.d.d.Z.d.Z.Z.Z.Z.Z.d.d.d.d.8.d.] z z : - o                                   ",
"                                  - - 7 l N d.d.d.d.d.d.Z.Z.Z.Z.Z.d.d.d.d.d.d.d.d.] z z > - o                                   ",
"                                  - - 7 l N d.d.d.d.d.d.Z.d.w.Z.d.d.Z.d.d.d.d.d.8.] z z > - o                                   ",
"                                  - - 7 l l ~ ~ X.d.d.d.d.d.d.w.d.d.d.d.d.d.=.( ( D z l : - o                                   ",
"                                  - - 7 l l l z R d.d.d.d.d.8.8.d.d.8.d.d.d.] z z z l l : - o                                   ",
"                                  - - 7 l l l l R Z.Z.d.8.d.d.8.d.d.8.8.w.Z.X.z z l l l : - o                                   ",
"                                  - - 7 l l l l l l z ( 8.d.8.8.8.d.8.$.N z z z l l l l : - X                                   ",
"                                  - - 7 l l l l l l l ( <.y.8.8.8.d.d.$.z z l l l l l l : - X                                   ",
"                                  - - 7 l l l l l l l B ~ ~ ~ ~ ~ ~ ~ R l l l l l l l l : - X                                   ",
"                                  - - 7 l l l l l l l l l l l l l l l l l l l l l l l l : - o                                   ",
"                                  - - 6 k k l l l l l l l l l l l l l l l l l l l l k k : - X                                   ",
"                                  - - d g 5 l l l l l l l l l l l l l l l l l l l 8 5 g ; - o                                   ",
"                                  - - d g 5 l l l l l l l l l l l l l l l l l l l 8 5 g ; - o                                   ",
"                                O > > 4 6 7 l l l l l l l l l l l l l l l l l l l k 7 6 s > #                                   ",
"                            X - : f g 8 l l l l l l l l l l l l l l l l l l l l l l l l 5 g d - -                               ",
"                            o - : f g 8 l l l l l l l l l l l l l l l l l l l l l l l l 5 g d - -                               ",
"                            o - : g g 8 l l l l l l l l l l l l l l l l l l l l l l l l 5 g d - -                               ",
"                            o - : g g 8 l l l l l l l l l l l l l l l l l l l l l l l l 5 g d - -                               ",
"                            > s f 6 7 k l l l l z R R R ~ ~ ~ ~ ~ ~ ~ R ~ ~ G l l l l l 7 6 5 s d #                             ",
"                      o - - f g 6 l l l l l l l D ......<...<.<.<.<.<.<.<...U z z z l l l l 8 5 h s - -                         ",
"                      o - - f g 7 l l l l l z z R ....<.<.<.<.<.<.<.<.<.<...U z z z l l l l 8 5 h s - -                         ",
"                      o - - f g 7 l l l l z  . .#...<.<.<.<.<.<.<.<.<.<.<.<...#. .~ l l l l 8 5 h s - -                         ",
"                      X - - f h 7 l l l l z ............<.<.<.<.<.<.<.<.<.<.<.<...( z l l l 8 5 5 s - =                         ",
"                      o - - > s d 3 3 3 3 4 u u u u u u p p p p u u p u u u u u u y 3 3 3 3 2 s s : - -                         ",
"                      X - - - - - - - - - - - - - - - - - - - - - - - - - - - - - - - - - - - - - - - =                         ",
"                      X - - - - - - - - - - - - - - - - - - - - - - - - - - - - - - - - - - - - - - - =                         ",
"                      o - - k z G x D =.d.d.Z.Z.F.F.F.F.F.F.F.F.F.F.F.F.F.F.F.F.F.Z.Z.d.T D G x x 4 - -                         ",
"                      X - - k l z z B @.3.y.d.8.d.n.e.F.e.e.e.e.e.F.e.e.F.F.n.d.8.d.<.y.D B N z z 4 - -                         ",
"                      X - - k l G ( ] $.y.d.8.w.G.P.U.U.U.U.U.U.U.U.U.U.U.U.P.e.w.d.8.d.X.] ~ z B 4 - -                         ",
"                      o - - k l ~ y.d.d.d.d.n.e.P.W.Q.Q.Q.Q.Q.Q.Q.Q.Q.~.~.~.Y.e.e.Z.d.d.d.d.+.G B 4 - -                         ",
"                      X - - k l ~ y.d.d.d.n.e.e.P.W.Q.Q.Q.Q.Q.Q.Q.Q.Q.Q.~.Q.U.t.F.F.w.d.d.d.=.G B 4 - =                         ",
"                      X - - k z ~ y.8.d.8.G.`.`.`.`.`.`.`.`.`.'.`.`.'.`.`.`.`.`.`.R.w.F.d.d.8.8.d.u - -                         ",
"                      X - - k N ~ y.y.d.e.t.`.`.`.`.`.`.`.`.`.`.`.`.`.`.`.`.`.`.`.R.e.F.d.8.8.y.y.u - =                         ",
"                      X - - D ] =.d.8.T././.`.`.`.`.`.`.`.`.`.`.`.`.`.`.`.`.`.`.`.(././.G.e.8.8.8.u - -                         ",
"                      X - - | ..y.8.8./._._.`.`.`.`.`.`.`.`.`.`.`.`.`.`.`.`.`.`.`.`.`._.t.e.e.8.8.u - -                         ",
"                      o - - | ..y.8.8./._._.`.`.`.`.`.`.`.`.`.`.`.`.`.`.`.`.`.`.`.`.`._.P.e.w.8.y.u - -                         ",
"                      X - - | ..y.8.8./._._.`.`.`.`.`.`.`.`.`.`.`.`.`.`.`.`.`.`.`.`.`._.H.e.e.8.8.u - -                         ",
"                      X - - [ ..y.8.8./._._.`.`.`.`.`.`.`.`.`.`.`.`.`.`.`.`.`.`.`.`.`._.H.e.e.d.d.a - -                         ",
"                            e y n 8.8.Y.W.!.`.`.`.`.`.`.`.`.`.`.`.`.`.`.`.`.`.`.`.(.~.~.t.e.-.y y 0                             ",
"                            o - y 8.e.U.E.E.`.`.`.`.`.`.`.`.`.`.`.`.`.`.`.`.`.`.`.^.W.E.t.e.K - -                               ",
"                            X - y 9.9.P.U.Y._._._.`.`.`.`.`.`.`.`.`.`.`.`.`.`._._.!.U.U.r.9.J - -                               ",
"                            X - e ;.I :.>.,.!.~.^.`.`.`.`.`.`.`.`.`.`.`.`.`.).~.!.I.I I I I m - -                               ",
"                            X - e I I :.>.,.~.~.(.`.`.`.`.`.`.`.`.`.`.`.`.`.).~.~.I.I I I I m - -                               ",
"                                @ w w M I I J.J.K.K.L.L.L.L.L.L.L.L.L.L.L.L.K.J.J.I L P y w 0                                   ",
"                                  - - m P P I I I I I I I I I I I P I I I I I I I P L L % - o                                   ",
"                                  o = c M M Y Y Y Y Y Y Y Y Y Y Y Y Y Y M Y Y Y Y M M M $ - o                                   ",
"                                      X - - - - - - - - - - - - - - - - - - - - - - = - - - o                                   ",
"                                      X - - - - - - - - - - - - - - - - - - - - - - - - - - o                                   ",
"                                      X - - r r r r r < - -           * r r r r r < - -                                         ",
"                                      X - - i i i i t j - +           9 i i i i i j - +                                         ",
"                                      . X + q q q q q , - +           & q q r r q * X X                                         ",
"                                            - - - - - - - o           + - - - - - X                                             ",
"                                            o - - - - - - o           o - - - - +                                               "
};
