/* XPM */
static char *close[] = {
/* columns rows colors chars-per-pixel */
"64 64 171 2 ",
"   c None",
".  c #3E231F",
"X  c #1D1E26",
"o  c #1C1F28",
"O  c #211F24",
"+  c #1C2026",
"@  c #242126",
"#  c #2B2326",
"$  c #252328",
"%  c #292629",
"&  c #2D2A2D",
"*  c #342424",
"=  c #3C2322",
"-  c #3C2B26",
";  c #322C2E",
":  c #302E31",
">  c #353234",
",  c #3F3C3E",
"<  c #393435",
"1  c #4C261F",
"2  c #52271F",
"3  c #59241F",
"4  c #5D291E",
"5  c #612B1F",
"6  c #6D2C1B",
"7  c #7C2F17",
"8  c #732D1A",
"9  c #7B2F19",
"0  c #68351F",
"q  c #73331E",
"w  c #7D301A",
"e  c #422522",
"r  c #4A2621",
"t  c #452A25",
"y  c #4B2A24",
"u  c #502721",
"i  c #542B23",
"p  c #5C2E23",
"a  c #5C2521",
"s  c #453127",
"d  c #553025",
"f  c #5D3124",
"g  c #563A25",
"h  c #423130",
"j  c #443E3F",
"k  c #4C3A35",
"l  c #632520",
"z  c #6E2720",
"x  c #642D22",
"c  c #6B2F22",
"v  c #742B21",
"b  c #633323",
"n  c #6D3022",
"m  c #6E3A26",
"M  c #6F3C28",
"N  c #663D2D",
"B  c #733323",
"V  c #7C3623",
"C  c #723B26",
"Z  c #7C3B23",
"A  c #743D29",
"S  c #5D4238",
"D  c #734524",
"F  c #794023",
"G  c #7D4E23",
"H  c #4D4B4C",
"J  c #504845",
"K  c #534F4D",
"L  c #57524D",
"P  c #58524F",
"I  c #5B5554",
"U  c #5E5954",
"Y  c #725448",
"T  c #615952",
"R  c #000000",
"E  c #000000",
"W  c #000000",
"Q  c #000000",
"!  c #000000",
"~  c #000000",
"^  c #832F1D",
"/  c #892F1A",
"(  c #83301C",
")  c #8C341A",
"_  c #94351A",
"`  c #9C341A",
"'  c #97391B",
"]  c #9B391B",
"[  c #A33D1B",
"{  c #AE3F1B",
"}  c #B13F1C",
"|  c #823722",
" . c #833923",
".. c #8C3D22",
"X. c #913F23",
"o. c #8E421E",
"O. c #9B471B",
"+. c #9D491C",
"@. c #92421C",
"#. c #A6421C",
"$. c #AC421C",
"%. c #AB4B1D",
"&. c #A54C1E",
"*. c #B2411C",
"=. c #BA431C",
"-. c #B44B1C",
";. c #BA4D1C",
":. c #A1521E",
">. c #AE541C",
",. c #B1531B",
"<. c #BC551D",
"1. c #B1591D",
"2. c #BA5A1E",
"3. c #824026",
"4. c #8E4226",
"5. c #884E23",
"6. c #8E4428",
"7. c #924325",
"8. c #9A4625",
"9. c #9D4926",
"0. c #934628",
"q. c #964829",
"w. c #9B4A29",
"e. c #825223",
"r. c #8B5323",
"t. c #925923",
"y. c #A34C27",
"u. c #A94E27",
"i. c #A54E29",
"p. c #AA4F28",
"a. c #AB5124",
"s. c #A6512A",
"d. c #AB5229",
"f. c #BD5B20",
"g. c #B4562B",
"h. c #B8572B",
"j. c #B6592B",
"k. c #BA5B2C",
"l. c #B66620",
"z. c #B96D21",
"x. c #BC7121",
"c. c #C4561C",
"v. c #C45C1D",
"b. c #C3621D",
"n. c #CA641C",
"m. c #CC6B1D",
"M. c #C66A1B",
"N. c #D06D1E",
"B. c #CE731C",
"V. c #D5751E",
"C. c #D4741E",
"Z. c #DB761D",
"A. c #DE7B1D",
"S. c #E17E1D",
"D. c #C05E2E",
"F. c #D47520",
"G. c #D77A20",
"H. c #DF7F20",
"J. c #857971",
"K. c #DF811E",
"L. c #E3821C",
"P. c #E3821E",
"I. c #E1811D",
"U. c #E5831E",
"Y. c #E4821D",
"T. c #E3851D",
"R. c #E5851E",
"E. c #E5851D",
"W. c #E3821E",
"Q. c #E28220",
"!. c #A19A92",
/* pixels */
"                                          O $ $ $ $ $ $ $ @ @ $ $ $ $ $ $ $ @ $ $ @ @ $ H                                       ",
"                                          O $ @ @ @ @ @ @ @ @ @ $ $ @ @ @ @ @ @ @ @ $ @ H                                       ",
"                                R W R U P q C D e.e.e.e.e.e.e.e.e.e.e.e.e.e.e.e.e.G C C Y Q ~ ! ! R                             ",
"                              T @ @ @ @ # c.<.n.I.E.E.E.E.E.I.U.E.E.U.U.T.E.E.E.I.I.c.v.Z @ @ @ @ X                             ",
"                              J X O O X O c.;.m.I.T.T.E.E.U.E.I.I.U.U.U.I.I.E.E.I.I.c.v.F O X @ @ X                             ",
"                          O % A ;.-.N.T.K.I.U.n.$.#.#.$.#.#.#.#.#.#.#.#.#.#.#.#.#.%.S.I.A.G.A.f.#.%.k > :                       ",
"                          O @ b -.-.Z.E.T.E.T.n.` ` ` ` ` ` ` ` ` ` ` ` ' ` ` ` ` [ I.I.I.I.I.n.;.;.- @ >                       ",
"                      Q J.= * Z <.c.n.C.C.C.C.1.( ( ( ^ ^ ( ( ^ ( ( ^ ^ ^ ( ( ( ( ) F.F.V.V.V.v.<.<.y - h                       ",
"                    & @ - -.-.m.A.I.o.9 8 8 8 2 @ @ @ @ @ @ @ @ @ @ @ @ @ @ @ @ @ # 9 ) / / ) b.I.I.<.<.&.@ $ :                 ",
"                    % @ - -.-.m.I.I.@.8 8 8 8 u @ @ @ @ @ @ @ @ @ @ @ @ @ @ @ @ @ # 9 ) / ) ) b.I.I.<.<.&.@ @ ,                 ",
"                < j N b C v.b.n.b.b.0 2 2 1 u y t t t t t @ @ * t y y t y t y - * * i p 4 p 4 :.m.M.b.v.2.b f S K <             ",
"              L @ @ a.<.v.A.Q.v._ _ - @ @ @ @ y  .| V V V # @ i V V  .V  . . .b e = @ @ @ @ @ x ) ) V.I.A.2.<.Z @ O             ",
"              I @ @ a.<.v.A.I.b._ ) = @ @ @ @ y V V V V B # @ p V V V  .V  . .x e = # @ @ @ @ x _ _ C.S.A.2.<.Z @ O             ",
"              U @ O l.C.Z.,.,.o.y y i f b f p Z s.i.i.i.w.i y  .i.i.i.i.i.|  .x e e i p p p p y e e >.2.2.C.C.5.@ O             ",
"              U @ @ x.I.I._ _ q @ @ b  . . .V w.k.k.k.k.j.n c q.k.k.k.k.g. . .x e e B V V V V y @ @ ) ] #.S.S.t.@ O             ",
"              E @ @ z.S.I.) ) q @ @ b V  . . .w.k.k.k.k.g.B c q.k.k.k.k.j. . .x e e B V V V V y # # ) ] #.I.A.t.# # !.          ",
"          O @ b a.>.F.S.H.O @ t B B s.g.g. . .8.k.k.k.k.g.n c w.j.k.k.k.k.g.j.7.x c i.g.j.j.j...z z * * y E.A.m.,.2.; & ;       ",
"          O @ m <.<.Z.I.A.X @ t B B d.k.k.V  .9.k.k.k.k.j.B c w.k.k.k.k.k.k.k.0.c c y.k.k.k.k.X.z v # @ - E.A.N.<.v.# @ &       ",
"          O @ m n.v.m.m.m.O # y V B g.k.k.V | 9.k.k.k.k.g.n c q.k.k.j.g.j.k.k.q.c c i.k.k.k.k.7.v v * # - B.m.m.n.n.# @ >       ",
"          O @ D Z.S.O.( ( * = u V B g.k.j.|  .9.k.k.k.k.g.B c w.k.j.X...7.k.k.q.c c s.k.k.k.k.k.k.k.f e r 9 9 ,.A.S.* @ &       ",
"          O @ D A.A.O.w ( = = u V B j.k.k.|  .9.k.k.k.k.g.B n w.k.k.....7.k.k.0.c c i.k.k.k.k.k.k.k.d = r w ( ,.Z.U.# @ &       ",
"          O @ D A.S.O.w w = = i V B k.k.k.8.8.d.k.k.k.k.j.B n w.k.k.....7.k.k.0.c c i.k.k.u.u.g.k.k.i e r 9 9 >.S.U.* @ &       ",
"          O @ D A.A.O.9 w = = u B B k.k.k.k.k.k.k.k.k.k.j.B n w.k.k.4...7.k.k.7.c c d.k.k.....u.k.k.f e r 9 w ,.S.U.* @ &       ",
"          @ O D A.Z.+.w 9 = = y B B j.k.k.k.k.k.k.k.k.k.g.B c w.k.j.X...X.k.k.7.c c s.k.k...X.d.k.k.f e e w 9 >.S.S.* @ @       ",
"          @ @ D Z.A.+.9 w = = b s.y.k.k.k.k.k.k.k.k.k.k.j.B n w.k.k.d.y.u.k.k.0.c c i.k.k.....d.k.j.p e r w w >.Z.S.* @ @       ",
"          @ @ D A.Z.O.9 w = e C k.k.k.k.k.k.k.k.k.k.k.k.j.n c 9.k.k.k.k.k.k.j.0.c c i.k.k.....u.k.k.i e e w 9 >.A.S.* @ %       ",
"          @ @ D S.S.+.w ( = = C k.k.k.k.k.g.g.j.k.k.k.k.g.B n q.k.k.k.k.k.k.k.0.n n y.k.k...X.u.k.k.i e e 9 w 1.S.S.* @ @       ",
"          @ @ p $.} ) 9 w = = C k.k.k.k.k.c c 7.k.k.k.k.j.B n w.k.k.k.k.k.k.k.0.n n d.k.k.k.D.k.k.k.d e r w 9 _ { =.X @ &       ",
"          @ @ f $.{ ) 9 w = = A k.k.k.k.k.c B 7.k.k.k.k.j.B n w.k.k.k.k.k.k.k.7.n c d.k.k.k.k.k.k.k.i = r 9 9 _ *.=.X @ %       ",
"          @ @ p $.{ ) 9 w = e C k.k.k.k.k.c n 0.k.k.k.k.g.B c w.k.k.y.i.d.k.k.0.c n d.k.k.k.k.k.k.k.d e r w 9 ] $.=.o @ @       ",
"          @ @ x $.{ ) 9 w = = A k.k.k.k.k.c c 0.k.k.k.k.j.B c w.k.j.X...7.k.k.0.c B d.k.k.k.k.k.k.k.i e r 9 9 ] } =.X @ &       ",
"          @ @ p $.{ ) w w = e A k.k.k.k.k.c c 7.k.k.k.k.g.B c w.k.k.....8.k.k.0.c n d.k.k.k.k.k.k.k.d e r w 9 _ } =.X @ $       ",
"          @ @ p $.*.) 9 w = = C k.k.k.k.k.x c 0.k.k.k.k.g.n c q.k.j.....7.k.k.q.n c 4.7.7.7.7.7.7.7.y = r w w ] } =.+ @ %       ",
"          @ @ x *.$.) 9 w = = C k.k.k.k.j.x c 7.k.k.k.k.g.B c q.k.k.....7.k.k.0.c c V  . . . .|  .V y = r 9 7 ' *.=.X @ %       ",
"          @ @ x *.*.) 9 9 = = m k.k.k.k.k.x n 7.j.k.k.k.j.n c w.j.h.....7.k.k.7.c n  ..... . . . . .y = r 9 w ] *.=.X @ O       ",
"          @ @ p *.*.) 9 w = = C k.k.k.k.k.x c 4.j.k.k.k.j.n c w.k.k.h.j.g.k.k.7.c x # X X X X y x n e e r 9 w ] *.=.X @ %       ",
"          @ @ p *.*.) 9 9 = = m k.k.k.j.k.x c 6.k.k.k.k.j.B n w.k.k.k.k.k.k.k.0.c x * @ @ @ @ y n c y = r w w ] *.=.X @ @       ",
"          @ @ p *.} ) 9 w = = C k.k.g.y.u.x c 6.k.k.k.k.g.n c w.k.k.k.k.k.k.k.0.c x * @ % g g d i i e = r 9 w ] { =.X @ %       ",
"          @ @ p *.*.) w 9 = = C k.k.9.....x c 4.j.k.k.k.g.n c w.j.k.k.k.k.k.k.q.c x * @ t S.Z.r.@ @ = e r w 9 ] *.=.X @ &       ",
"          @ @ p *.*.) w w = = C k.k.y.....x c 7.k.k.k.k.j.B n w.k.k.k.k.k.k.k.q.c x * @ s S.S.r.@ @ = = r w 9 ] =.=.X @ %       ",
"          @ @ p { $.) 9 9 = = M k.k.y. ...x c 7.k.k.k.k.g.B n w.k.k.k.k.k.k.k.0.c x # @ * r.e.g @ @ = e r 9 9 ] *.=.X @ %       ",
"          @ @ p { *.) 9 9 = = m k.k.9.....x c 4.k.k.k.k.j.B c w.k.k.k.k.k.k.k.0.c x # @ @ @ @ @ @ @ = e r w w ] *.=.X @ @       ",
"          @ @ p $.*.) 9 9 = = C k.k.8.....x c 7.k.k.k.k.j.B n w.k.k.k.k.k.k.k.0.n x # O O @ @ O O X = e r 9 w ] =.=.X @ %       ",
"          @ @ p *.*.) 9 9 = = m k.k.j.g.j.x c 4.k.k.k.k.j.B n w.k.k.k.k.k.k.k.q.n c B V  .3 a c V B y e r w 9 ] =.=.X @ ;       ",
"          @ @ p *.*.) 9 w = = C k.k.k.k.k.5 c 4.k.k.k.k.g.B n w.k.k.k.k.k.k.k.0.n c  . ...l l B .. .u e r 9 7 ] *.=.X @ %       ",
"          @ @ p *.*.) 9 9 = = m k.k.k.k.k.x c 4.k.k.k.k.g.B c w.k.k.g.g.g.k.k.0.c c 4.0.8. . .4.8.w.u e r 9 ( _ *.=.X @ &       ",
"          @ @ p $.*._ 9 9 = = C k.k.k.k.k.x c 4.k.k.k.k.j.B n w.k.k.....7.k.k.0.n n d.k.k.k.k.k.k.k.f e r 9 w ' *.=.X @ %       ",
"          @ @ p *.*.) w w = = C k.k.k.k.k.x n 4.k.k.k.k.j.B n w.k.k.X...7.k.k.7.c n d.k.k.k.k.k.k.j.f e r 9 9 ] *.=.X @ @       ",
"          @ @ p $.*.) 9 w = = C k.k.k.k.k.x c 6.k.k.k.k.j.B c w.k.k.7...7.k.k.0.c n d.k.k.k.k.k.k.k.f e r 9 9 ] *.=.X @ &       ",
"          @ @ p $.*.) 9 w = = m k.k.k.k.k.x c 7.k.k.k.k.j.B n w.k.k.X...7.k.k.0.c n d.k.k.k.k.k.k.k.f e r 9 9 ] *.=.X @ %       ",
"          @ @ p *.*.) 9 9 = e C k.k.k.k.k.x c 7.j.k.k.k.g.B c w.k.k.X...7.k.k.q.n B d.k.k.k.k.k.k.k.f e r 9 9 ] *.=.X @ %       ",
"          @ @ p *.*.) 9 9 = = C k.k.k.k.k.x n 4.j.k.k.k.g.B c w.k.k.u.y.d.k.k.q.c n s.k.k.8.9.a.k.k.f e r 9 9 ' =.=.X @ %       ",
"          @ @ p $.*.) 9 9 = e C k.k.k.k.k.x c 6.k.k.k.k.g.B n w.k.k.k.k.k.k.k.q.c c d.k.k.....u.k.k.f e 1 9 9 ] *.=.X @ ;       ",
"          @ @ p *.*.) 9 9 = e C k.k.k.k.k.x c 6.k.k.j.j.d.B n w.k.k.k.k.k.k.k.0.n c i.j.k.....d.k.k.f e r 9 9 ] *.=.X @ &       ",
"          @ @ p { *.) 9 w = e m k.k.k.k.k.x n 6.k.k.i... .n c w.k.k.k.k.k.k.k.0.c n i.k.k.....d.k.k.f e r 9 w ] *.=.X @ @       ",
"          @ @ p { { ) ( w = e m k.k.k.k.k.x c 4.k.k.i.....c c w.k.k.k.k.k.k.k.0.n c y.k.k.....u.k.k.f e 1 9 w ] *.=.X @ &       ",
"          @ @ y _ _ ) 9 9 = e m k.k.d.y.y.u i 3.k.k.y... .n n w.k.k.k.j.k.k.k.7.c c i.k.k.8.9.a.k.k.f e r 9 9 ) ] [ X @ &       ",
"          @ @ e 9 9 9 9 w = = M k.k.9...... e Z k.k.i.....c n w.j.k.k.k.k.k.k.0.n c s.k.k.k.k.k.k.k.b e r 9 9 9 9 ( X @ >       ",
"          @ @ e 9 9 9 9 9 = = m k.k.9.....= = A k.k.y.....n n w.k.k.k.k.j.k.k.7.n n s.k.k.k.k.k.j.k.f = e 9 w 9 9 ( @ @ %       ",
"          @ @ e 9 9 9 9 9 = e p 7.4... . .= = b 4.7... . .r r B 4.4.4.4.4...4.n r r  .0.7.0.7.0.7.0.i = r 8 8 9 8 w @ @ &       ",
"          @ @ e 9 9 9 9 w = = p  . . .V  .= = p  . . . .V e = x V V | | V V | x = = B  .|  . .|  . .i = r 8 8 9 8 w @ @ &       ",
"          @ @ e 8 8 8 8 8 = = y B B B B V = = i B B V B B = = b B V B B B B B p = = b C V B B V B V y = e 6 8 8 8 9 @ @ &       ",
"          @ @ @ @ @ @ @ @ @ @ @ O @ @ @ @ @ @ @ @ @ O @ @ @ @ @ @ @ @ @ @ @ O @ @ @ @ @ @ @ @ @ @ @ @ @ @ @ @ @ @ @ @ @ >       ",
"          @ @ @ @ @ @ @ @ @ @ @ @ @ @ @ @ @ @ @ @ @ @ @ @ @ @ @ @ @ @ @ @ @ @ @ @ @ @ @ @ @ @ @ @ @ @ @ @ @ @ @ @ @ @ @ %       "
};
