/* XPM */
static char *open0[] = {
/* columns rows colors chars-per-pixel */
"64 64 228 2 ",
"   c None",
".  c #221F24",
"X  c #242126",
"o  c #2B2226",
"O  c #262328",
"+  c #2B2629",
"@  c #2D292C",
"#  c #332425",
"$  c #3B2424",
"%  c #362A25",
"&  c #3B2B25",
"*  c #342C2C",
"=  c #3C2D2B",
"-  c #372729",
";  c #3C322F",
":  c #322E32",
">  c #363235",
",  c #3B3534",
"<  c #3A3739",
"1  c #3D393D",
"2  c #2F2C31",
"3  c #52261F",
"4  c #5B291F",
"5  c #56281E",
"6  c #4F261F",
"7  c #632A1C",
"8  c #6A2C1D",
"9  c #752D1A",
"0  c #7A2E1A",
"q  c #7C331D",
"w  c #7D381E",
"e  c #6F331F",
"r  c #432423",
"t  c #4B2422",
"y  c #452924",
"u  c #4B2A25",
"i  c #462B29",
"p  c #532522",
"a  c #5C2421",
"s  c #542C23",
"d  c #5C2C23",
"f  c #43322C",
"g  c #4B322C",
"h  c #4A3427",
"j  c #543224",
"k  c #513D25",
"l  c #583428",
"z  c #413531",
"x  c #4C3D34",
"c  c #453B39",
"v  c #563C32",
"b  c #632521",
"n  c #6C2520",
"m  c #632D23",
"M  c #6C2C22",
"N  c #712C22",
"B  c #7C2B23",
"V  c #782620",
"C  c #653124",
"Z  c #6D3121",
"A  c #693A28",
"S  c #733222",
"D  c #7A3422",
"F  c #743B23",
"G  c #7B3A25",
"H  c #673F32",
"J  c #544136",
"K  c #53433A",
"L  c #5B4538",
"P  c #4E4036",
"I  c #6A4527",
"U  c #774826",
"Y  c #674635",
"T  c #774B36",
"R  c #7B553A",
"E  c #64503F",
"W  c #3D3A40",
"Q  c #403B40",
"!  c #4D494B",
"~  c #454242",
"^  c #5A5250",
"/  c #6D5541",
"(  c #675241",
")  c #000000",
"_  c #745741",
"`  c #000000",
"'  c #000000",
"]  c #000000",
"[  c #8C331B",
"{  c #853B1E",
"}  c #88361D",
"|  c #96321B",
" . c #9A341B",
".. c #933D1D",
"X. c #9D3C1C",
"o. c #832D1D",
"O. c #A1371B",
"+. c #A53C1C",
"@. c #AB3E1B",
"#. c #B03F1B",
"$. c #8C2C22",
"%. c #842921",
"&. c #942E22",
"*. c #833522",
"=. c #853B23",
"-. c #8D3D23",
";. c #893424",
":. c #9C3323",
">. c #953722",
",. c #AB3A23",
"<. c #A63724",
"1. c #B53C24",
"2. c #BC3D23",
"3. c #C13F25",
"4. c #89441E",
"5. c #9E431C",
"6. c #96431E",
"7. c #95561F",
"8. c #AD431B",
"9. c #AB4B1D",
"0. c #A3461D",
"q. c #B34B1C",
"w. c #B84719",
"e. c #AB551F",
"r. c #BA541D",
"t. c #BC5A1D",
"y. c #B2551D",
"u. c #BA621E",
"i. c #BB741F",
"p. c #894824",
"a. c #994320",
"s. c #954926",
"d. c #895523",
"f. c #955B22",
"g. c #945623",
"h. c #9A4831",
"j. c #855739",
"k. c #9A5A37",
"l. c #874633",
"z. c #A34B21",
"x. c #A14D28",
"c. c #A95627",
"v. c #B55825",
"b. c #AA5B33",
"n. c #B74127",
"m. c #996434",
"M. c #BC6620",
"N. c #B66527",
"B. c #BC7520",
"V. c #B77121",
"C. c #B7683A",
"Z. c #AB662E",
"A. c #C44D18",
"S. c #C35319",
"D. c #C25D1D",
"F. c #CC5C19",
"G. c #CB5418",
"H. c #C4631E",
"J. c #CB6C1E",
"K. c #C8671E",
"L. c #D6681A",
"P. c #CD721E",
"I. c #CB791F",
"U. c #D4731E",
"Y. c #DA751C",
"T. c #D57C1E",
"R. c #DB7B1D",
"E. c #E07519",
"W. c #E57D1A",
"Q. c #C25E27",
"!. c #C14026",
"~. c #C76A28",
"^. c #C57525",
"/. c #D67C22",
"(. c #D67839",
"). c #C77137",
"_. c #865E43",
"`. c #8C6B4C",
"'. c #876447",
"]. c #986B48",
"[. c #9A724E",
"{. c #9A7553",
"}. c #8D6E51",
"|. c #B46B41",
" X c #B97747",
".X c #A37B54",
"XX c #AA7E56",
"oX c #A17651",
"OX c #AD754A",
"+X c #C57C48",
"@X c #CC6F43",
"#X c #DC831E",
"$X c #D5811F",
"%X c #E5861E",
"&X c #E1821F",
"*X c #E58B1E",
"=X c #E88E1E",
"-X c #DC8320",
";X c #E58531",
":X c #AB8158",
">X c #B4855A",
",X c #BB8B5C",
"<X c #B78557",
"1X c #BC8D60",
"2X c #C9844D",
"3X c #D7874C",
"4X c #CB8653",
"5X c #C88B59",
"6X c #D58E56",
"7X c #CC925E",
"8X c #C6905E",
"9X c #D3925D",
"0X c #DB9257",
"qX c #E29657",
"wX c #E38F48",
"eX c #C59161",
"rX c #CD9561",
"tX c #CD9965",
"yX c #DB9C64",
"uX c #D39A64",
"iX c #E09E63",
"pX c #DDA369",
"aX c #E4A569",
"sX c #E7A96D",
"dX c #E9AA6C",
"fX c #E7A567",
"gX c #EAAD71",
"hX c #EBB074",
/* pixels */
"                                          < > < < < < < < < < < < < < > > < < < < < < < 1 ^                                     ",
"                                          X X O O O O O O O O O O X X X X X X X X X O O 2 !                                     ",
"                                          c # # % & & % & % % & % % % % % % % % % % % # = ^                                     ",
"                                : + @ + + F 9.r.P.#X#X-X#X#X#X-X#X#X#X#X#X-X-X#X#X#XJ.q.9.A @ + @ @ <                           ",
"                                O . X X X F q.S.Y.%X%X%X%X%X%X%X%X%X%X%X%X%X%X%X%X%XY.S.q.Z X X X O :                           ",
"                            . v G =.p.f.f.N.J.J.H.t.t.t.t.t.t.t.t.t.t.t.t.t.t.D.t.t.D.U.P.N.f.g.p.p.p.K <                       ",
"                          @ X s 5.q.K.R.#X#X&XR.y. .O. . .X.O. .O.O.O.O.O.O.O.O.O.O.q.R.&X&X#XT.H.r.z.= O @                     ",
"                          @ X j 5.q.K.R.&X&X&XR.9.| |  .| | | |  . . . .| | |  . . .9.R.&X&X&XR.H.r.z.& + *                     ",
"                      > * G 6.e.~.U.t.5.6.......d $ $ $ $ $ $ $ $ $ $ $ $ $ $ $ $ $ s 4.5.5.5.9.K.R.^.0.a.p.* >                 ",
"                    ` : # p.q.t.U.&Xy.[ o.0 0 9 r X X X X X X X X X X X X X X X X X $ q [ [ [ X.K.&XY.q.q.6.o @ `               ",
"                    ] z & 6.q.t.U./.e.} 9 9 8 8 $ X X X X X X X X X X X X X X X X X $ 9 o.o.o...H.R.U.r.q.5.# * ^               ",
"                : @ A a.9.J.Y.H.9.5.e $ # # # o o X X X X X X X X X X X X X X X X X X # # # # y w 5.9.U.Y.J.0.a.A O +           ",
"                + X A 9.r.U./.J.5.| m # X X X X X X X X X X X X X X X X X X X X X X X X X X X # 9 | 5.R.R.U.w.9.S X O           ",
"            ` ` @ X U t.K.H.H.y.w 8 s o X X X X X X X X X X X X X X X X X X X X X X X X X X X o s 8 w u.H.D.H.H.U X O ~         ",
"          @ @ : O X d.P.R.y.+.{ y # o X X X X X X X X X X X X X X X X X X X X X X X X X X X X X o # y ..X.9.R.U.d.X X + O !     ",
"          X X X X X d./.#X9.X.q $ X X X X X X X X X X X X X X X X X X X X X X X X X X X X X X X X X $ } | 9.&XT.p.X X X O !     ",
"          X X # C S a.K.J.G s u o X X X X X X X X X X X X X X X X X X X X X X X X X X X X X X X X X o s d F U.J.0.w S # O !     ",
"          X X $ ..+.q.D.t.j o o X X X X X X X X X X X X X X X X X X X X X X X X X X X X X X X X X X X o o j H.D.q.@.X.r O !     ",
"          @ X $ X.8.q.r.e.u X X X X X X X X X X X X X X X X X X X X X X X X X X X X X X X X X X X X X X X i v.t.q.@.+.r O !     ",
"1 < 1 1 < + X $ X.8...l h o X X X X X X X X X X X X X X X X X X X X X X X X X X X X X X X X X X X X X X X o h l { @.+.y X : < > ",
"O O O O O X X $ X.8.=.$ X X X X X X X X X X X X X X X X X X X X X X X X X X X X X X X X X X X X X X X X X X X o S @.+.y X X X X ",
"O X # y y $ $ y D } C # X X X X # $ $ $ $ $ $ # # $ # X X X X X X X X X X X X o & k k k k k k k k k h X X X X o M X.X.y o o X X ",
"O X m } ..Z C d y y # o X X X o p b b b b b a a a a t o X X X X X X X X X X X % U B.B.B.B.B.i.i.i.B.f.% X X X o s D D m d u X X ",
"X X Z +.@.*.S C # X X X X X X o a n n n n n n n n n p # X X X X X X X X X X X % f.*X*X*X*X=X*X%X%X%X^.% X X X o u S S S S d X X ",
"X X Z @.@.*.D C o X X X X $ r t b n n n n N B B b a p u y # X X X X X X X h U d.V.*X#XP.J.T.%X%X%X%X$Xd.U I o X $ y y Z S d X O ",
"X X Z @.@.*.D C o X X X X p b b n n n n n D -.=.d r p m Z y X X X X X X X I I.I.#X=XT.v.c.M.%X*X*X*X*XI.I.N.o X X o o Z S d O O ",
"X X Z @.@.*.D C o X X X X a n n n n n n b *.s.s.d $ p M S u o X X X X X o I T.#X#X*X/.c.x.N.*X*X%X%X*X&X#XB.+ X X X o Z S d X X ",
"X X Z @.#.*.D C o X X X X t a p p p b M N h.C.C.A r t p a t $ $ o X X X o I T.R.P.M.).2X4X).u.M.M.M.~.#X#XB.+ X X X o m S d X X ",
"X X Z @.8.*.S C o X X X X $ r r t t d S D C.3X3XT r r r r t t r # X X X X I $XT.u.0.C.aXsX4X5.z.z.0.c.T.#Xi.o X X X o Z S d X X ",
"X X Z @.8.S m l x x , + X $ $ y Y T j.k.k.+X0X6X_.L L Y Y l r $ o X X X o I P.P.N.b. XaXsX9Xb.b.b.b.N.^.I.N.o X X X o d C s X X ",
"O X Z @.@.s $ v .X:X' * X o o f oXeXrXrX9XyXfXiXeX>X>X>X>X_ # o X X X X o l e.v. X9XyXsXgXaX9X9X9X9X5XN.e.p.o X X X X $ $ # X X ",
"X X Z @.8.y X J tXsX:X, X X X z ,XdXgXgXsXsXsXsXsXgXgXgXsX`.@ X X X X X X j 6.x.+XhXgXgXgXgXgXgXgXgXyXc.5.G o X X X X X X X X X ",
"X X Z +.8.y o K rXdX.X, X i j Y 8XgXeX{.[.eXsXaX,X{.>XuXsX`.+ @ K / L * X Y C.|.[.[.>XaXsXdXgXpX>X{.oX|.C.k.+ + x / ( * X X X X ",
"X X Z +.@.y X J rXfX.X; X F s.x.9XgX[.x * [.aXuX) , ( 1XsX`.+ , `.tX{.c o R yX7X) * E 7XfXfXaXrX/ , L 7XyX<X+ @ '.tXeXK X X X X ",
"X X Z +.@.y X x 7XfXoX; o p.z.b.9XdX}., + '.6X5XY + K >XsX`.+ z .XsX>Xx + ) aXuX) o v  X0X0X0X<XL X c rXaX,X+ * {.sXpXK X X X X ",
"O X Z +.@.y X f |.@Xb.G Z A A T 7XsX,X`.' R j.j._.' [.4XqXj.+ f ].qXOXx + ) fXpX:X'.) R j.j.j.R / ' `.4X3X Xo * }.dXpXJ X X X X ",
"O X Z +.@.y X # :.1.,.2.n.s o z ,XsXaXaXyX/ + ; {.aXyX3X(.j.o f k.(.b.f + ) aXfXaXaXXX* o o o ; `.pXyX(.(.b.o @ `.aXyXJ X X X X ",
"O X Z +.@.y o $ >.<.<.1.1.m $ g XXtXyXaXaX' z x :XdXyX+XC.T o = j.).k.v c ) 8XtXpXsX>Xc ; ; ; x {.sXiX).C.b.i g ) 8X<Xx X X X X ",
"X X Z +.@.m u u b m B :.<.;.*.=.T / .XyXfX<X[..XtXdX7Xj.I g X @ v I R ].[.'.E ' <XfXtX[.[.[.[..XeXdXuXT A U s.s.Y E E * X X X X ",
"O X Z +.@.S m d o X y %.&.1.!.1.y X ) uXdXdXsXsXdXsX,XL X X X X X X L 5XqX].+ ; [.fXfXfXdXdXdXdXdXdXeXz X g ~.~.A X X X X X X X ",
"O X Z +.@.S m d y $ t N %.<.1.<.m u T oX:X:XXXXXXXXX].H r # X X X X x ].OX'.l Y ].4X4X<X>X>X>X<X5X5X XH l A v.v.l X X # # # X X ",
"O X Z @.@.S m m S S s u u %.&.&.:.<.G g z , , , ; , g N B p o X X X @ z x T c.c.h.h.l.J P x P J T h.h.c.v.c.:.>.u X X 3 4 t X X ",
"O X Z @.@.S m m =.-.s o X M $.&.1.3.D $ o o o o o o y B &.b o X X X X X X A ~.Q.>.%.M # o o o # b %.>.Q.~.Q.&.$.u X o 8 9 7 X X ",
"O X Z @.@.S m m =.-.s o X p b N :.,.*.m d m m m m m d m M u X X X X X X X h s.s.>. .} U I I I U ..O.X.s.g.p.M m $ X o 8 9 7 X X ",
"X X Z +.@.N m m =.-.u o X X o # N %.:.1.1.1.1.1.1.1.*.r o X X X X X X X X X o & { w.S.U.R.R.R.Y.F.A.8.y o o o o X X o 8 9 7 X X ",
"X X Z +.@.S m m =.-.u o X X X o n %.:.1.2.2.2.2.2.2.;.$ X X X X X X X X X X X $ { A.G.Y.W.W.W.E.F.S.9.$ X X X X X X o 8 9 7 X X ",
"X X Z +.@.S d m =.-.y o X X X o n %.:.1.2.2.2.2.2.2.;.r X X X X X X X X X X X & 4.L.L.E.W.W.W.W.L.L.t.& X X X X X X o 8 9 7 X X ",
"O X Z +.@.N m m =.-.y o X X X o n %.:.1.2.2.2.2.2.2.;.$ X X X X X X X X X X X & g.W.W.W.W.W.W.W.W.W.J.y X X X X X X o 8 0 7 X X ",
"O X Z +.@.N m m =.-.y o X X X o b V $.<.,.,.,.,.,.,.D $ X X X X X X X X X # y j 7.W.W.W.W.W.W.W.W.W.P.A u y X X X X o 8 9 7 X X ",
"O X Z +.@.S m m =.-.y X X X X o t a b M N N N N N M s # X X X X X X X X X s 5.8.F.W.W.W.W.W.W.W.W.W.Y.S.w...o X X X o 8 9 7 X X ",
"X X Z +.@.S d m =.-.y o X X X o r t t t t t p p t t $ o X X X X X X X X o C w.A.L.W.W.W.W.W.W.W.W.W.E.G.A.0.o X X X o 8 9 7 X X ",
"X . M +.@.M d m =.-.y o X X X X $ i y r r r r r u i = * @ + X X X X # u s { G.F.L.W.W.W.W.W.W.W.W.W.E.G.A.8.r $ o X o 8 9 7 X X ",
"X X C +.@.M d m =.-.y o X X X O < Q : + X X X O > c 1 1 W : O X X X s X.w.F.W.W.W.W.W.W.W.W.W.W.W.W.E.G.A.w.D N $ X o 8 9 7 X X ",
"X X C +.@.M d m =.-.y o X X o + c c > O X X X O > 1 1 c c > O X X X s X.w.D.U.Y.R.W.W.Y.Y.R.Y.Y.W.W.Y.S.w.8.S M $ X o 8 9 7 X X ",
"X X C +.@.M d m =.-.y X X $ y i H Y g o X X X O 2 > , v H g X X X X r e w 4.d.f.V.;X/.c.f.7.7.f.^.;X(.p.w S s u # X o 8 9 7 X X ",
"X X M +.@.M a m =.-.y o o d S D a.z.Z # X X X X X X & =.z.Z o X X X . X X X X @ R wXC.= X X X = ].qX2Xf X X X X X X o 8 9 7 X X ",
"X X M X.+.M d m =.-.u o o d S S -.s.C # X X X X X X & F a.C o X X X X X X X X + Y +Xm.g # o X * j.2XOXg # # X X X X o 7 9 7 o X ",
"X X 4 [ [ m a d =.-.y o X d S Z $ o o X X X X X X X # u d r X X X X X X X X X X + * y B $.M X X o * i B $.B o X X . X 5 8 4 X X ",
"X X 3 9 0 4 a d =.-.y o X d S Z # . X . X X X X X X o r t $ X X X X X X X X X X X X $ B &.N X X X X # B &.B o X X X X p 4 3 X X ",
"X X 5 9 0 b a m =.-.u o X s m d # . X X X X X X X X o $ r $ X X X X X X X X X X X X $ M B b X X X X # M B M o X X X X p 5 6 X X ",
"X X s 9 q d s d =.-.s o X X X X X X X X X X X X X X X X X X X X X X X X X X X X X X X X X X X X X X X X o o X X X X X 3 5 t X X ",
"X X 3 9 0 d s d G =.s o X X X X X X X X X X X X X X X X X X X X X X X X X X X X X X X X X X X X X X X X X X X X X X X 3 5 t X X ",
"X X $ s 5 r r y d C y o X X X X X X X X X X X X X X X X X X X X X X X X X X X X X X X X X X X X X X X X X X X X X X X $ r $ X X ",
"O X X X X X X X X X X X X X X X X X X X X X X X X X X X X X X X X X X X X X X X X X X X X X X X X X X X X X X X X X X X X X X X "
};
