/* XPM */
static char *open1[] = {
/* columns rows colors chars-per-pixel */
"64 64 225 2 ",
"   c None",
".  c #1F1E26",
"X  c #211F26",
"o  c #351F24",
"O  c #242126",
"+  c #2C2226",
"@  c #262328",
"#  c #29262A",
"$  c #2D2A2D",
"%  c #332424",
"&  c #3B2524",
"*  c #342826",
"=  c #3A2926",
"-  c #332629",
";  c #332B2C",
":  c #392C2B",
">  c #2E2C31",
",  c #312E31",
"<  c #3F2E30",
"1  c #3A3535",
"2  c #3D383C",
"3  c #373335",
"4  c #3C322E",
"5  c #5C2A1E",
"6  c #54291F",
"7  c #48251F",
"8  c #642B1D",
"9  c #6C2C1C",
"0  c #752E1B",
"q  c #7C2E19",
"w  c #76321E",
"e  c #7C321B",
"r  c #7E3C1F",
"t  c #6B351F",
"y  c #432422",
"u  c #4A2621",
"i  c #432D25",
"p  c #4C2A24",
"a  c #422C28",
"s  c #532421",
"d  c #532B23",
"f  c #5D2A22",
"g  c #5B2321",
"h  c #4A3125",
"j  c #43322E",
"k  c #4B352C",
"l  c #473329",
"z  c #5C3326",
"x  c #553A25",
"c  c #543329",
"v  c #583727",
"b  c #422F31",
"n  c #423531",
"m  c #4B3C34",
"M  c #433C39",
"N  c #573D33",
"B  c #642521",
"V  c #6D2621",
"C  c #622B23",
"Z  c #6B2E23",
"A  c #742B23",
"S  c #782821",
"D  c #653423",
"F  c #6C3322",
"G  c #6C3924",
"H  c #643A2C",
"J  c #723322",
"K  c #7B3421",
"L  c #743A23",
"P  c #773C28",
"I  c #4A413B",
"U  c #5C4336",
"Y  c #524239",
"T  c #594336",
"R  c #794326",
"E  c #654939",
"W  c #744C38",
"Q  c #734B37",
"!  c #69503E",
"~  c #744A31",
"^  c #3D3B40",
"/  c #4C4847",
"(  c #524E4C",
")  c #504441",
"_  c #6C5441",
"`  c #000000",
"'  c #000000",
"]  c #000000",
"[  c #000000",
"{  c #85341B",
"}  c #8A341B",
"|  c #89391E",
" . c #833B1E",
".. c #9B331A",
"X. c #933A1B",
"o. c #9C3B1D",
"O. c #96371A",
"+. c #832F19",
"@. c #AB3E1B",
"#. c #A43D1B",
"$. c #B03F1C",
"%. c #842920",
"&. c #8D2B22",
"*. c #843620",
"=. c #8D3223",
"-. c #853B21",
";. c #8B3E20",
":. c #9E3323",
">. c #943524",
",. c #912E22",
"<. c #A23322",
"1. c #A73A25",
"2. c #BB3C22",
"3. c #B73C25",
"4. c #8B421E",
"5. c #84411F",
"6. c #94431D",
"7. c #9A431C",
"8. c #9B4A1E",
"9. c #97491D",
"0. c #A5421B",
"q. c #AC421B",
"w. c #A34B1E",
"e. c #AC4B1D",
"r. c #B1411B",
"t. c #B44A1B",
"y. c #BB4B1A",
"u. c #AE551C",
"i. c #AA5B1C",
"p. c #A5551E",
"a. c #BB531C",
"s. c #B5591D",
"d. c #BC5C1C",
"f. c #B5541D",
"g. c #AD611E",
"h. c #BC621E",
"j. c #8B4423",
"k. c #874727",
"l. c #9B4522",
"z. c #974925",
"x. c #9A5522",
"c. c #9B5A21",
"v. c #955327",
"b. c #875A3B",
"n. c #965937",
"m. c #815024",
"M. c #A94D22",
"N. c #A44C24",
"B. c #AC5322",
"V. c #A85526",
"C. c #B55825",
"Z. c #A45D38",
"A. c #B36D22",
"S. c #BB6E21",
"D. c #B57021",
"F. c #BC7120",
"G. c #A7673E",
"H. c #BC6D3C",
"J. c #C44C19",
"K. c #C64D16",
"L. c #C35C1C",
"P. c #CA5618",
"I. c #CA651C",
"U. c #CE6E1D",
"Y. c #CB6B1D",
"T. c #C3661D",
"R. c #DD6D17",
"E. c #DC6A18",
"W. c #D26B1C",
"Q. c #CC741F",
"!. c #DF7017",
"~. c #D4731D",
"^. c #DA741B",
"/. c #DC7B1D",
"(. c #E17217",
"). c #E27618",
"_. c #E37A1A",
"`. c #E06F16",
"'. c #CB5C28",
"]. c #CB6427",
"[. c #D87B24",
"{. c #C96E36",
"}. c #D27437",
"|. c #CB6B2D",
" X c #816347",
".X c #87674A",
"XX c #9C6D4B",
"oX c #976645",
"OX c #9C734F",
"+X c #9E7652",
"@X c #BC7443",
"#X c #BD7843",
"$X c #A57A53",
"%X c #B27F53",
"&X c #A36B40",
"*X c #C87A45",
"=X c #D67C44",
"-X c #E2821E",
";X c #E2851E",
":X c #E2831E",
">X c #DE8937",
",X c #AD8258",
"<X c #B9885A",
"1X c #BE905F",
"2X c #BF8F61",
"3X c #D8874B",
"4X c #C38D5C",
"5X c #C88F5E",
"6X c #C7925E",
"7X c #D7945B",
"8X c #E4985A",
"9X c #E18847",
"0X c #C89462",
"qX c #D49B65",
"wX c #DA9D65",
"eX c #D59B64",
"rX c #E69F61",
"tX c #DDA067",
"yX c #DEA46A",
"uX c #E4A165",
"iX c #E5A569",
"pX c #E8A669",
"aX c #E9A96C",
"sX c #E7A567",
"dX c #EAAF70",
/* pixels */
"                                          , @ @ @ @ @ @ O O @ @ @ @ @ @ O @ @ O O O @ @ @                                       ",
"                                        [ , . . X . . X X X X X X X X . X X X X X X . . O                                       ",
"                              M $ , , , z j.8.V.D.D.D.D.A.A.A.A.A.A.A.A.A.A.A.A.A.A.p.7.6.j , , , ; /                           ",
"                              2 O O O X z 0.a.U.;X;X;X;X;X;X;X;X-X-X;X;X-X-X-X-X-X/.I.y.t.& O O O O 2                           ",
"                            ' n % a x x m.f.L.I.U.U.U.U.U.U.U.U.U.U.U.U.U.Y.U.Y.Y.Y.L.a.a.p = = % % n                           ",
"                        2 $ j -.7.B.S.Q.Q./.~.a.#.0.0.0.0.0.0.0.0.0.0.0.0.0.0.0.0.0.L.~.~.F.S.A.8.7.j.; # /                     ",
"                        1 # i 6.y.I./.-X-X-X/.f.....................................d._.-X;X;X/.a.a.w.+ O (                     ",
"                    M I H D L s.I.T.s.u.u.u.p.r f f f f C C C f f f f f f C f f f C 4.s.s.s.s.s.I.Y.d.G F U ;                   ",
"                    , $ P w.e.Y./.h.7.{ { { e d + + + + + + + + + + + + + + + + + % C X.X.X.X.o.~./.~.e.e.D + $                 ",
"                  / # O -.t.t.~.-XT.X.+.q q 0 u O O O O O O O O O O O O O O O O O + f } } } } O./.-X~.t.r.D + >                 ",
"              2 , v L L B.Y.T.u.w.5.d y y y y % O O O O O O O O O O O O O O O O O O & u u u u p 9.w.u.I.Y.w.-.P m # (           ",
"              , O F 0.e.Y./.~.7.q 8 % O O O O O O O O O O O O O O O O O O O O O O O O O O O O O 9 q 6.~./.L.t.0.& X (           ",
"              , @ L e.a.h.T.h.| 0 f % O O O O O O O O O O O O O O O O O O O O O O O O O O O O O 8 9  .T.U.L.t.e.= O (           ",
"              ; O R T.U.w.4. .d y & + O O O O O O O O O O O O O O O O O O O O O O O O O O O O O & y d 6.7.d.I.h.a O (           ",
"              ; @ m.Q./.6.9 8 & O O O O O O O O O O O O O O O O O O O O O O O O O O O O O O O O O O & 0 q d.~.Q.i O (           ",
"            Y v v v.Y.~.5.5 6 % O O O O O O O O O O O O O O O O O O O O O O O O O O O O O O O O O O % 5 5 8.h.h.D p U )         ",
"        ( $ i z.V.C.d.L.G & % + O O O O O O O O O O O O O O O O O O O O O O O O O O O O O O O O O O + % % F 7.0.X.X.L j , 1     ",
"        / # h C.].L.a.a.D + O O O O O O O O O O O O O O O O O O O O O O O O O O O O O O O O O O O O O O O d } O.q.r.| & O $     ",
"        N d F w.u.w.4.| d + O O O O O O O O O O O O O O O O O O O O O O O O O O O O O O O O O O O O O O O u 9 w #.r.| & O >     ",
"    O O e o.o.} { w 6 u % O O O O O O O O O O O O O O O O O O O O O O O O O O O O O O O O O O O O O O O O & u d o.r.| & O #     ",
"    O O | @.@.{ q 8 u y % O O O O O O O O + + + + + + + + + + O O O O O O O O O O O O O O O O O O O O O O % y u o.r.| & O #     ",
"    X O | @.@.{ q 8 7 y % O O O O O O O % y y y u u y y y y y & O O O O O O O O O O O O O O O O O O O O O % y u o.r.| & O $     ",
"    X O | @.@.{ q 8 7 y % O O O O O O O y B V V V V B B B B B u O O O O O O O O O O O O O O O O O O O O O % y u o.r.| & O #     ",
"    O O | q.@.{ q 8 7 y % O O O O O + + u B V V V V V V B B B s % + O O O O O O O O % a a a i a a i = O O % y u o.r.| & O #     ",
"    O O *.q.@.{ q 8 u y % O O O O % p d C V V V V V V V B u u s d u % O O O O O O O c 4.j.x.c.x.x.c.R + O % y u o.$.| & O $     ",
"    O O *.@.@.{ e 8 u y % O O O O & C J A V V V V V V V g y y s Z C & O O O O O O + G a.a.~.~.~.~.~.c.% O % y u o.$.| & O ,     ",
"    X O *.@.@.{ q 8 u y % O O O O & C J Z B B B B B B B C H H D C f % O O O O + h c k.d.L.U.Y.Y.~.~.c.% O % y u o.$.*.& O $     ",
"    X O | q.@.{ q 8 u y % O O O O & f Z C u u u u u u u P H.*Xn.u y + O O O O i g.h.Y.~.~.C.B.B.U.~.c.% O % y u o.$.*.& O #     ",
"    X O *.@.@.{ q 8 u y % + O O O % f Z f p y y y y y u R {.}.n.y & + O O O O h Y.~.~.[.[.C.M.M.~.~.c.% O % y u o.$. .& O $     ",
"    O O *.@.@.{ q 8 u y k Y Y ; O % p f H Q W W Q Q W Q n.*X=XG.Q U ; O O O O i h.Y.[.>X>X{.H.H.].Y.x.% O % y u o.r.*.& O #     ",
"    X O | @.@.{ q 8 u y XXqXqX! O O O + ` qXpXaXaXpXpXpXpXsXsXsXiX2XY O O O O = l.N.*XaXaXaXaXsXV.N.-.% O % y u o.r.| & O $     ",
"    O X | @.@.{ e 8 u y XXtXyX_ O O + + ` qXaXuXwXtXsXpXuXwXwXtXaX0XY O O ; ; h l.N.@XwXwXsXpXuXV.N.R - O % y u o.r. .& O $     ",
"    O O *.@.@.} q 8 u y XXwXtX! @ - z G oXwXuX,X X+X0XpX6X.X] +XaX4XY O ; b.b.b.l.l.b. X.XwXpXsX*X@Xb.; O % y u o.r.| & O @     ",
"    O O *.q.@.{ e 8 u y XXwXwXE O a j.C.*XuXqX` X Y <XpX,Xn O E dX4XY O k 8X8X*Xl.l.d O O 0XsXaXaXaX,X; O % y u o.r.*.& O @     ",
"  / O O *.q.@.{ q 8 u y oX5X4XE - p k.N.@XwXqX] ; T $XeX$Xm ; _ aX4XY O m 3X3X@Xl.l.z ; : 1XqXqXwXqX$X; O % y u o.r.*.& O O     ",
"  / O O *.q.@.{ e 8 u y = ; j k.C.v.c - ` qXaXqX0X$XU : ! 1XqX7X3X@Xm O + k k G C.C.*X5X4XN n n n j ; O O % y u o.$.*.& O $     ",
"    O O *.q.@.{ q 8 u y + O % x.].N.h O _ 0XsXaXaX,Xm O E qXpX8X3X@Xk O O O + z '.].3XuX7X: @ @ O O O O O % y u o.r.*.& O O     ",
"    O O *.q.@.} q 8 u y % O % k.C.z.c & ! ,X0XwXaX<X! m ` eXsX7X#X&Xk O O O + c B.C.*X8X7XT m m m n 4 O O % y u o.$.| & O $     ",
"    X O *.q.@.} q 8 u y + O O O O d >.2.K % 1 +XpXpXpXaXaXpXuXOX. X O O O O O O O + k.].].8XsXuXsXuX%X; O % y u o.$.*.& O #     ",
"    X O  .@.@.} { 8 u y + O O O @ f 1.2.*.- n +XsXpXpXpXpXpXuXOXO O O O O O O O O + k.].].8XrXuXuXrX%X; O % & u o.$.*.& O $     ",
"    O O *.@.@.} q 8 u y + O O O O p =.1.=.A P W .X.X X X X X XE o & N W E O O O O + z k.k.*X=X=X*X*XG.; O % & u o.$.*.& O #     ",
"    O O *.@.@.{ q 8 u y + O O O O y S &.:.3.1.f @ @ O @ O @ + & 6 C Z.3X@X. O O O O O O + t.J.J.M.M.j.+ O % y u o.r.| & O ,     ",
"    O O *.@.@.{ q 8 u y % O O O O & S &.<.2.1.f O O O O O O O % g C Z.9X#X. O O O O O O + q.J.J.w.w.-.+ O % y u o.r.| & O 1     ",
"    O X *.@.@.{ q 8 u y % O O O O + & y B &.,.=.>.>.>.>.=.=.=.Z o & c E T O O O O O O O O q.J.J.I.L.8.% O % y u o.$.*.& O 1     ",
"    O O *.@.@.{ q 8 u y % O O O O O O O u S %.:.2.2.2.2.2.2.2.=.X O O + + O O O O O O O O q.K.K.R.R.i.% O % & u o.$.*.& O ,     ",
"    O O  .@.@.} q 8 u y % O O O O O O O u S %.<.2.2.2.2.2.2.2.=.O O O O O O O O O O % i p t.K.P.R.R.i.* O % & u o.$.| & O $     ",
"    O O  .@.@.{ q 8 7 y % O O O O O O O u S %.<.2.2.2.2.2.2.2.=.O O O O O O O O O + t q.t.E.E.R.(.`.i.* O % y u o.$.| & O O     ",
"    X X *.@.@.{ q 8 u y + O O O O O O O u S %.:.2.2.2.2.2.2.2.=.O O O O O O O O O + J J.J.E.R.!.(.(.i.* O % y u o.q.*.& O $     ",
"    X O K @.@.{ q 8 u y % O O O O O O O & B B S =.=.=.=.=.=.=.Z O O O O O O O & F F 8.P.P.!.(.(.(.!.i.% O % y u o.@. .& O $     ",
"    X O K 0.@.{ q 8 u y % O O O O O O O % y u u s s s s s s s y O O O O O O O p 0.q.P.E.E.(.(.).(.(.i.% O % y u o.$. .& O ,     ",
"    O O K @.@.{ q 8 u y % O O O O O O O % y y y y y y y y y u & O O O O O O + p r.y.P.E.E.(.).).).).i.* O % y u o.r. .& O $     ",
"    O O K @.@.{ q 8 u y % O O O O O O O - < b = % % % % - b b ; O O O O O O O % d D 7.J.J.(._.).)._.g.* O % y u o.$.*.& O O     ",
"  I O O K @.@.{ q 8 u y % O O O O O O O $ 2 2 , O O O O $ 2 2 , O O O O O O O O + % w r.r.!.)._._.).g.* O % y u o.r. .& O $     ",
"    O O K @.@.{ q 8 u y % O O O O O O O > 2 ^ , O O O O $ 2 2 , O O O O O O O O O + w r.t.~.^.^.~.^.i.* O % y u o.r. .& O $     ",
"    O O w @.@.{ q 8 u y % O O O O % p d a ; $ # O O O O a P R z O O O O O O O % d d z.].].R x x x x h + O % y u o.@. .& O O     ",
"    O O w #.@.{ q 8 u y % O O O O & f Z p + O O O O O O i ;.l.F O O O O O O O & Z F N.}.{.= O O O O O O O & y u o.@. .& O @     ",
"    O O J o.#.{ q 8 u y % O O O O % f F p + O O O O + + & D J d O O O O O O O & Z F k.v.v.- O O O O O O O % y u } o.w % O O     ",
"    O O 5 { } e q 8 u y % O O O O % f J d + O O O + & y & & % % O O O O O O O & Z C p a a + O O O O O O O % y y e { 8 % O O     ",
"    O O 6 0 q q q 8 u y % O O O O % f J d + O O O + & u & + O O O O O O O O O & Z Z & O O O O O O O O O O % y y 0 q 5 % O #     ",
"    O O 5 0 q q q 8 u y % O O O O + & p & + O O O + % % % O O O O O O O O O O + y y % O O O O O O O O O O % y y 0 q 5 % O $     ",
"    O O d 0 q q q 8 y y % O O O O O O O O O O O O O O O O O O O O O O O O O O O O O O O O O O O O O O O O % y y 0 q 8 % O ,     ",
"    O O d 0 0 q 0 8 y & + O O O O O O O O O O O O O O O O O O O O O O O O O O O O O O O O O O O O O O O O % & y 9 0 5 % O ,     ",
"    O O & y u u u & % + + O O O O O O O O O O O X O O O O O O O O O O O O O O O O O O O O O O O O O O O O + % % y y & + O $     ",
"    O O O O O O O O O O O O O O O O O O O O O O X O X O O O O O O O O O O O O O O O O O O O O O O O O O O O O O O O O O O #     "
};
