/* XPM */
static char *open2[] = {
/* columns rows colors chars-per-pixel */
"64 64 220 2 ",
"   c None",
".  c #1F1D23",
"X  c #211F25",
"o  c #2D1E23",
"O  c #242126",
"+  c #2A2226",
"@  c #262328",
"#  c #2A262A",
"$  c #2D2A2E",
"%  c #342324",
"&  c #3C2424",
"*  c #3C2A25",
"=  c #332B2B",
"-  c #362828",
";  c #3B312E",
":  c #3F3027",
">  c #2E2B30",
",  c #312E33",
"<  c #3A3233",
"1  c #3D393D",
"2  c #393538",
"3  c #501D1D",
"4  c #4E261F",
"5  c #5E291D",
"6  c #56271F",
"7  c #652C1E",
"8  c #6D2C1B",
"9  c #66251C",
"0  c #732C1A",
"q  c #792E1A",
"w  c #7C241E",
"e  c #6D311E",
"r  c #75331E",
"t  c #7D321C",
"y  c #79391E",
"u  c #432522",
"i  c #4C2621",
"p  c #442A25",
"a  c #4C2A24",
"s  c #462F29",
"d  c #522422",
"f  c #5D2521",
"g  c #522B23",
"h  c #5C2C23",
"j  c #473429",
"k  c #5D3223",
"l  c #573927",
"z  c #412F31",
"x  c #463933",
"c  c #483A35",
"v  c #553C34",
"b  c #632521",
"n  c #6C2520",
"m  c #632C22",
"M  c #6B2E23",
"N  c #772921",
"B  c #653322",
"V  c #6B3223",
"C  c #663A28",
"Z  c #733224",
"A  c #7C3323",
"S  c #733A23",
"D  c #7B3B22",
"F  c #753A2B",
"G  c #594538",
"H  c #684327",
"J  c #794627",
"K  c #7E5229",
"L  c #654C3B",
"P  c #6E4834",
"I  c #744935",
"U  c #7B533C",
"Y  c #77553B",
"T  c #6C523F",
"R  c #3F3C41",
"E  c #534F4D",
"W  c #695241",
"Q  c #000000",
"!  c #000000",
"~  c #000000",
"^  c #000000",
"/  c #000000",
"(  c #000000",
")  c #000000",
"_  c #000000",
"`  c #000000",
"'  c #842D1C",
"]  c #89371D",
"[  c #93351A",
"{  c #9B331A",
"}  c #933C1D",
"|  c #9C3B1C",
" . c #A53D1C",
".. c #AC3E1B",
"X. c #B03F1B",
"o. c #892C21",
"O. c #883922",
"+. c #933221",
"@. c #963924",
"#. c #942F23",
"$. c #AD3A23",
"%. c #AD3722",
"&. c #B13C22",
"*. c #BB3C21",
"=. c #8B451E",
"-. c #9C431D",
";. c #92481D",
":. c #A3441C",
">. c #AC441B",
",. c #A54A1D",
"<. c #AB4B1C",
"1. c #B2411B",
"2. c #B34B1B",
"3. c #BA4B1A",
"4. c #BB4718",
"5. c #AB541D",
"6. c #AB561D",
"7. c #B45B1D",
"8. c #BB5B1D",
"9. c #B9541C",
"0. c #BD661E",
"q. c #884627",
"w. c #9A4722",
"e. c #8A5722",
"r. c #965421",
"t. c #855539",
"y. c #945A35",
"u. c #934D31",
"i. c #A34A22",
"p. c #A84C22",
"a. c #AE5521",
"s. c #A55724",
"d. c #B35B25",
"f. c #AE5330",
"g. c #9A6324",
"h. c #926024",
"j. c #986237",
"k. c #AA6A22",
"l. c #A26321",
"z. c #BA6623",
"x. c #A4683B",
"c. c #B76837",
"v. c #B77221",
"b. c #C34C18",
"n. c #C35D1C",
"m. c #C75419",
"M. c #D15D17",
"N. c #C4641D",
"B. c #C9641C",
"V. c #C36B1D",
"C. c #CB6B1D",
"Z. c #DD6C16",
"A. c #D76718",
"S. c #C4751F",
"D. c #CB711E",
"F. c #D5751D",
"G. c #D3731E",
"H. c #DA751D",
"J. c #D37A1E",
"K. c #DB7D1E",
"L. c #DE7016",
"P. c #E17417",
"I. c #E37618",
"U. c #E47A19",
"Y. c #C74C26",
"T. c #C46B22",
"R. c #D77C21",
"E. c #C9783A",
"W. c #CC732C",
"Q. c #E17D23",
"!. c #865C42",
"~. c #836247",
"^. c #82644B",
"/. c #8C6A4B",
"(. c #896649",
"). c #966947",
"_. c #99714F",
"`. c #997351",
"'. c #8F6F50",
"]. c #A46744",
"[. c #B86D42",
"{. c #A7754C",
"}. c #B97648",
"|. c #A77A53",
" X c #C77D48",
".X c #DD831E",
"XX c #E1821E",
"oX c #E2851E",
"OX c #E4891E",
"+X c #DC8620",
"@X c #DA853E",
"#X c #E38720",
"$X c #AD8158",
"%X c #BC8B5D",
"&X c #B6865A",
"*X c #BD804B",
"=X c #BC8E61",
"-X c #DB8847",
";X c #C78A57",
":X c #CB915C",
">X c #D8935A",
",X c #D08750",
"<X c #E29859",
"1X c #E18F4F",
"2X c #CB9563",
"3X c #CF9863",
"4X c #D49B66",
"5X c #DB9D66",
"6X c #D59F69",
"7X c #C38F61",
"8X c #E39F62",
"9X c #DCA26A",
"0X c #D7A06B",
"qX c #E4A56A",
"wX c #E9A76A",
"eX c #EAAA6D",
"rX c #E5A66A",
"tX c #EAAD71",
"yX c #E4AB71",
"uX c #EAB174",
/* pixels */
"                                        X @ @ @ @ @ @ @ @ @ @ @ @ @ @ @ @ @ @ @ @ @ @ ,                                         ",
"                                        # . X X X X X X X X X X X X X X X X X X X O O , ~                                       ",
"                            E c 1 1 1 c D ] r.l.k.k.k.k.k.k.k.k.k.k.k.k.k.k.k.k.k.r.=.O.v 1 2 2 2 2                             ",
"                            E $ @ @ @ p -.2.B.K..X.XXX.XXXXXXXXXXX.X.XXXXXXXXXXXK.B.2.-.g @ @ @ @ @                             ",
"                            G s p p : l -.3.n.G.F.F.F.G.F.F.F.F.F.F.F.F.G.F.F.F.G.B.m.5.J l j p * :                             ",
"                      ~ > @ D -.:.0.S.S.F.H.N.>. . . . . . . . . . . . . . . . .:.n.K.K.J.R.T.a.,.S O @                         ",
"                      / > O ] >.2.F.XXXXXXXXN. .{ { { { { { { { { { { { { { { { | 8.XXXXXXoXH.n.2.D @ O                         ",
"                  1 1 v B B 5.n.n.7.6.6.6.6.;.e m m m m m m m m m m m m m 7 h m m =.7.8.8.8.0.B.C.s.B B g                       ",
"                  # # g -.:.C.K.G.-.t t r r 6 % + + + + + + + + + + + + + + + + % h [ [ [ [ ,.G.K.N.:.-.B O @                   ",
"                  @ @ h -.>.G.U.F.} q 0 9 9 4 + @ @ @ @ O O O O @ @ O O @ @ @ O + h [ [ [ [ ,.F.XXC.1.:.B O @                   ",
"            @ @ < D ] ,.B.C.7.,.-.6 & & & & % @ @ @ @ @ @ O O O O O O O @ @ O O @ - i i i u B -.5.8.G.C.6.] S s @ $             ",
"            $ @ - -.>.8.H.U.<.[ ' & @ @ @ @ @ O O O O @ @ O O O O @ O O O O O O O @ @ @ + @ u t | 8.#XK.N.<.;.p O $             ",
"            $ @ - :.3.n.F.K.,.] t % O @ O O O O O O O O O O O O @ @ O O O @ @ @ O O X O @ O & r } 7..XJ.N.3.-.a X $             ",
"            2 @ - 0.H.N.-.-.k u & + O @ O O O O O O @ O O O O O O O O O @ @ @ @ O O X O O O + % i r ,.<.N.H.z.l X #             ",
"            2 @ - S.U.V.] ' i + @ @ @ O @ @ @ O O O @ O O @ @ O O O O O O O @ O O X X O O O O @ + h [ -.N.XXS.l O #             ",
"            s a h 0.G.7.r 8 u + @ @ @ @ @ @ @ @ @ O O O O @ @ O X O O O O @ O O O O X O O O O O + a r ] a.F.0.S a a             ",
"        # # D } | 2.9.;.p % + @ @ O O O @ @ @ @ @ @ @ @ @ @ X X O @ O O @ @ O O O O O @ @ O @ @ @ + % a q.n.9.:.[ t % 2 ~       ",
"      ` # O ] >.>.2.2.] - @ @ @ O @ O @ @ @ @ O O @ @ O X X O O O O O O O O O O X O O O O X X X X O O - D 9.3.>...] % , ~       ",
"  . . v Z r r e e k k a + @ % & & & & & & & u & & + @ @ @ @ O O @ O O O O @ j K g.g.g.g.g.g.g.g.h.H O + p k B } ..[ g a c @ $   ",
"  @ X a | ..m i u + + + @ @ u f b b b b b b b b f & @ @ @ @ @ O O O O O @ O l v.+X+X+X+X+X+X.X.X+Xe.X @ @ + & ] ..| q 8 a O $ ~ ",
"  @ @ a  ...7 u u + O @ @ + i b n n n n n n n n n u + @ @ @ @ O O O O @ + - H S.OXXX.XXXXXOXOXOX.Xe.+ + @ O % r | [ ' 0 d @ $ ( ",
"  @ @ a  .X.8 u u @ @ % i d f n n n n n A o.M f d g g a % @ @ O @ O O * K l.v..XoXD.7.z.G.XXOXOXoXS.e.e.l @ + & u g q 0 i @ $ ) ",
"  @ @ a  ...7 u & @ @ & b n n n n n n n O.@.Z i u h V m & O @ O @ O O j g..X.XOXoXV.i.a.D.OXOXOXOX.XJ.v.J @ O O O % 0 0 i @ > _ ",
"  @ @ g  ...m u & + @ & b n b b b n n A u.f.J a u g m m u & + @ @ O O j l..XK.J.R.W.c.c.T.J.J.J.J.J..XS.J @ O O O - 0 0 i @ $ _ ",
"  @ @ g  .X.m u & + @ & b n f d d M A q.}.>X).l u i i d f m u + @ @ O j l..XD.7.d. X>X,Xc.6.a.a.a.z.K.S.J O O O O % 0 0 i @ $ ) ",
"  @ @ g  .X.m u & + O & b n f i i V A u.:XwX{.l u u u i m Z a + @ @ O j l..XV.,.p. XeX>Xc.w.w.i.i.d.K.S.J @ O O O % 0 8 i @ $ _ ",
"  @ @ g  .1.m & % @ O % i d P t.!.).].}.5XwX%X(.! U U I k g & + @ @ @ p e.0.z.c.[.>XtX5X X[.[.[.[.c.V.z.H @ O O O % 0 8 i @ $ _ ",
"  @ O g  .1.h % + @ O @ + + ~.7X4X4X5X5XrXeX9X4X2X2X2X&XG + + @ @ @ @ * S -.c.>X5XrXtXyXqX5X5X5X5X Xp.w.k O O O O % 8 8 i @ $ ) ",
"  @ @ g  .X.h + @ X . . O @ /.0XtXtXtXtXtXeXtXtXtXtXeX2XG O @ @ @ @ @ - S } c.5XyXtXtXtXtXtXtXtXyX;Xw.O.k @ O X X % 0 0 i @ $ ) ",
"  @ @ g  .1.h + # ~.'.! = O ^.0X6X'.! `.6XeX%X(.! %XyX2XG X G /.'.G @ z ).;X{.~.Q $XeXtXtXeX2X/.Q ).;X}.T O ; ! '.~.i u % @ $ ) ",
"  @ O g  .1.h + ; 2XeX$X< @ ^.0X2Xc X G ;XwX_.; X '.9X2XG X ^ 6XyX~.# x $XuX$Xx # ~.rXeXeXeX$Xz # ! yX6X^ O c =XtX=X# O O O $ ) ",
"  @ @ g  .1.h + ; :XwX$X; @ ^.0X4XL z L |.;X).G ; `.9X2XG X Q 4X8XQ # x |.eX&XL x ~.;X:X:X:X{.G x ~.qX4X^ O c %XeX=X= O @ @ $ ) ",
"  @ O g  .1.h + = :XwX|.; @ ^.6X9X&X|./.T L (.{.|.;X<X;XG X U ,X-XU @ x |.eX4X$X`.Q L L L L Y '.|.&X<X,XY O c %XeX%X= @ @ O $ ) ",
"  @ @ g  .1.h + = ;X8X{.; @ ~.4XeXeXeX$Xx O ~.4XwX<X1X XG X I E.E.I + x |.wXwXeX4XQ X @ @ O G %XwX<X-X XY O c %XwX%X= @ O O > ) ",
"  @ O g  .X.h + = (._.t.C h U _.$X5XwX;X^ W |.5XwX;X].y.F h J y.y.J B H !._.%XqX9X|.W W W T (.2XrX;Xx.j.t.C P (.`.~.# O @ O > _ ",
"  @ O g  .X.h + @ = ; C @.$.F x G :XwXqX3X2X5XrXeX/.x j O.1.A j s J a.w.l ; ^ 5XrX4X2X2X2X2X4XqXqX{.j l q.z.s.v ; = @ O @ @ > ) ",
"  @ @ g  .X.h + @ @ O m &.Y.Z + x ;XwXeXeXeXeXeXeX^ # + @.Y.A % + q.B.a.l . W 6XeXeXeXeXeXwXeXeXqX_.@ - q.W.d.j O O O O O O $ ) ",
"  @ @ g  .X.m - % @ O p V A Z M F !./././././././.I h h M A g + @ g J J S S u.].[.]././.(.(./.).].u.V S J q.H - O + u u % O $ ) ",
"  @ @ g  .X.M u u + O O X O M &.$.u X X X X X X X b #.#.i X O O O O X p w.m. .w w d X X X X o 3 3 ' b.2.B X X O O % 0 8 i @ $ ( ",
"  @ @ g  .1.V u u + O O @ @ M $.$.a % - - - - & - M o.o.i O O O O O O p q.2.@.o.' m * * * * p 5 9 t ,.-.k O O O O % 0 8 i @ $ ( ",
"  @ @ g  .1.7 u u + O O O O m +.#.A Z A A A A A A m h d % O O O O O @ % h B A  ...-.;.;.;.;.;.} [ t k k * O O O O % 0 8 i @ $ ( ",
"  @ @ g  .X.7 u u + O O O O d N o.&.*.*.*.*.*.*.&.h + @ @ O @ O O O O O O O k 2.b.M.Z.Z.Z.Z.M.4.1.r X O O O O O O % 0 8 4 @ $ / ",
"  @ O g  ...7 u u + O O O O d N o.$.*.*.*.*.*.*.&.h @ O O @ X O O O O O O O B 3.m.A.Z.L.L.Z.A.m.4.y X O O O @ @ O % 0 8 i @ $ ( ",
"  @ @ g  .1.8 u u + O O O @ d N o.%.*.*.*.*.*.*.&.h + O O @ O O O O O O O O C n.A.Z.P.L.L.L.Z.A.B.=.. O O @ O @ O % 0 8 i @ $ ( ",
"  @ @ g  .X.8 u u + O O O @ d N o.%.*.*.*.*.*.*.$.h + O O O O O O O O @ @ + C B.P.P.P.P.P.P.P.P.A.;.@ + @ O @ O O % 0 8 i @ $ ( ",
"  @ @ g  .X.8 u u + O @ @ @ i b n o.+.+.+.+.+.+.o.i @ O O O O O O O O % g B ;.C.P.P.I.I.I.I.I.P.L.6.B k p O @ O O % 0 0 i @ $ ) ",
"  @ @ g  .1.7 u u + X @ @ @ % u i i i i i i i i i % @ @ O O @ O O O O p } 3.m.L.P.I.I.I.I.I.I.I.P.A.4.>.V O O O O % 0 8 i @ $ ) ",
"  @ @ g  ...7 u u + O @ X @ % u u u u u u u u u u % @ @ @ @ @ @ @ + & h :.m.M.L.I.U.U.U.U.U.U.I.I.A.b.1.r + + @ O % 0 0 4 @ $ ) ",
"  @ @ g  .X.7 u u + O @ O O = z z - % % % % - z z < , , # @ @ @ + h y ;.8.A.Z.P.U.U.U.U.U.U.U.U.P.A.b.4.] a u + O % 0 0 i @ $ ( ",
"  @ @ g  .1.7 u u @ @ O O O , 1 1 # O O O O > 1 R R R 1 > @ @ @ + r 4.m.A.U.U.U.U.U.U.U.U.U.U.U.I.A.b.4.} Z h + O % 0 8 4 @ $ ) ",
"  @ @ g  ...M u u @ @ + % % z v c # O O O O $ 2 1 c v c = O @ @ + B | :.7.0.C.R.Q.G.V.V.V.V.D.R.Q.T.:.-.A m g + O % 0 8 i @ $ ) ",
"  @ @ g  ...8 u u + O & h h S q.J * O O O O @ $ = C q.J * O @ @ @ - p p a g K E.@Xj.l l l l K E.-Xx.g a p - % @ O % 0 8 i @ $ ) ",
"  @ @ g  ...8 u u + O & M Z O.i.w.p @ O O @ @ @ + S p.q.p O O O @ @ O O O O G }.-Xt.@ @ O O v *X>X).@ O O O O O O % 0 8 4 @ $ ) ",
"  @ @ g  ...7 u u + O & V Z D O.D * @ O O @ + - & B q.S * O O O @ @ O O O O x j.x.P % % + O x ).{.U & - + O O @ O % 0 8 i @ $ ) ",
"  @ @ g  ...7 u u + O u V Z g - + @ X X @ @ u h m p + + @ @ O O @ @ O O O O + # % u d i % @ + = = a M m u @ O O O % 0 8 i @ $ ) ",
"  @ O a |  .7 u u @ O & m V a + @ O X O @ @ u m M u @ @ @ @ O O O O O O O O O O @ & d i % @ O O @ u Z m u @ O O O % q 0 i @ $ ) ",
"  @ @ i ] [ 5 u u @ O % p a - @ O O O O @ O u m M u @ O @ O O O O O O O O O O O @ % & % + @ O @ @ u Z M u @ O O O % 0 8 i @ $ ( ",
"  @ @ u 0 q 6 u & @ O @ O O X X O O O O @ @ u m M u @ O @ @ O O O O O O O O O O @ @ @ @ @ @ O O @ p Z M u O O @ O + 5 5 u @ > ) ",
"  @ @ u 0 q 6 u & + O O O O O O O @ O O @ @ u h h & @ @ @ @ O O O O O O O O O O O O @ @ O O O O @ u M h & O O O O % 7 5 u @ $ ) ",
"  @ @ u 0 q 6 u u + @ O O @ @ @ O O O O @ @ + - % + @ @ @ @ @ O @ @ O O O O O O O O @ @ @ O O O @ + % % + @ O @ O % 7 5 u @ $ ( ",
"  @ @ u 0 q 6 u & + O O @ @ @ @ @ @ O O O O @ @ O O @ @ O O O O @ O O O O O O O O O @ @ @ @ O O @ @ @ O O O O O O % 9 5 u @ $ / ",
"  @ @ & 7 7 i % % @ O O @ O @ @ O O O O @ @ O O @ O @ @ O O @ O @ O O O O @ O @ O O @ @ @ @ O O O @ O @ O O @ O O + 6 4 & @ $ ( ",
"  @ @ @ + + + @ @ @ O @ O O @ O @ @ @ @ O O O O @ O O @ O O O O @ @ O O @ @ @ @ @ O O @ @ @ O O O O @ @ @ O O O @ @ @ @ @ @ $ ( ",
"  @ @ @ @ @ @ @ @ @ @ @ @ @ @ @ @ @ @ @ @ @ @ @ @ @ @ @ @ @ @ @ @ @ @ @ @ @ @ @ @ @ @ @ @ @ @ @ @ @ @ @ @ @ @ @ @ @ @ @ @ @ > ( "
};
