/* XPM */
static char *egg2[] = {
/* columns rows colors chars-per-pixel */
"64 64 215 2 ",
"   c None",
".  c #332E3C",
"X  c #42393C",
"o  c #4B423D",
"O  c #5C483E",
"+  c #785C3F",
"@  c #7D6239",
"#  c #1D2D49",
"$  c #1D354C",
"%  c #1C3E58",
"&  c #252A45",
"*  c #292B46",
"=  c #262A49",
"-  c #2A2C49",
";  c #2A2748",
":  c #322F47",
">  c #2D3047",
",  c #2E314B",
"<  c #21334C",
"1  c #343344",
"2  c #33354C",
"3  c #35384D",
"4  c #3A3B4E",
"5  c #3B3744",
"6  c #2D3651",
"7  c #333652",
"8  c #353A53",
"9  c #3A3B52",
"0  c #373D58",
"q  c #302F51",
"w  c #413945",
"e  c #413F53",
"r  c #3E414D",
"t  c #3A4156",
"y  c #3C435C",
"u  c #2A4251",
"i  c #194B62",
"p  c #48444B",
"a  c #5C4E4B",
"s  c #574B46",
"d  c #5E544A",
"f  c #424254",
"g  c #42465C",
"h  c #4A495D",
"j  c #46485E",
"k  c #5D5958",
"l  c #665747",
"z  c #6B584F",
"x  c #71614F",
"c  c #474B65",
"v  c #4C526D",
"b  c #4E5265",
"n  c #53566C",
"m  c #54576A",
"M  c #565D72",
"N  c #5B5C72",
"B  c #5E667C",
"V  c #5C6174",
"C  c #696872",
"Z  c #9E743D",
"A  c #816138",
"S  c #9C7842",
"D  c #FC5C6C",
"F  c #F85E66",
"G  c #F8616D",
"H  c #F66170",
"J  c #F97366",
"K  c #4CAB7D",
"L  c #6FAF70",
"P  c #B3823A",
"I  c #DC9734",
"U  c #DD9833",
"Y  c #C3923D",
"T  c #DDAE3C",
"R  c #DFB13B",
"E  c #FDAC2C",
"W  c #F7AD2B",
"Q  c #EAAB39",
"!  c #F7AD34",
"~  c #FBAE34",
"^  c #F6AF3B",
"/  c #FCB135",
"(  c #FBB33C",
")  c #F6B239",
"_  c #9D8254",
"`  c #9D8358",
"'  c #B69257",
"]  c #AC8851",
"[  c #B4AF50",
"{  c #BC9865",
"}  c #BDA06B",
"|  c #83B46F",
" . c #C59C57",
".. c #C5994F",
"X. c #F2825F",
"o. c #F2925B",
"O. c #C8A259",
"+. c #C8A157",
"@. c #DCAB5D",
"#. c #D7A95F",
"$. c #D1AA4C",
"%. c #FBB541",
"&. c #FBBB4C",
"*. c #FBB747",
"=. c #E4B65D",
"-. c #E1B756",
";. c #FBBC53",
":. c #F7BF5E",
">. c #F6AC4B",
",. c #C09861",
"<. c #D3AD68",
"1. c #D0AE64",
"2. c #F8BB64",
"3. c #EFB165",
"4. c #B9C27A",
"5. c #FDC456",
"6. c #F6C55B",
"7. c #FEC45D",
"8. c #FEC14F",
"9. c #CCC068",
"0. c #E8C666",
"q. c #F3C261",
"w. c #FBC462",
"e. c #FCC96C",
"r. c #F9C56A",
"t. c #F3CA71",
"y. c #FCCD77",
"u. c #F3D177",
"i. c #6E748A",
"p. c #75798D",
"a. c #73768C",
"s. c #747C93",
"d. c #787A90",
"f. c #696F82",
"g. c #158C89",
"h. c #16958C",
"j. c #139C98",
"k. c #218787",
"l. c #0DA69B",
"z. c #15A999",
"x. c #18B297",
"c. c #29B299",
"v. c #35B692",
"b. c #20AF9B",
"n. c #03B4A6",
"m. c #0DB3A5",
"M. c #06B4A9",
"N. c #14B4A5",
"B. c #18B4A8",
"V. c #24B5A6",
"C. c #37B4A8",
"Z. c #7B869C",
"A. c #7C8599",
"S. c #4AB28B",
"D. c #7D86A1",
"F. c #51BBAC",
"G. c #868A9C",
"H. c #82859A",
"J. c #8A8DA1",
"K. c #858DA5",
"L. c #8C91A5",
"P. c #8994AB",
"I. c #969BAE",
"U. c #999CAE",
"Y. c #9193A6",
"T. c #8D97B1",
"R. c #939CB2",
"E. c #9B9EB2",
"W. c #A895A3",
"Q. c #9CA1B3",
"!. c #96A1BA",
"~. c #9AA4BB",
"^. c #9FA9BC",
"/. c #A1A6BA",
"(. c #A5ABBC",
"). c #A4A8B8",
"_. c #C68D9D",
"`. c #ED8492",
"'. c #E2939D",
"]. c #E194A1",
"[. c #F2D18B",
"{. c #9EACC4",
"}. c #A4ADC4",
"|. c #AAAFC6",
" X c #A5B2C5",
".X c #A9B3C5",
"XX c #A5B1C9",
"oX c #ABB6CA",
"OX c #AEBACC",
"+X c #B2BBCC",
"@X c #B9BECD",
"#X c #B2B7C8",
"$X c #B3BDD1",
"%X c #BABFD1",
"&X c #DABDC7",
"*X c #D6BEC5",
"=X c #B5C1CF",
"-X c #B6C1D1",
";X c #BBC3D4",
":X c #BDC9D6",
">X c #C4CCDC",
",X c #CACFDD",
"<X c #CBD1DD",
"1X c #C3D0DC",
"2X c #D1D3DD",
"3X c #D4C9CF",
"4X c #CFD5E1",
"5X c #CED5E2",
"6X c #CED5E2",
"7X c #CAD5E3",
"8X c #D0D5E1",
"9X c #D1D5E2",
"0X c #D5DAE6",
"qX c #D6DBE8",
"wX c #CACFE1",
/* pixels */
"                                                                                                                                ",
"                                                                                                                                ",
"                                                                                                                                ",
"                                                                                                                                ",
"                                                                                                                                ",
"                                                                                                                                ",
"                                                                                                                                ",
"                                                                                                                                ",
"                                                                                                                                ",
"                                                                                                                                ",
"                                                                                                                                ",
"                                        - = & = = 2                             2 & = = & 7                                     ",
"                                        - * = = = 2                             2 * & & & 2                                     ",
"                                  e 9 f U.U.I.I.I.G.4 4                   e 4 4 I.I.R.R.I.G.4 4                                 ",
"                                  - & - <X8X8X8X8X/.& * 1                 : ; ; >X4X4X4X4X(.* & 9                               ",
"                                  > & * wX8X8X8X8X/.& * 1                 : * * >X8X4X4X4X(.* & 4                               ",
"                            f 3 3 E././.n n B OXOXoX/./.H.8 8         9 2 U./.(.7X9X>XM M f././.J.4 9                           ",
"                            > & & @X4X<X* & 0 XXXXOX7X4XL.= ;       2 ; & #X4X4X4X4X:X& & n 7X4XQ.& * 2                         ",
"                            > & & @X4X,X> * 0 |.}.OX<X4XL.- -       2 * * #X4X4X7X7X:X& & n 7X4XQ.& * 2                         ",
"                            > & & @X4X4X#X#X/.t t B oXoX#X+X+XG.b m Q.@X+X<X4X7Xb c v T.R.^.4X4XQ.& * 3                         ",
"                            > & & @X8X4X4X4X%X& & v XXXX$X4XqXH.c j Q.4X4X4X4X4X2 & 7 XXXX+X5X4XQ.& * 3                         ",
"                            > & & @X8X4X4X4X%X& & v XXXX-X0XqXJ.9 g Q.8X8X8X4X5X2 & 7 XXXX+X5X4XQ.& * 2                         ",
"                            > & & @X8X4X4X4X%X& & v XXXX:X0XqXp.9 * E.8X4X4X4X5X2 & 7  XXX+X5X4XQ.& * 2                         ",
"                            > & & @X8X4X4X8X@X& & v XX$X:X0X9Xa.* * E.8X4X4X4X5X2 & 7 XXXXOX5X4XQ.& * 2                         ",
"                            2 * * |.%X%X<X8X;Xt t M }.}.;X4X,Xi.& * I.<X7X;X;X%Xt 8 g oXoXOX-X-XI.* *                           ",
"                                  2 - > ,X8X8X7X7X.Xg t i.+X.XB & = Z. X Xg * * ~.|..X7X4X(.> * 4                               ",
"                                  , = - <X2X4X8X0X(.n g i. X XB & = D. X Xy ; = ~. X X5X4X(.* & 3                               ",
"                                  , = - <X2X8X0XqX#XV f.A.OXOXs.c c T.OXOXB v v .XOX+X4X5X(.* & 9                               ",
"                                  , ; - <X8X0X0X0XqX0X4X4X4X4X-X XXX>X5X4X4X5X5X4X4X4X4X4X(.* & 9                               ",
"                                  > * - <X0X0X0X8X0X4X4X4X4X8X-X X X>X5X8X4X4X4X4X8X5X4X5X(.* & 9                               ",
"                                    1 4 /.Q.).qX0X4X8X8X8X8X8X:X=X=X>X4X4X4X4X4X4X4X>XL.L.H.4 3                                 ",
"                                        f n b 9X8X8X8X8X8X8X4X4X4X4X4X4X4X4X4X4X4X4X;X& & 2                                     ",
"                                        h 9 N 4X9X9X8X8X9X8X4X4X4X4X4X4X4X4X4X4X4X4X;X& & 7                                     ",
"                                        * & 8  XXX$X7X5X4X4X4X$X X Xv & = T.XX XXX X!.& = ; = = 3                               ",
"                                        p w p !.!.|.7X<X>X;X;X|.!.!.k . 5 K.!.!.!.!.P.X w X w w s                               ",
"                                  2 - 1 =.2.1.- - v  X Xs.* - > - - P Q Q o = - - - 5 Q Q >.:.q.} b h h                         ",
"                                  - = . 2.7.=.; & c  X Xa.& & * * = P W W o = * ; ; w ! W / 7.e.{ j b 9                         ",
"                                  a a l q.5.=.a a C K.K.C O O s s O Y / %.+ s s s s l ) ( %.:.e.<.l z d                         ",
"                            : ; ; #.w.7.7.7.7.w.7.,.& & @ ! ~ ^ ^ ~ &.7.7.w.w.w.w.w.w.5.w.w.*.%.;.&.! S & &                     ",
"                            - & & @.7.7.7.7.7.7.5. .* & A E E E E W &.7.7.7.7.7.7.7.7.7.w.e.;.( %.~ E Z & =                     ",
"                            > * * @.7.7.7.7.7.w.7.#.x x ] ( ( %.%.%.;.7.7.7.7.7.7.7.7.e.y.7.&.&.~ E E Z & =                     ",
"                            > * ; @.7.7.7.7.7.7.7.7.7.5.7.7.7.7.7.7.w.7.7.7.7.7.7.7.e.e.y.w./ E E E ~ Z & =                     ",
"                            - * ; @.7.7.5.7.7.7.7.7.7.7.7.7.7.7.7.7.7.7.7.7.7.7.7.w.y.y.e.w.~ E E E E Z & =                     ",
"                  u.u.      - * * $.*.*.5.7.7.7.7.7.7.7.7.7.7.7.7.7.7.7.7.7.7.7.e.e.e.r.;.%.E E / %.( S = &                     ",
"                  7.7.      - ; & I E W 5.7.7.7.7.7.7.7.7.7.7.7.7.7.7.7.7.7.7.w.y.y.5.%.~ E E E ( 7.7._ = ;                     ",
"                  5.w.      - & & I E W 5.7.7.7.7.7.7.7.7.w.7.7.7.7.7.7.7.7.7.7.w.y.7.~ E E E E ( 7.5._ & ;                     ",
"            u.t.      [.t.t.s & & I E E 5.7.2.X.X.o.2.7.w.7.7.7.7.7.7.7.7.7.7.7.%.%.( E E E E E ( 7.7._ = *                     ",
"            7.7.      e.7.7.z & & U E W 5.7.2.F D J 6.7.7.7.7.7.7.7.7.7.7.7.7.7.~ E E E E E E E ( 7.7.` = *                     ",
"            w.7.      t.w.r.z & * I E ~ 6.7.2.F F J 5.7.7.7.7.7.7.7.7.7.7.7.7.7.~ E E E E E E E ( 6.7.` & *                     ",
"                  r.r.            a O s S.S.S.3.3.3.5.7.7.7.7.7.7.7.7.7.7.%./ / E E E E E / &.&...a a d                         ",
"                  7.w.            , = $ l.n.V.q.7.5.7.7.7.7.7.7.7.7.7.7.7./ E E E E E E E / 5.7.' & & 2                         ",
"                  7.w.            6 < $ z.x.c.6.6.6.0.0.q.5.5.5.5.5.5.5.5.^ E E E E E E E / 7.7.' & & 2                         ",
"                      F.B.N.      j.j.h.4.9.9.^ ^ $.v.v.| ) ~ ~ / / / / / ~ E E E E E E E / 7.5.' & & 2                         ",
"                      B.n.n.      m.n.x.0.7.;.~ ! [ m.M.L W W E E E E E E E E E E E E E E / 7.5.' & & 2                         ",
"                      C.N.m.      B.m.b.1.=.-.T T [ c.x.L W W E E E E E E E E E E E E ^ ~ ^ =.=.] * * 3                         ",
"                  H G       V.N.m.      2 1 u x.x.K R Q Q E E E E E E E E E E E E E ^ 8.5.+.1 1 r                               ",
"                  D D       N.n.n.      * = % m.M.S.! E E ~ E E E E E E E E E E E W ^ 5.7. .* & 7                               ",
"                  G G       B.n.n.      u % i l.l.K ) ^ ~ ~ ~ ~ ~ ~ ~ ~ ~ ~ ~ ~ ~ ~ ! @.@.{ 2 q r                               ",
"                            B.n.n.      N.n.l.# # k 5.6.7.7.7.7.7.7.5.7.7.5.7.7.7.5.-.. * 2                                     ",
"                            B.n.n.      B.M.l.= ; l 6.5.7.7.7.7.7.7.7.7.7.7.7.7.7.7.=.. * 8                                     ",
"                            k.g.g.      g.h.g.0 7 s O.O.O.O.O.O.O.O.O.O.O.O.O.O.O.O.{ 1 2 4                                     ",
"                      2 & ; = & & & & & & = 0 y y 7 * & & & & & & & & & & & & & & & :                                           ",
"                      2 & ; * * & & & & * 8 c v c y & & & & & & & & & & & & & & & & >                                           ",
"                        8 9 9 9 9 9 4 4 e N h N j 3 3 2 2 2 2 2 2 2 2 2 2 2 3 3 8 9 f                                           "
};
