/* XPM */
static char *block[] = {
/* columns rows colors chars-per-pixel */
"64 64 2 1 ",
"  c #E1AD01",
". c None",
/* pixels */
"                                                                ",
"                                                                ",
"                                                                ",
"                                                                ",
"    ....    ........        ........        ........    ....    ",
"    ....    ........        ........        ........    ....    ",
"    ....    ........        ........        ........    ....    ",
"    ....    ........        ........        ........    ....    ",
"        ................................................        ",
"        ................................................        ",
"        ................................................        ",
"        ................................................        ",
"    ........            ....                ....    ........    ",
"    ........            ....                ....    ........    ",
"    ........            ....                ....    ........    ",
"    ........            ....                ....    ........    ",
"    ........            ....                ................    ",
"    ........            ....                ................    ",
"    ........            ....                ................    ",
"    ........            ....                ................    ",
"        ....            ................................        ",
"        ....            ................................        ",
"        ....            ................................        ",
"        ....            ................................        ",
"        ................................            ....        ",
"        ................................            ....        ",
"        ................................            ....        ",
"        ................................            ....        ",
"    ........        ....................            ........    ",
"    ........        ....................            ........    ",
"    ........        ....................            ........    ",
"    ........        ....................            ........    ",
"    ........        ....................            ........    ",
"    ........        ....................            ........    ",
"    ........        ....................            ........    ",
"    ........        ....................            ........    ",
"        ................................            ....        ",
"        ................................            ....        ",
"        ................................            ....        ",
"        ................................            ....        ",
"        ....                    ........................        ",
"        ....                    ........................        ",
"        ....                    ........................        ",
"        ....                    ........................        ",
"    ........                    ............        ........    ",
"    ........                    ............        ........    ",
"    ........                    ............        ........    ",
"    ........                    ............        ........    ",
"    ........                    ....    ....        ........    ",
"    ........                    ....    ....        ........    ",
"    ........                    ....    ....        ........    ",
"    ........                    ....    ....        ........    ",
"        ................................................        ",
"        ................................................        ",
"        ................................................        ",
"        ................................................        ",
"    ....    ........        ........        ........    ....    ",
"    ....    ........        ........        ........    ....    ",
"    ....    ........        ........        ........    ....    ",
"    ....    ........        ........        ........    ....    ",
"                                                                ",
"                                                                ",
"                                                                ",
"                                                                "
};
