/* XPM */
static char *u_left[] = {
/* columns rows colors chars-per-pixel */
"64 64 2 1 ",
"  c None",
". c #E1AD01",
/* pixels */
"                                                                ",
"                                                                ",
"                                                                ",
"                                                                ",
"                                                                ",
"                                                                ",
"                                                                ",
"                                                                ",
"                                                                ",
"                                                                ",
"                                                                ",
"                                                                ",
"                                                                ",
"                                                                ",
"                                                                ",
"                                                                ",
"                                                                ",
"                                                                ",
"                                                                ",
"                                                                ",
"                                                                ",
"                                                                ",
"                                                                ",
"                                                                ",
"                                                                ",
"                                                                ",
"                                                                ",
"                                                                ",
"                                                                ",
"                                                                ",
"                                                                ",
"                                                                ",
"                                                                ",
"                                                                ",
"                                                                ",
"                                                                ",
"                                                                ",
"                                                                ",
"                                                                ",
"                                                                ",
"                                                                ",
"                                                                ",
"                                                                ",
"                                                                ",
"                                                            ....",
"                                                            ....",
"                                                            ....",
"                                                            ....",
"                                                ........    ....",
"                                                ........    ....",
"                                                ........    ....",
"                                                ........    ....",
"                                                ........        ",
"                                                ........        ",
"                                                ........        ",
"                                                ........        ",
"                                                                ",
"                                                                ",
"                                                                ",
"                                                                ",
"                                            ........        ....",
"                                            ........        ....",
"                                            ........        ....",
"                                            ........        ...."
};
