/* XPM */
static char *player[] = {
/* columns rows colors chars-per-pixel */
"64 64 256 2 ",
"   c #47704C",
".  c #282523",
"X  c #181A23",
"o  c #17171E",
"O  c #161823",
"+  c #1C1C1F",
"@  c #2A2628",
"#  c #131520",
"$  c #34281D",
"%  c #151118",
"&  c #28221F",
"*  c #1F2026",
"=  c #272124",
"-  c #2D2728",
";  c #262020",
":  c #58412E",
">  c #13121D",
",  c #1F161F",
"<  c #212021",
"1  c #251E1D",
"2  c #5E1820",
"3  c #141925",
"4  c #251D1D",
"5  c #351B21",
"6  c #241D1D",
"7  c #191A23",
"8  c #15151D",
"9  c None",
"0  c #1E1C23",
"q  c #191C23",
"w  c #2D2424",
"e  c #181921",
"r  c #C1AA56",
"t  c #1F1F22",
"y  c #461C21",
"u  c #421D21",
"i  c #15161E",
"p  c #241B22",
"a  c #14141E",
"s  c #2F181E",
"d  c #26191E",
"f  c #251721",
"g  c #291D21",
"h  c #59181E",
"j  c #74141D",
"k  c #301F25",
"l  c #5A181C",
"z  c #FFBB6F",
"x  c #FEB96E",
"c  c #BC1D1C",
"v  c #BE1F1C",
"b  c #181925",
"n  c #321923",
"m  c #26161B",
"M  c #1C1822",
"N  c #EC3825",
"B  c #F04024",
"V  c #C3201C",
"C  c #552721",
"Z  c #80191D",
"A  c #4E2D24",
"S  c #B23C16",
"D  c #B11E1D",
"F  c #2B2124",
"G  c #663721",
"H  c #231E24",
"J  c #95151C",
"K  c #1D1924",
"L  c #E66818",
"P  c #6F1C20",
"I  c #98141C",
"U  c #B51D1C",
"Y  c #791B1F",
"T  c #D75A17",
"R  c #DB6419",
"E  c #88151D",
"W  c #921D1F",
"Q  c #FD6421",
"!  c #312A28",
"~  c #A5171B",
"^  c #D12B21",
"/  c #2F131E",
"(  c #6D161F",
")  c #8F151D",
"_  c #1F1D24",
"`  c #161C25",
"'  c #9C151B",
"]  c #E63A25",
"[  c #431720",
"{  c #5F1720",
"}  c #EC3D24",
"|  c #F03926",
" . c #E33424",
".. c #A2171B",
"X. c #66171F",
"o. c #FDB76D",
"O. c #FE6822",
"+. c #C6231D",
"@. c #932B24",
"#. c #CB2A1E",
"$. c #CB241D",
"%. c #581D0E",
"&. c #7A161E",
"*. c #501B0F",
"=. c #862824",
"-. c #2D1822",
";. c #4B2123",
":. c #713721",
">. c #5A3124",
",. c #D3601B",
"<. c #FD7652",
"1. c #F34C20",
"2. c #AA1A1C",
"3. c #D93922",
"4. c #391621",
"5. c #F59E26",
"6. c #E16618",
"7. c #3B2621",
"8. c #FD9C21",
"9. c #6B3B2E",
"0. c #261923",
"q. c #9E181C",
"w. c #9A381A",
"e. c #FC834A",
"r. c #16151F",
"t. c #D23323",
"y. c #C9623A",
"u. c #A04520",
"i. c #CF5317",
"p. c #331817",
"a. c #2E492F",
"s. c #5E4A36",
"d. c #F85D21",
"f. c #FEA223",
"g. c #372023",
"h. c #F9753F",
"j. c #D92D21",
"k. c #69200A",
"l. c #391920",
"z. c #C54A16",
"x. c #7D221F",
"c. c #FDB269",
"v. c #A93917",
"b. c #772C20",
"n. c #FCAC65",
"m. c #F6571E",
"M. c #311E23",
"N. c #944B1F",
"B. c #492622",
"V. c #E96B18",
"C. c #205939",
"Z. c #864122",
"A. c #B7581D",
"S. c #225336",
"D. c #A24E1F",
"F. c #3E302A",
"G. c #E05E19",
"H. c #422524",
"J. c #ED7519",
"K. c #F06423",
"L. c #7A5726",
"P. c #9F1D1E",
"I. c #3F1914",
"U. c #DC3322",
"Y. c #611E20",
"T. c #A2311B",
"R. c #F9B76E",
"E. c #E96E48",
"W. c #C15C1B",
"Q. c #A15436",
"!. c #C5561B",
"~. c #6D4E2E",
"^. c #DEA566",
"/. c #1F362B",
"(. c #A36F26",
"). c #192A29",
"_. c #D78C25",
"`. c #D6A064",
"'. c #E99824",
"]. c #E24522",
"[. c #F68D1F",
"{. c #C85E1D",
"}. c #E39426",
"|. c #E55223",
" X c #431E1D",
".X c #EC4320",
"XX c #52191F",
"oX c #88321B",
"OX c #8F281A",
"+X c #FAA25E",
"@X c #FD9E62",
"#X c #662C20",
"$X c #F2B36C",
"%X c #1E4231",
"&X c #355D34",
"*X c #C83622",
"=X c #D87644",
"-X c #B67625",
";X c #F5851C",
":X c #2B6A3B",
">X c #AE231F",
",X c #BE4616",
"<X c #97462B",
"1X c #886948",
"2X c #963423",
"3X c #8C4E30",
"4X c #FA9956",
"5X c #B44E23",
"6X c #E5A867",
"7X c #BD8F5B",
"8X c #A15B20",
"9X c #CC8025",
"0X c #46893E",
"qX c #AB4D1C",
"wX c #CB9860",
"eX c #BC4116",
"rX c #533F2F",
"tX c #E5844B",
"yX c #B75936",
"uX c #A72D22",
"iX c #8B2C22",
"pX c #FE8B4B",
"aX c #FF894A",
"sX c #B14420",
"dX c #4F3B24",
"fX c #ECAC68",
"gX c #FD8118",
"hX c #7C3B23",
"jX c #764124",
"kX c #EA7C1D",
"lX c #966929",
"zX c #DA7E20",
"xX c #A47D52",
"cX c #F9531E",
"vX c #F19253",
"bX c #C3693F",
"nX c #834430",
"mX c #29723D",
"MX c #C6644A",
"NX c #9E6B28",
"BX c #F99620",
"VX c #417E3C",
"CX c #613921",
"ZX c #EF955F",
"AX c #F9891C",
"SX c #4C3B25",
"DX c #BF581A",
"FX c #745D44",
"GX c #57572D",
"HX c #D3915E",
"JX c #D36538",
"KX c #F47D1B",
"LX c #F37F1A",
"PX c #23613B",
"IX c #F67918",
"UX c #EB861F",
/* pixels */
"                                                                                                                                ",
"                                                                                                                                ",
"                                                                                                                                ",
"                                                    1 % % % % % % % % % % 1                                                     ",
"                                                    o a > > > > > > > > a o                                                     ",
"                                            r = i 8 l Z Z Z Z Z Z Z Z Z Z l 8 i o $                                             ",
"                                          & 6 s / l.Z $.$.$.+.+.+.+.$.#.#.x./ / , % -                                           ",
"                                          < # Z U 3.] N N N N N N N 1.d.d.3.U 2.E # t                                           ",
"                                      $ = y X.>Xj.| | N ^ ^ ^ ^ ^ ^ t.].1.} j.3.*X( y = &                                       ",
"                                    $ . , { c U.| N ] t.2...........~ 2.t.] } cX1.V X.5 . $                                     ",
"                                    = , j 2. .N  .V Z l./ / / / / / / / l.Y $.] B N >Xj , o                                     ",
"                                    o m P.#.|  .#.) XXm m m m m m r.r.m m XXW ^  .| ^ P.m 8                                     ",
"                                    o -.*X| N V J m p.%.k.k.k.k.%.r.I.*.*.p.m q.+.N | t.n 8                                     ",
"                                1 i h &.U. .+.X.[ I.*.%.k.k.k.I.B.Q.>.m *.*.I.[ X.+. . .W h i 1                                 ",
"                                + O X.U  .^ ) 4.m *.%.%.%.%.%.B.jXe.Q.H. X*.*.m 4.J #.N $.Y a @                                 ",
"                                + # =.N | uXm I.*.*.%.%.m r.M yXe.o.vXJXg.p.%.*.I.m @.| | @.O @                                 ",
"                                + # =.N j.W r.m p.p.p. XnX3X3XtX+Xx n.vXQ.G p.p.m r.x.j.| @.O @                                 ",
"                                + # =.N v Z r.H F F F F.=Xe.e.n.z x z c.e.Q.F F H r.Y V N @.O @                                 ",
"                                + # =.N V Z M Q.=X`.^.^.n.c.c.o.x x x x c.fX`.=XQ.M Y V N @.O @                                 ",
"                                + # =. .W x.9.=X4Xz `.7X$Xz x x x x x $X7X`.z 4X=XG x.W  .@.O @                                 ",
"                                + # =.3.l.9.h.n.z x FX! ^.z x x x x z 6XF.FXR.x +Xh.9.n 3.@.O @                                 ",
"                                + # =.3.n 9.h.n.^.s.! ! ^.z x x x x z 6X! ! s.`.n.h.9.n 3.@.O @                                 ",
"                                + # =.t.n 9.h.+XHXA F.s.6Xz x x x x x fXs.F.A HX@Xh.9.-.t.=.O @                                 ",
"                                + # P D -.9.h.<.<.E.ZX$XR.x z x x z x o.$XZXE.<.<.h.9.-.D Y O @                                 ",
"                                + # P U Y b.3XE.<.<.@Xz z wX1X^.6X1XwXz z @X<.<.E.nXb.Y U Y O @                                 ",
"                              & w f Y v V Y _ MX<.e.@Xx z xX! 7X7X! xXz x @X<.<.MX_ Y V V Y f 4 &                               ",
"                            : * 5 Z ~ c v Y _ y.e.c.o.x x $X`.s.s.wXfXz x o.n.e.y._ Y v v 2.Z 5 8 $                             ",
"                              0 -.) ~ U c W XX<XbX+Xc.x x z R.1X1XR.z x x c.+XbX<XXXW v v U q.n e $                             ",
"                          : $ p n ) I ' U v U [ A E.4XR.o.x o.o.o.o.o.o.R.4XE.>.[ D v v v v U l.e & :                           ",
"                          w 0 2 &.J I ' U v c P.x.>.rX~.tXpXpXpXpXaXaXtX~.rX>.=.P.c v V V v c E 2 0 w                           ",
"                          < b ( ' I ' ~ c V +.$.>X;.l.;.yXy.y.y.y.y.y.yX;.l.;.>X$.$.j.] ] ^ c 2.&.M t                           ",
"                          < K ( I I 2.c c #.} } } ] #.P.M.H H H H H H M.P.#.] } B B B B B U.c c W M <                           ",
"                      $ = y { E ' 2.U v ^  .B B ] j.v q.X.[ b :.:.b 4.X.q.v j.} B B B B 1..X3.+.P.{ y = &                       ",
"                      - 3 [ I I ' c v V  .] ] ] U.c ~ J ) Y.7.DX!.7.Y.E J ..c U.} B B .XcXm.m.#.U I [ 3 -                       ",
"                      & q [ J J ' c v v V +.V 2...q.' E / G R V.L ,.:./ E ' q...U } B B B 1.m.#.D J [ 3 &                       ",
"                    . = u { I ..2.c v c U U D ' ) ( ( P G 8XAX;XLXKX8XG P ( ( ) ~ ^ ^ t.} 1.1.#.U ~ ( u = 6                     ",
"                    o 0.E I I D c c c U ' J J J &.0.K 7.,.kX5.5.5.5.;XR 7.K 0.&.J J J q.] B } +.c c ~ E 0.*                     ",
"                    o 0.E ' I ..~ ~ ~ q.XX4.4.4.C qXqXA.[.-XSXSXdXdX-X[.A.qXqXC 4.4.4.XXv $.#.V v c ~ E 0.*                     ",
"                    o K ( &.&.&.&.&.&.Y C A A A :.V.J.J.9X8X;.A A ;.3X9XJ.J.V.jXA A A >.W W W W W W Z ( 0.*                     ",
"                    o b K M K K K K K g.!.G.G.G.L 8.f.}.F.#X].d.K.].b.! _.f.8.J.L L L !.g.K K K K K K K b *                     ",
"                    o K #XhXN.N.N.N.N.D.kX;X;X;XzXL.L.~.H #Xm.Q Q m.:._ ~.L.L.zX[.[.AXUX(.(.(.(.NX8XZ.b.H *                     ",
"                    o H w.z.V.V.L ,.,.,._.'.f.'.-Xg.M.F b :.O.Q Q O.hXb F M.g.-X'.f.'.}.}.}.}.f.8.gXG.S F *                     ",
"                    o H w.z.L L W.7.F F F L.5.s.A *X|.{.F :.O.1.1.O.hXF !.|.*XA s.5.L.F ! ! F._.8.gXT v.F *                     ",
"                    o H w.z.L L W.H /.a.%XGXlX! H.].d.K.Z.Z.u.2X2Xu.Z.Z.K.d.|.H.! lXGXa.a./.H _.8.gXT S F *                     ",
"                    o g w.z.6.L W.F &X0X0X:X` b B.K.O.O.O.D.b _ _ b <XO.O.O.K.A b ` &X0X0X&X! _.BXIXi.v.g *                     ",
"                    ; 4 u #X,XT R A.~./.:X:XC.).H.].d.Q .X2XH NX(.H iX.XQ d.].B.).C.:X:X/.L._.5.[.i.:.u 4 1                     ",
"                      & 3 B.S T L V.D.A a.S.S.).g.T.sX5XuX9 H 9X9XF Y.uX5XsXT.g.).S.S.S.rX(.f.BXkXeXC , ;                       ",
"                      - 3 B.S T L L L {.7.` ` ` b K K K K K _ W.{.H b K K K K b ` ` ` F.}.f.8.J.G.eXC , ;                       ",
"                      - 3  XT.,Xi.6.L R D.G ` %X%X` Y.@.u.w.OX:.:.=.2Xu.2XC ` %X%X` ~.-X5.f.8.R z.T.;., ;                       ",
"                      - 0 5 x.T.eXT 6.6.,.N.).C.C.` iX.XQ m.U.;.g.t.1.Q 1.iX` C.PX).lX'.5.8.BX!.v.x.5 e ;                       ",
"                      : - = 0.oXS eXi.,.A a.VXmXC.` <XQ O.Q d.A H.G.Q O.Q u.` C.mXVXa.dX'.[.V.z.w.M.= - :                       ",
"                          t b b.v.S z.!.g./.&XS.a.CXZ.5XK.Q m.A H.|.Q K.5XZ.CXa.S.&X/.! zXJ.i.S oXK t                           ",
"                          < X 9 OXv.S v.g._ H _ A R jX7.,.|.3.C ;.*X|.,.7.:.6.>.H H _ 7.,.i.v.OX9 X <                           ",
"                          & 6 s  XOXT.S w.u.A.A.W.6.{.D.>.B.;.N.D.;.B.>.D.{.6.W.A.A.u.w.,XS OX Xs 6 &                           ",
"                              o k 9 b.oXoXu.T T T T G.,.G A >.DX{.>.A G ,.R T T T T sXoXoXb.9 k o r                             ",
"                              r 6 7 b K b C S S S S i.6.R R R R 6.R R R 6.i.S S S S #Xb K K O w r                               ",
"                                + 7 [ X.X.Y.C C C C >.G G G G G G G G G G >.C C C C Y.X.X.[ O @                                 ",
"                                . q 2 E I ( -.-.-.-.n n n n n n n n n n n n n -.-.-.( I E 2 q +                                 ",
"                                $ ; i n E J ) ) ) ) P.D D D D D D D D D D D D J ) ) J E n p ; $                                 ",
"                                    4 d 2 { { { { { X.P P P P P P P P P P P P X.{ { { 2 d 4                                     ",
"                                      & e X X X X X X X X X X X X X X X X X X X X X 7 q -                                       ",
"                                      $ 1 . . . . . . . . . . . . . . . . . . . . . . 1 $                                       ",
"                                                                                                                                ",
"                                                                                                                                "
};
