/* XPM */
static char *d_i[] = {
/* columns rows colors chars-per-pixel */
"64 64 220 2 ",
"   c None",
".  c #171317",
"X  c #1A1417",
"o  c #1C1619",
"O  c #1E191A",
"+  c #211719",
"@  c #23191A",
"#  c #2B1A1A",
"$  c #281717",
"%  c #341D1A",
"&  c #391D1A",
"*  c #3A1D16",
"=  c #1F271D",
"-  c #2A221E",
";  c #21281F",
":  c #35231A",
">  c #3C231B",
",  c #3F281A",
"<  c #1C1E26",
"1  c #1C1F28",
"2  c #211E24",
"3  c #242126",
"4  c #2B2226",
"5  c #252328",
"6  c #292629",
"7  c #2D2A2D",
"8  c #232E21",
"9  c #342324",
"0  c #3B2322",
"q  c #372C29",
"w  c #253724",
"e  c #373436",
"r  c #32342C",
"t  c #1C2026",
"y  c #431E1C",
"u  c #4A1F1D",
"i  c #551F1D",
"p  c #4E2817",
"a  c #44251A",
"s  c #4B241D",
"d  c #4E2918",
"f  c #462718",
"g  c #53221D",
"h  c #522A1A",
"j  c #59261C",
"k  c #4D331C",
"l  c #5A341D",
"z  c #6C2B1A",
"x  c #65281D",
"c  c #732D1A",
"v  c #7B2F19",
"b  c #7C2F17",
"n  c #623A1D",
"m  c #65361E",
"M  c #7D301A",
"N  c #76391E",
"B  c #422522",
"V  c #4A2621",
"C  c #4B2B23",
"Z  c #552E24",
"A  c #5C2E23",
"S  c #5C2420",
"D  c #4A3929",
"F  c #443429",
"G  c #5D3224",
"H  c #563928",
"J  c #463837",
"K  c #642420",
"L  c #6B2520",
"P  c #6E2A21",
"I  c #612D22",
"U  c #742722",
"Y  c #7B2721",
"T  c #742A21",
"R  c #7B2B22",
"E  c #633424",
"W  c #6A3824",
"Q  c #753422",
"!  c #7D3E21",
"~  c #763A23",
"^  c #335B32",
"/  c #325530",
"(  c #2F4A2A",
")  c #376236",
"_  c #396637",
"`  c #73431E",
"'  c #7C461F",
"]  c #6F401B",
"[  c #594133",
"{  c #6B472C",
"}  c #734525",
"|  c #7B4621",
" . c #644B35",
".. c #714D31",
"X. c #765638",
"o. c #69523B",
"O. c #5C5754",
"+. c #4F4B4A",
"@. c #635D5A",
"#. c #715744",
"$. c #726C67",
"%. c #6F6B69",
"&. c #66605C",
"*. c #81311A",
"=. c #8D341A",
"-. c #823D1F",
";. c #95361A",
":. c #9B391B",
">. c #98381B",
",. c #A23D1B",
"<. c #AE3F1C",
"1. c #B13F1C",
"2. c #842B23",
"3. c #8B2B24",
"4. c #932C25",
"5. c #9D2E26",
"6. c #883723",
"7. c #923324",
"8. c #9E3426",
"9. c #9D3A26",
"0. c #A12F26",
"q. c #A53226",
"w. c #AC3327",
"e. c #A33128",
"r. c #AB3328",
"t. c #A83A28",
"y. c #B33626",
"u. c #BA3627",
"i. c #BC3B29",
"p. c #B63828",
"a. c #C43B29",
"s. c #CE3D29",
"d. c #CB3B27",
"f. c #D13E29",
"g. c #85491E",
"h. c #9C481B",
"j. c #AE411C",
"k. c #A5471D",
"l. c #B2411C",
"z. c #BA431C",
"x. c #B64B1D",
"c. c #AE541C",
"v. c #BC551D",
"b. c #B4561C",
"n. c #804920",
"m. c #844B22",
"M. c #984923",
"N. c #945522",
"B. c #835B3A",
"V. c #8F5321",
"C. c #AB4725",
"Z. c #B64B25",
"A. c #A85424",
"S. c #BA5A2B",
"D. c #B75925",
"F. c #91663F",
"G. c #BA6423",
"H. c #B66722",
"J. c #BC7121",
"K. c #C45D1E",
"L. c #CC6C1D",
"P. c #C6631C",
"I. c #DE7B1D",
"U. c #D8751D",
"Y. c #CF6F1D",
"T. c #E27E1D",
"R. c #C24429",
"E. c #CE412A",
"W. c #CB4C29",
"Q. c #CC4E27",
"!. c #D2412A",
"~. c #D24E27",
"^. c #CD5328",
"/. c #CA5825",
"(. c #DA5327",
"). c #DE5C26",
"_. c #D75627",
"`. c #E05E27",
"'. c #CB6425",
"]. c #CA6A24",
"[. c #D66D25",
"{. c #DC6925",
"}. c #DA7524",
"|. c #E16426",
" X c #E46C26",
".X c #E67226",
"XX c #E87426",
"oX c #E87A27",
"OX c #826343",
"+X c #8D6846",
"@X c #9A754C",
"#X c #98744C",
"$X c #966943",
"%X c #A67E54",
"&X c #A9744A",
"*X c #857971",
"=X c #E3821E",
"-X c #B88757",
";X c #AD8051",
":X c #BE9261",
">X c #C28B58",
",X c #C9925E",
"<X c #C5915E",
"1X c #D68B58",
"2X c #E38855",
"3X c #EA945B",
"4X c #EC995F",
"5X c #D99B62",
"6X c #CC9761",
"7X c #EC9D62",
"8X c #DDA369",
"9X c #D6A067",
"0X c #EDA166",
"qX c #E6A76B",
"wX c #F2AB6D",
"eX c #F0A669",
"rX c #F2AF70",
"tX c #F2B171",
"yX c #F4B06F",
"uX c #A19A92",
/* pixels */
"                                          2 5 X O O X O O X O X O X X X X X 3 5 5 3 3 5 +.                                      ",
"                                          2 5 X X X O O X X X X X X X X X X 3 3 3 3 5 3 +.                                      ",
"                                @.%.@.O.+.# # T 3.4.3.8.q.q.q.q.q.q.q.q.q.4.: - - k ~ ~ #.$.$.$.$.@.                            ",
"                              @.3 3 3 2 2 & % 4.w.w.w.a.s.s.s.s.s.s.s.s.s.p.& & # ] h.b.! 3 3 3 3 <                             ",
"                              +.< 2 < X O 4.2.p.a.a.a.s.s.s.s.s.s.s.s.s.s.d.e.5.Y g @ N | 2 < 3 3 <                             ",
"                          2 6 ~ x.x.g.O X 0.5.a.s.f.f.f.f.f.f.f.f.f.f.f.f.s.d.u.4.i O g.I.}.U.D.k.k.J e 7                       ",
"                          2 3 E h O s 4.3.s.d.s.f.s # # # # # # # # # # L s.s.s.a.w.4.u O ` =XP.x.x.q 3 e                       ",
"                      $.*X0 9 ~ h O g e.5.f.s.d.d.y O + + + + + O O O O K a.d.d.s.u.e.u O ] U.K.v.v.C q F                       ",
"                    7 3 0 x.x.L.n O S a.a.s.a.j y a a a a a a a f f a a % y y x f.d.a.g O s =.P.=X=Xv.v.k.3 5 7                 ",
"                    6 3 0 x.x.L.n O K s.s.s.a.y O a d d d d p d p h p f # O O u s.s.s.s O s =.P.=X=Xv.v.k.3 3 e                 ",
"                e J W E ~ K.a X K 4.r.s.s.s y a a d d d p p p { <X-XG d f a a a y 7.s.e.4.j X > L.P.P.K.b.E G [ O.e             ",
"              O.3 3 A.v.K.I.d O U e.y.!.!.X X a p p d d p p p { wX5XE p p p p > X R !.y.e.L @ # =.=.U.=XU.v.v.! 3 3             ",
"              O.3 3 A.v.K.I.k O 2.a.q.g g > > f p d p d p { $X&XwXqX&XB.l p p a % s j 8.a.T @ # ;.;.Y.T.I.b.v.! 3 2             ",
"              O.3 2 H.U.U.c.> O 3.s.8.O X h p p p p d p p $XwXwXwXwXwX,XG p p p d % O 7.f.Y @ # B B c.b.v.U.U.m.3 2             ",
"              O.3 5 J.=X=X;.% O 3.s.8.O X h p { ..........;XwXwXwXwXwX5XX.....E p : O 7.f.Y @ @ 3 3 =.:.k.T.T.N.3 2             ",
"              &.3 3 J.T.=X=.% O 3.s.8.O X p f >XwXwXwXwXwXwXwXwXwXwXwXwXwXwXeXF.p > O 7.!.R @ @ 4 4 =.:.k.=XI.N.4 4 uX          ",
"          2 3 E A.c.}.T.}.2 X O 3.s.8.O X B.B.6XwX8X9XqXwXwXwXwXwXwXwX8X9XqXwX-XB.H O 7.f.R @ & P P 9 9 C =XI.L.b.v.q 7 7       ",
"          2 3 W v.K.U.=XI.< X O 3.s.8.O X rXwXwXtXD X +XwXwXwXwXwXwXtXD X OXwXwXwXOXO 7.f.Y @ : U T 4 3 q =XI.Y.v.K.4 3 7       ",
"          2 3 W P.K.L.L.L.2 X O 3.E.8.O X wXwXwXtXD O +XrXwXwXwXwXwXtXH O OXwXwXwXOXO 7.s.R @ > T T 9 4 q Y.L.L.P.L.4 3 e       ",
"          2 3 } I.T.h.*.*.9 O O 2.E.q.O X wXwXwXyXD O +XrXwXwXwXwXwXtXH O OXwXwXwXOXO 7.s.R @ a S.S.G B V v v c.I.T.9 3 7       ",
"          2 2 } I.I.h.M *.0 O O R i.7.O X wXwXwXyXD X +XrXwXwXwXwXwXtXH o OXwXwXwXOXO 3.u.T @ a S.S.Z 0 V M *.c.I.=X4 3 7       ",
"          2 3 } I.T.h.M M 0 O O T r.3.O X 4X3XeXwXqX8XqXwXwXwXwXwXwXwXqX8XqXwX7X4XB.O Y w.L O > S.S.Z B V v v c.T.=X9 3 7       ",
"          2 3 } I.I.h.v M 0 O O T r.3.O X 3X3XeXwXwXwX<X#X<XwXwXwX-X#X6XwXwXwX4X3XB.O Y e.L @ > S.S.G B V v M c.T.T.9 3 7       ",
"          3 2 } I.I.h.M v 0 + O U r.3.X X 3X3XeXwXwXwXOX@ +XwXwXwXX.@ %XwXwXwX4X3XX.O U e.L @ > S.S.G B B M v c.T.T.9 3 3       ",
"          3 3 } U.I.h.v M 0 + O U e.3.y u &X&X5XwXwXwX#XF #.%X%X%Xo.F ;XwXwXwX%X&X..y 2.e.L O > S.S.A B V M M c.I.T.9 3 3       ",
"          3 3 } I.I.h.v M 0 @ O U e.e.e.r.. X -XwXwXwXqX8X .X o O X.8XqXwXwXwXD X K e.e.e.L @ > S.S.Z B B M v c.I.T.9 3 6       ",
"          3 3 } T.T.h.M *.0 + O U e.e.8.e.O + #X<XqXwXwXwXo.@ @ @ OXwXwXwX-X-XF O K 0.e.e.K O > S.S.Z B B v M b.T.T.9 3 3       ",
"          3 3 A j.1.=.v M 0 + O U e.e.0.0.e.4.% O :XwXwXwXtXtXtXtXrXwXwXtXX O U e.0.0.e.e.K @ a S.S.Z B V M v ;.<.z.< 3 7       ",
"          3 3 G j.<.=.v z 9 # % U e.e.w.w.5.4.y # %X,X,X,X,X,X,X,X,X,X<X6X# % U 5.5.0.e.w.U % s M.A.Z 0 V v v ;.l.z.< 3 6       ",
"          3 3 A j.<.=.v # X L 4.5.e.w.s.d.5.5.4.3.0 - - - - - - - - - - - 4.3.5.5.0.0.u.d.w.3.L @ > Z B V M v >.j.z.1 3 3       ",
"          3 3 I j.<.=.v $ O U 5.5.5.w.s.s.5.5.5.4.% X X X X X X X X X X X e.5.5.5.5.5.u.s.p.5.U O : Z B V v v :.1.z.< 3 7       ",
"          3 3 A j.<.=.M $ O U 5.u.s.s.s.s.s.s.s.s.s.s.f.f.s.f.f.f.f.s.s.d.0.e.w.s.f.f.s.s.p.5.U O > C B V M v ;.1.z.< 3 5       ",
"          3 3 A j.j.v z # @ U 5.u.s.s.s.s.s.s.s.s.p.y.y.y.y.y.y.y.y.y.y.w.w.w.y.s.s.s.s.s.u.e.Y @ & a > V M M :.1.z.t 3 6       ",
"          3 3 I l.,.% X Y e.0.5.u.s.s.s.s.s.s.s.a.y + + + + + + + + + + X f.s.s.s.f.f.s.s.s.s.u.0.3.+ . V v b >.l.z.< 3 6       ",
"          3 3 I l.,.& O Y 0.e.e.u.s.s.s.s.s.d.y.q.s : : : : : : : : : : O y.w.p.s.s.f.s.s.s.d.u.5.3.@ . V v M :.l.z.< 3 2       ",
"          3 3 A l.,.& O Y e.u.d.s.s.s.s.s.s.q.y # N.'.'.'.'.'.'.'.'.].A.% # # s s.f.s.s.s.s.s.u.0.3.@ . V v M :.l.z.< 3 6       ",
"          3 3 A l.,.& O Y w.a.f.f.f.f.f.f.!.t.& O A. X X X.X.XXXXX.X.X'.: O O y E.!.f.f.f.f.s.i.w.4.@ . V M M :.l.z.< 3 3       ",
"          3 3 A l.,.& O O O O O O O O O O O # N.H.[. X X Xl @ @ + ' .X X'.'./.M.o O O O O O O O O O O . V v M :.<.z.< 3 6       ",
"          3 3 A l.,.& O O O O O O O O + @ + % G..X.X.X{.XXl o + o ` oXXX.X.X XD.X + O O O O O O O O O . V M v :.l.z.< 3 7       ",
"          3 3 A l.,.& O T t.t.t.> O n D.D.G.G.}..X.X.Xl d g.D.D.G.g.d g..X.X.X[.G.G.G.l O g 3.7.t.7.# . V M v :.z.z.< 3 6       ",
"          3 3 A <.,.& O 7.E.E.E.s O n. X X[.[.[.[.[.[.: O N. X X Xg.O n [.[.[.[.[.[.XXN O S e.y.!.p.& + s c v :.l.z.< 3 6       ",
"          3 3 A <.,.& O 7.E.E.E.s O n..X[.l n n n n n @ X M.|.|.|.g.O : n n n n n n }.` O & S 2.!.a.2.P # * z :.l.z.< 3 3       ",
"          3 3 A j.,.& O 7.s.E.!.s O n..X[.X X X X X X X X M.`.).|.g.O X X X X X X X ].` O O O j !.E.y.8.X X z :.z.z.< 3 6       ",
"          3 3 A l.,.& O $X2X2X2X>X[ : k f ^ ^ ^ ^ ^ ^ ; X 6.Z.W.).-.O 8 ( / ^ ^ ^ ^ k ` A.m O W 2X2X2X&XX X z :.z.z.< 3 7       ",
"          3 3 A l.,.& O @X0X0X0X0X .X X X _ _ _ ) ) ) ; X R p.R.).6.O 8 / ^ ) ) _ _ O N |.! O  .0X0X0X,XO X x :.l.z.< 3 6       ",
"          3 3 A l.,.& O @X0X0X0X0X .X l A.8 ; ^ ) w ; P 2.P j j m Q 6.A ; w ) ^ 8 ; V.D.|.! O  .0X0X0X,XX X z ;.l.z.< 3 7       ",
"          3 3 A j.,.& O #X0X0X0X7X .X g.oXo X / ) = X 7.R.j O O O L R.R O 8 _ / O X ].|.`.! O  .0X0X7X,XX X z >.l.z.< 3 6       ",
"          3 3 A l.,.& O @X0X0X7X+XF O g.XXg.` r ( W N Z.~.7.P s O z ~.C.6.{ ( ( ' g.}.|.`.! O q OXOXOXX.# a c :.l.z.< 3 3       ",
"          3 3 A j.,.& O #X0X7X7Xq O O n. X.X]., @ D.).).).R.i.T O c ).).).M.o a }.XXXX|.`.! O O O O O O V v v :.l.z.< 3 7       ",
"          3 3 A j.<.j a  .+X+XF.G P W A.|.XX]., @ C.Q._.).R.i.P O c )._.W.6.O a }.oXXX|.).! O # l l % @ V v v :.l.z.< 3 6       ",
"          3 3 A l.l.=.v $ O O O 6.W.Q.).).XX].a # 7.i.~.).R.i.P O c ).Q.i.2.O f }.oXoX|.).! O a S.S.G B V v v :.l.z.< 3 6       ",
"          3 3 A l.l.=.v s # O O 2.i.W.).). X[.V.| P P N N T T ~ n.' -.N P Q | V..X.X X_.Q.Q O > S.S.G B V v v >.z.z.< 3 6       ",
"          3 3 A j.l.=.v v 0 @ O R r.R.).).|. XoX[.> O O O O O ` oXV.O O O n .X.XXX X).W.R.T @ > S.S.G B s v v :.l.z.< 3 7       ",
"          3 3 A l.l.=.v v 0 @ # I R 9.^.^.|.|. X[.n k k k k k V.oXA.k k k g. X X.X X).9.6.x % h S.S.G B V v v :.l.z.< 3 7       ",
"          3 3 A <.l.=.v M 0 B W a O S p.p.).).).{.|.|. X.X.X.XXXoXXXXXXXXX X).).).).(.s + h 6.A.S.S.G B V v M :.l.z.< 3 3       ",
"          3 3 A <.<.=.*.M 0 B W a O s 9.7.Z.Z.Z.D.).{.|. X X X X.X.X X.X.X|.).^.Z.Z.C.a O h 6.A.S.S.G B s v M :.l.z.< 3 7       ",
"          3 3 C ;.;.=.v v 0 B W > O O O O O O O # Z.(.(.(.(.(.(.(.(.(.(.(.~.~.C.o O O O O h M.A.S.S.G B V v v =.:.,.< 3 7       ",
"          3 3 B v v v v M 0 0 E > @ @ @ @ + + O @ C.^.^.^.^.^.^.^.^.^.^.^.W.W.C.O + @ @ @ G A.A.S.S.E B V v v v v *.< 3 e       ",
"          3 3 B v v v v v 9 O X 3.a.a.a.a.5.2.# O O X X X X X X X X X X X X O & y.i.i.i.i.P X a S.S.G 0 B v M v v *.3 3 6       ",
"          3 3 B v v v v v 9 + O Y y.p.u.u.4.Y # @ % % % % @ @ # % % % @ O @ y g e.w.w.w.r.K O > M.M.Z 0 V c c v c M 3 3 7       ",
"          3 3 B v v v v M 0 O O U e.e.0.0.5.Y # @ x Q Q c 0 0 A P P Q a O & 4.4.0.0.5.4.4.i O % 6.6.Z 0 V c c v c M 3 3 7       ",
"          3 3 B c c c c c 9 @ @ L 3.3.2.2.2.L % % P ~ Q Q 0 0 E Q ~ Q s # y 3.3.3.3.2.Y Y i # > Q ~ V 0 B z c c c v 3 3 7       ",
"          3 3 3 3 3 3 3 3 3 3 2 O @ @ + + + O 2 2 3 2 3 3 3 3 3 3 3 3 3 2 O @ @ + @ + + @ @ 2 2 3 3 3 2 3 3 3 3 3 3 3 3 e       ",
"          3 3 3 3 3 3 3 3 3 3 3 X X X X X X o 2 3 3 3 3 3 3 3 3 3 3 3 3 3 O X X X X X X X O 3 3 3 3 3 3 3 3 3 3 3 3 3 3 6       "
};
