/* XPM */
static char *d_l[] = {
/* columns rows colors chars-per-pixel */
"64 64 238 2 ",
"   c None",
".  c #15131C",
"X  c #1A141D",
"o  c #1B181F",
"O  c #37140C",
"+  c #241416",
"@  c #23141B",
"#  c #291719",
"$  c #341515",
"%  c #361219",
"&  c #3B1319",
"*  c #341C1B",
"=  c #3A1816",
"-  c #34231C",
";  c #29231F",
":  c #191720",
">  c #1D1D24",
",  c #171C23",
"<  c #221E24",
"1  c #2B1E21",
"2  c #391F24",
"3  c #172526",
"4  c #1B362D",
"5  c #242126",
"6  c #2B2225",
"7  c #252328",
"8  c #29262A",
"9  c #2D2A2D",
"0  c #342425",
"q  c #3C2422",
"w  c #382C2A",
"e  c #2E2C31",
"r  c #312D31",
"t  c #393537",
"y  c #441409",
"u  c #4B1509",
"i  c #4E180A",
"p  c #561607",
"a  c #411519",
"s  c #481716",
"d  c #5A1E13",
"f  c #561716",
"g  c #65190A",
"h  c #771B07",
"j  c #641215",
"k  c #6C1115",
"l  c #671B17",
"z  c #7B1214",
"x  c #711F18",
"c  c #781816",
"v  c #700F13",
"b  c #47241D",
"n  c #5A2617",
"m  c #583419",
"M  c #6F210E",
"N  c #73210E",
"B  c #6A2816",
"V  c #732E1A",
"C  c #7B2F19",
"Z  c #792815",
"A  c #6A371B",
"S  c #7D301A",
"D  c #743719",
"F  c #422522",
"G  c #4A2621",
"H  c #402924",
"J  c #492D27",
"K  c #5D2D23",
"L  c #562D25",
"P  c #43352B",
"I  c #5E3124",
"U  c #543325",
"Y  c #473837",
"T  c #573B38",
"R  c #602E23",
"E  c #643627",
"W  c #7B3C23",
"Q  c #773927",
"!  c #712A23",
"~  c #1B4936",
"^  c #21523C",
"/  c #764A1A",
"(  c #58413C",
")  c #4A4222",
"_  c #734425",
"`  c #7D4425",
"'  c #6B4437",
"]  c #784435",
"[  c #6A5436",
"{  c #3F3D40",
"}  c #433F41",
"|  c #235C41",
" . c #2A774D",
".. c #484547",
"X. c #544947",
"o. c #5B5652",
"O. c #755549",
"+. c #635D5A",
"@. c #695148",
"#. c #726C67",
"$. c #6F6B69",
"%. c #66605C",
"&. c #861C06",
"*. c #971E02",
"=. c #880F12",
"-. c #900F12",
";. c #851014",
":. c #8B1013",
">. c #881815",
",. c #941313",
"<. c #9B1614",
"1. c #9D1814",
"2. c #A61E06",
"3. c #A41A14",
"4. c #AB1D15",
"5. c #A41514",
"6. c #B11E14",
"7. c #85250D",
"8. c #8C260B",
"9. c #942103",
"0. c #9C2305",
"q. c #942A0C",
"w. c #97290C",
"e. c #9C320F",
"r. c #862813",
"t. c #8C341A",
"y. c #873417",
"u. c #95361A",
"i. c #9B391B",
"p. c #993918",
"a. c #992818",
"s. c #A32406",
"d. c #AA2809",
"f. c #B32C06",
"g. c #BC2E09",
"h. c #B62908",
"j. c #A6360F",
"k. c #BB390B",
"l. c #AB2714",
"z. c #BB2315",
"x. c #B52715",
"c. c #AE3E1B",
"v. c #AA3715",
"b. c #B13E1C",
"n. c #853C25",
"m. c #C33209",
"M. c #CB3409",
"N. c #C73608",
"B. c #D43A09",
"V. c #D83B09",
"C. c #C42616",
"Z. c #C82716",
"A. c #C52916",
"S. c #CB2915",
"D. c #C32F18",
"F. c #D12E16",
"G. c #D63114",
"H. c #DA3617",
"J. c #C73011",
"K. c #E43E19",
"L. c #E13C0A",
"P. c #C61E13",
"I. c #984A1A",
"U. c #915319",
"Y. c #BD420E",
"T. c #AE411C",
"R. c #A64618",
"E. c #B2411C",
"W. c #BA431C",
"Q. c #B54B1B",
"!. c #AD551A",
"~. c #BC551D",
"^. c #B5571A",
"/. c #AA430F",
"(. c #B56416",
"). c #87452A",
"_. c #964925",
"`. c #884B37",
"'. c #89533C",
"]. c #965539",
"[. c #925923",
"{. c #A85223",
"}. c #BA5A2C",
"|. c #BD5B20",
" X c #B05B35",
".X c #BC6436",
"XX c #B66D2C",
"oX c #DC430A",
"OX c #C45C1D",
"+X c #D3500D",
"@X c #E34409",
"#X c #E94B0A",
"$X c #EA590C",
"%X c #F45409",
"&X c #F5580A",
"*X c #E6451B",
"=X c #E8451B",
"-X c #ED510A",
";X c #C9671D",
":X c #DE7A1D",
">X c #D7751C",
",X c #D06C1A",
"<X c #ED620E",
"1X c #F6660D",
"2X c #E27E1D",
"3X c #EA7812",
"4X c #F87A12",
"5X c #C3673C",
"6X c #C47738",
"7X c #D87032",
"8X c #E4773C",
"9X c #E06F39",
"0X c #CA5F34",
"qX c #B96A45",
"wX c #B9754D",
"eX c #857971",
"rX c #C26D44",
"tX c #FA7C47",
"yX c #E77D45",
"uX c #E3821E",
"iX c #E98215",
"pX c #F98414",
"aX c #FA8A16",
"sX c #DF8317",
"dX c #DB9758",
"fX c #D58B4E",
"gX c #EA8445",
"hX c #FB824A",
"jX c #F58849",
"kX c #FC8E50",
"lX c #E59B58",
"zX c #F79855",
"xX c #FBA25A",
"cX c #FCAA5F",
"vX c #F3A65D",
"bX c #EEA55C",
"nX c #FCAC61",
"mX c #A19A92",
/* pixels */
"                                          < t e r r r r r r r r r r r r } 7 5 7 7 5 5 7 X.                                      ",
"                                          9 { X X : X X : X X X X X X X e e e r 9 5 5 5 ..                                      ",
"                                +.$.+...} } U l.v.v.v.c.b.v.c v k k k k l Y ....@.` Q Q O.#.#.#.#.+.                            ",
"                              +.5 5 5 : : : a H.*X=X=X=X*XK.3.,.:.:.:.:.z X X X [ uXOXOXW 5 5 5 5 >                             ",
"                              X.9 { ..K B B r.S.J.F.*X=X=X*XD.x.x.x.3.,.:.f f f L [ '.OX` < > 5 5 >                             ",
"                          < 7 Q qXX X a.G.G.S.6.4.4.H.=X=X=X=X*X*X=XA.4.4.4.1.,.j X U uX:X>X:X|.R.R.Y r r                       ",
"                          < r b ' f d l Z Z Z l l l a.x.D.F.H.H.K.=XG.C.z.6.3.<.z s n U.{.uXuX;XQ.Q.w 5 r                       ",
"                      #.eXq X.X . D.G.* X X X . X X a ;.1.4.C.F.H.=XK.K.F.z.6.<.,.:.j X U >X>XOX~.OXJ w P                       ",
"                    9 5 w Q.qXX X Z r.$ # + + + + + % f z 3.z.S.G.H.H.K.F.z.z.3.<.:.j X q t.t.;XuXuXOX~.R.5 7 r                 ",
"                    7 5 w Q.qXX X X . y p y O y y y + X f :.4.z.C.Z.F.K.F.C.C.C.4.,.j X q t.t.;XuXuX~.~.R.5 5 t                 ",
"                t Y E E _ I.].+ + + + B y.i O y y y $ + a j >.4.z.Z.S.H.S.Z.Z.Z.6.<.c & G b G {.;X;X;XOX^.E I ( X.t             ",
"              o.5 5 {.~. X: X i i p i 9XtXD y y y y i p # . f ,.4.Z.Z.Z.Z.Z.Z.Z.z.4.4.3.c X 9 ] t.t.>XuX>X~.~.W 5 5             ",
"              o.5 5 {.~. X: X i p D A yXkX_.B O O y i p $ @ f z 3.Z.Z.Z.S.S.Z.Z.z.4.4.4.c X 9 ] u.u.>X2X:X^.~.W 5 <             ",
"              o.5 < (.>XXX: X i g xXcXcXcXkXyX. X y i p i y + . x Z.A.S.S.S.S.Z.z.4.4.4.c X 9 ' q H !.^.~.>X>X).5 <             ",
"              o.5 5 XXuX6Xo X D _.cXnXnXcXxXzX[ ' n.S y u y + . x Z.A.S.S.S.S.Z.z.4.4.4.c X 9 T < 5 t.i.R.2X2X[.5 <             ",
"              %.5 5 XX2X6X: X .XkXnXnXnXnXnXcXnXzXtX0Xy y y + X x Z.A.A.S.S.S.Z.z.4.4.4.c X 9 T 6 6 t.i.R.uX:X[.6 6 mX          ",
"          < 5 E {.{.>XuXXX: X '.qXnXnXcXnXcXvXwXwXtX7XA D A * . x C.Z.A.S.S.Z.Z.z.4.4.4.>.% 2 ] ' ! 0 0 J uX:X;X^.~.w 9 r       ",
"          < 5 E |.|.>XuXXX: X X : nXnXnXcXcXbXX 0 kXzXkXkXhXE X x C.Z.A.A.S.S.Z.z.4.4.4.1.;.j : : Q 6 5 w uX:X,X~.OX6 5 9       ",
"          < 5 E ;XOX,X,XXX: X X X nXnXnXnXnXbXX 0 xXxXzXzXhXE X x C.Z.A.S.S.Z.z.z.4.4.4.1.;.j : o Q 0 6 w ,X,X;X;X;X6 5 r       ",
"          < 5 _ :X2XI.y.` : X X X nXnXnXnXnXbXX 0 nXnXcXxXtXE X x C.Z.A.S.S.z.4.4.4.4.4.1.;.j X o .XI F G C C !.:X2X0 5 9       ",
"          < 5 _ :X:X_.] ' 1 1 7 6 nXnXnXnXnXvX6 J xXcXcXzXtXE X x Z.Z.S.S.A.z.4.4.4.4.4.1.;.j X o .XL F G C y.!.:XuX6 5 9       ",
"          < 5 _ :X2XW X X 9X9XnXnXcXnXnXnXnXcXhXhXtXtXtXhXtXE X x Z.Z.A.z.4.4.4.4.4.4.4.1.;.j X o .XL F G C C !.2XuX0 5 9       ",
"          < 5 _ :X:XD X X 8X8XnXnXdXlXnXcXdXdXkXkXtXtXhXyX7XE @ c C.C.C.z.4.4.4.4.3.3.3.<.;.j X o .XI F G C S !.2XuX0 5 9       ",
"          5 < _ :X:XW X X gXgXnXlXX w cXlXX < zXkXtXhXhX`.X l 3.4.4.4.4.4.4.4.4.1.:.:.:.:.;.j X o .XI F F S C !.2X2Xw 5 5       ",
"          5 5 _ >X:X` > : gXgXnXlXX w lXfXX @ zXzXtXhXtX`.X l 4.4.4.4.4.4.4.4.3.<.:.:.:.:.;.j : < .XL F G S S !.:X2X0 5 5       ",
"          5 5 _ :X:XI.n.] X # 9X8XvXdXX 6 zXzXcXxXtXrXX s 1.3.4.4.4.4.4.4.4.,.:.:.:.:.:.j X 9 qX.X}.L F F S C !.:X2X0 5 8       ",
"          5 5 _ 2X2XI.S ).. 1 jXgXcXdX. 6 xXxXcXxXtXrXX f 4.4.4.4.4.4.4.4.4.,.:.:.:.:.:.j X 9  X}.}.L F F C S ^.2X2X0 5 5       ",
"          5 5 K T.b.t.C y.P X.H H zXzX6X6XjXjX9X Xw G >.<.4.4.4.4.4.4.:.:.:.:.:.:.:.:.:.j X 9 5X}.}.L F G S C u.c.W.> 5 9       ",
"          5 5 I T.c.t.C S q ( X X gXgXgXgXgXgX7X{.X & 4.4.4.4.4.4.4.4.:.:.:.:.:.:.:.:.:.j X 9 5X.X}.L q G C C u.E.W.> 5 8       ",
"          5 5 K T.c.t.C S q H ' O.H q q q q H q b v >.Z.S.S.S.S.C.4.4.4.<.:.:.:.:.:.:.:.;.z f > r }.L F G S C i.T.W.> 5 5       ",
"          5 5 R T.c.t.C S q q Q ].. . . . . . X @ ;.,.S.S.S.S.S.C.4.4.4.<.:.:.:.:.:.:.:.:.:.k X X 5XL F G C C i.b.W.> 5 9       ",
"          5 5 K T.c.t.S S q F Q ].X X g g . X j k :.1.S.S.S.S.S.S.A.z.4.3.3.3.3.<.:.:.:.:.:.k X X .XU F G S C u.b.W.> 5 7       ",
"          5 5 K T.E.t.C S q q Q ].. X 2.2.. X ;.;.,.5.Z.S.S.S.S.S.S.z.4.4.4.4.4.1.:.:.:.:.:.k X X _.G q G S S i.b.W.3 5 8       ",
"          5 5 R E.T.t.C S q J @ 0 8.q.M.M.q.7.# % <.5.4.6.Z.S.S.S.S.z.4.4.4.4.4.3.3.,.:.:.:.;.k v < o q G C C i.E.W.> 5 8       ",
"          5 5 R E.E.t.C C q P X X m.m.oX@XV.N.. @ ,.<.5.4.C.Z.S.S.S.z.4.4.4.4.4.4.4.1.:.:.:.:.:.,.X . q G C S i.E.W.> 5 <       ",
"          5 5 K E.E.t.C S q P X X V.oX<X<X#X@Xq.7.% % & j <.<.<.1.6.4.4.4.4.4.4.1.,.:.:.:.:.:.;.;.X . F G C S i.E.W.> 5 7       ",
"          5 5 K E.E.t.C C q w . @ @X-X4X4X1X&XV.k.. . . s :.:.:.:.4.4.4.4.4.4.4.1.:.:.:.:.:.:.;.;.X . q G S S i.E.W.> 5 5       ",
"          5 5 K E.b.t.C W @ * N Z n n m m m n n B j.e.q.l % % % % a a a a a a & & & & % & % % % % Y Y q G C S i.c.W.> 5 7       ",
"          5 5 K E.E.t.S ).. = M.N.. . . . X . X b #X@XV.B . . . . . . . . . . . . . . . . . . X . 5 q F G S C i.E.W.> 5 9       ",
"          5 5 K E.E.t.S ).. # e.N B n . . j x y.V B y.$X^.I.t.y.y.y.r.r.r.Z f . = N M N M N d X . t t J G S C i.W.W.> 5 8       ",
"          5 5 K c.T.t.C `.. X . X @XN.. . 5.g.1XQ.X m 4X4X4X$X#X#X#XoXV.M.m.N . d f.f.g.f.f.8.. . . . T G C C i.E.W.> 5 8       ",
"          5 5 K c.E.).T @.S Z . X 1X+X. . 6.m.#Xj.. - D D D D C /.<X$X$XoXm.M . d f.g.m.m.N.d.d d d f X.X.W S i.E.W.> 5 5       ",
"          5 5 K T.E.`.X * #XoX. X &X+X. X h.M.%Xj.X . . X . X . / aXpX4X$XN.N . d f.g.V.V.V.M.h.h.h.d.X X ] S i.W.W.> 5 7       ",
"          5 5 K E.E.`.X * <X$X. X p.y.m A 7.8.j.V X o 3 4 4 , X / aX4X1X-XoXq.f d M 7.m.M.V.V.m.g.h.h.X X ] C i.W.W.> 5 r       ",
"          5 5 K E.E.`.X - aXiX. . . . >XsX. . . X . 3 |  . .4 X / aX1X&X&X%XB.f.N . s g.m.@XV.V.B.m.g.X X ] C i.E.W.> 5 8       ",
"          5 5 K E.E.`.X - pXiX. X n s U.U.f d B b . 3 ~ ^ | P m U.aX1X%X#X@XM.g.7.= f 7.q.e.j.j.w.q.7.< w ] y.u.E.W.> 5 9       ",
"          5 5 K T.E.`.X - pXiX. @ V.m.. . M.V.#Xj.. . . . . U.aXaXpX1X-XV.m.m.m.f.0.g . . . X . X . . F G C S i.E.W.> 5 7       ",
"          5 5 K E.E.`.X - 4X3X. @ #X+X. . M.L.#Xv.. . , ; b (.pXpX4X$X#XV.m.m.m.f.0.h $ $ $ # X X t r F G C C i.E.W.> 5 5       ",
"          5 5 K T.E.`.X * 1X$X. @ pX>X. . B.&XpX(.. 3 ~ [ aXpX4X1X&XoXm.m.m.m.m.g.s.s.s.s.f.7.X X qXI q G C C i.E.W.> 5 9       ",
"          5 5 K T.E.).6 - /./.= s !.I.= = q./.^.I.= ; 4 ) !.,X<X$X#XB.m.m.m.g.g.f.s.s.s.s.f.7.X X wXI F G C C i.E.W.> 5 8       ",
"          5 5 K E.E.t.C ' X X g.f.. * V.N.. X X = V.q.. X X r.B.N.m.m.m.m.m.h.2.s.s.s.s.s.f.7.X X wXI F G C C i.E.W.> 5 8       ",
"          5 5 K E.E.t.C ' 7 1 q.q.@ s oXN.X X @ = V.q.@ X @ 7.M.m.m.m.m.g.g.h.2.s.s.s.s.0.q.M : 7 wXI F G C C u.W.W.> 5 8       ",
"          5 5 K T.E.t.C S Y @.. . m.m.@X#X-X-X%X%X&X&X&X&X%XN.d.d.g.g.g.h.2.2.2.s.s.0.s.N X e  X}.}.I F b C C i.E.W.> 5 r       ",
"          5 5 K E.E.t.C W w X.. . w.w.k.Y.k.k.k.k.Y.Y.Y.Y.Y.d.&.8.q.w.w.8.&.&.&.&.h h 7.g @ 0 '.].}.I F G C C i.E.W.> 5 9       ",
"          5 5 K c.E.t.C Q X . . . . X . X X X . . . . . X . . . . . . . . . . . . . . . $ 9.h X 5 rXI F G C S i.E.W.> 5 5       ",
"          5 5 K c.c.t.] O.X X . . . . X X @ @ @ @ @ @ @ @ @ @ @ @ X X X X X X X X . . X $ 9.h X < rXI F b C S i.E.W.> 5 9       ",
"          5 5 G u.u.Q X # f.s.8.9.. X ,.,.S.F.G.G.G.G.G.P.S.S.S.S.,.,.-.-.-.-.-.f . = 0.0.*.h X < rXI F G C C t.i.v.> 5 9       ",
"          5 5 F C C Q X # d.0.*.0.X @ z z l.l.x.x.x.x.x.l.l.l.l.l.;.z z z z z z s X s *.*.*.h . < rXR F G C C C C y.> 5 r       ",
"          5 5 F C C S Q O.X X *.*.9.h . . . . . . . . . . . . . . . . . . . . . a 9.9.*.*.*.h . < rXI q F C S C C S 5 5 8       ",
"          5 5 F C C C C O.> @ h h *.h . . . . . X > > > : : > : : > : : X . . X s *.*.*.&.h g : 8 ].L q G V V C V S 5 5 9       ",
"          5 5 F C C C C W T X.. X &.*.&.h h h . 5 '.].].'.( T ] '.'.'.].( . a 9.9.*.9.&.p X 6 `.'.n.L q G V V C V S 5 5 9       ",
"          5 5 F V V V V V q Y . + h &.h g g g . 1 Q Q Q Q q q R Q Q Q A Y . = &.h h h h i . @ Q Q Q G q F V V V V V 5 5 9       ",
"          5 5 5 5 5 5 5 5 5 5 < 9 . . . . . . . : 5 < 5 5 5 5 < 5 5 9 . . . . . . . . . 7 8 < 5 5 5 5 1 5 5 5 5 5 5 5 5 r       ",
"          5 5 5 5 5 5 5 5 5 5 5 < . . . . . . . o 5 5 5 5 5 5 5 5 5 r . . . . . . . . . 7 5 5 5 5 5 5 5 5 5 5 5 5 5 5 5 7       "
};
