/* XPM */
static char *d_r[] = {
/* columns rows colors chars-per-pixel */
"64 64 241 2 ",
"   c None",
".  c #15131C",
"X  c #1B141C",
"o  c #1D181E",
"O  c #13191F",
"+  c #39130E",
"@  c #22151B",
"#  c #2A141A",
"$  c #23191D",
"%  c #2B1B1B",
"&  c #291314",
"*  c #331413",
"=  c #3B1614",
"-  c #35131A",
";  c #3B1419",
":  c #341919",
">  c #3C1B19",
",  c #37231B",
"<  c #34291F",
"1  c #1C1C24",
"2  c #1B1B25",
"3  c #221D23",
"4  c #2C1E22",
"5  c #321D22",
"6  c #182525",
"7  c #17352C",
"8  c #242126",
"9  c #2C2224",
"0  c #262329",
"q  c #2A252A",
"w  c #2D2A2D",
"e  c #342424",
"r  c #3C2422",
"t  c #322629",
"y  c #3B2B2B",
"u  c #372B2A",
"i  c #332E32",
"p  c #383437",
"a  c #2F2D31",
"s  c #42140B",
"d  c #4B1509",
"f  c #4B1509",
"g  c #571709",
"h  c #431419",
"j  c #4B1A1A",
"k  c #481817",
"l  c #591717",
"z  c #6C1B0D",
"x  c #681B08",
"c  c #761C0A",
"v  c #6A1D19",
"b  c #661716",
"n  c #781515",
"m  c #730F15",
"M  c #4A241C",
"N  c #47221A",
"B  c #592617",
"V  c #52321B",
"C  c #7B220E",
"Z  c #632314",
"A  c #6D2312",
"S  c #6B2B15",
"D  c #67291B",
"F  c #7C2B14",
"G  c #732D1B",
"H  c #7B2F19",
"J  c #762413",
"K  c #6B3618",
"L  c #7D301A",
"P  c #743418",
"I  c #432522",
"U  c #4A2621",
"Y  c #4B2A23",
"T  c #442B27",
"R  c #5D2E23",
"E  c #562A23",
"W  c #4B332C",
"Q  c #46352A",
"!  c #5E3224",
"~  c #56362B",
"^  c #473736",
"/  c #573A33",
"(  c #642E22",
")  c #623324",
"_  c #6C3B2B",
"`  c #673929",
"'  c #743522",
"]  c #793B23",
"[  c #663F34",
"{  c #713D31",
"}  c #1E4032",
"|  c #244935",
" . c #6C411B",
".. c #76441A",
"X. c #7F4117",
"o. c #5D4237",
"O. c #684529",
"+. c #734525",
"@. c #674636",
"#. c #784633",
"$. c #7A563A",
"%. c #6F5037",
"&. c #276E47",
"*. c #574B47",
"=. c #54504F",
"-. c #635D5A",
";. c #745447",
":. c #726C67",
">. c #6F6B69",
",. c #66605C",
"<. c #891B04",
"1. c #961D05",
"2. c #880F13",
"3. c #8C1013",
"4. c #831A16",
"5. c #861515",
"6. c #931314",
"7. c #9C1A14",
"8. c #981814",
"9. c #A71D06",
"0. c #A41B14",
"q. c #AB1D15",
"w. c #A01714",
"e. c #B11F15",
"r. c #85260F",
"t. c #9B270A",
"y. c #8B2C11",
"u. c #842714",
"i. c #9B2815",
"p. c #81311A",
"a. c #8C341A",
"s. c #883514",
"d. c #9B391B",
"f. c #963717",
"g. c #9E320E",
"h. c #A32206",
"j. c #AD2B0A",
"k. c #A92709",
"l. c #BB2D09",
"z. c #B52B08",
"x. c #AC330E",
"c. c #A5370F",
"v. c #BE3109",
"b. c #B4340B",
"n. c #A72816",
"m. c #B52115",
"M. c #BB2415",
"N. c #BA2B15",
"B. c #AE3F1B",
"V. c #A63B13",
"C. c #B13F1C",
"Z. c #853D25",
"A. c #913D23",
"S. c #C43109",
"D. c #CD3609",
"F. c #CB3A0A",
"G. c #DB3C0A",
"H. c #D2390A",
"J. c #C32615",
"K. c #C32B15",
"L. c #CC2A15",
"P. c #CA2715",
"I. c #D12D15",
"U. c #DC3416",
"Y. c #D53417",
"T. c #C33212",
"R. c #E23D13",
"E. c #864517",
"W. c #9C481B",
"Q. c #9F5C18",
"!. c #B9440F",
"~. c #AE411C",
"^. c #A34417",
"/. c #B2411C",
"(. c #BA431C",
"). c #B64A1A",
"_. c #AE541C",
"`. c #BC551D",
"'. c #B4581C",
"]. c #BC651C",
"[. c #894529",
"{. c #95472A",
"}. c #955724",
"|. c #834834",
" X c #9B5837",
".X c #895537",
"XX c #AA5227",
"oX c #BA5A2B",
"OX c #BD5821",
"+X c #A85A36",
"@X c #B9552C",
"#X c #916038",
"$X c #BD6435",
"%X c #B46D2B",
"&X c #C7430D",
"*X c #D9470B",
"=X c #D9530D",
"-X c #C45D1E",
";X c #C35912",
":X c #D45D11",
">X c #E8480A",
",X c #EA580C",
"<X c #F3590B",
"1X c #F24B08",
"2X c #CA681D",
"3X c #D26919",
"4X c #DE7B1D",
"5X c #D9751C",
"6X c #CA721A",
"7X c #F6680E",
"8X c #E27E1D",
"9X c #EC7B14",
"0X c #F67512",
"qX c #E76910",
"wX c #C4693C",
"eX c #D8762D",
"rX c #C05F3A",
"tX c #B07547",
"yX c #857971",
"uX c #C97946",
"iX c #D97943",
"pX c #E87742",
"aX c #FA7845",
"sX c #E3821E",
"dX c #EC8016",
"fX c #F48615",
"gX c #E28220",
"hX c #BC824E",
"jX c #C4854E",
"kX c #D8854D",
"lX c #CA8C53",
"zX c #D89456",
"xX c #DE8E51",
"cX c #E5854B",
"vX c #E69A58",
"bX c #F89956",
"nX c #F68D4E",
"mX c #F8A55D",
"MX c #EEA35E",
"NX c #FCAC61",
"BX c #A19A92",
/* pixels */
"                                          3 0 0 0 8 o . X o o X . . o . . . . 1 8 8 8 0 =.                                      ",
"                                          3 0 0 0 0 . . . . . . . . . . . . . o 8 0 0 0 =.                                      ",
"                                -.>.-.-.=.K ` e 9 e b n 4.4.4.4.4.4.i.n.n.n.N.n.D 4 e / ;.:.:.:.:.-.                            ",
"                              -.8 8 8 8 q -X.X4 o @ n 0.0.0.0.0.0.0.J.Y.U.U.U.T.A o 0 @.+.8 8 8 8 1                             ",
"                              *.1 3 3 1 w ;.@.l l b 8.0.e.m.m.J.J.J.L.L.J.J.J.N.i.G G { =.*.0 8 8 1                             ",
"                          3 q { ).).6XsX%X9 j 8.7.0.0.q.m.J.P.Y.U.U.I.J.m.q.q.m.K.Y.T.a.8 W gXOX~.^.^ i a                       ",
"                          3 8 ) ).).%X..o.b n 0.q.q.e.m.J.P.L.I.Y.Y.M.8.n l l l A G G D v A +.[.).).y 8 i                       ",
"                      :.yXr e ] `.OX#X3 4 8.0.q.q.q.m.J.P.P.L.I.I.L.q.n k @ @ @ @ @ @ j 0.4.9 [ OX`.Y y Q                       ",
"                    w 8 r ).).2X}.O.~ l b 0.q.q.e.m.J.L.I.L.I.I.L.M.n k = * * * * * * = l l b R O.%X-X`.^.8 0 a                 ",
"                    0 8 r ).).].O.3 > 3.3.0.q.q.m.J.L.L.I.I.I.I.J.m.b # + d d s s s d + X ; 8.v 9 #X`.`.^.8 8 p                 ",
"                p ^ ` ) ] -X2X].! X - 6.8.q.q.q.m.L.L.I.I.I.I.I.n.n k * s g g g d g F B . # l h 3 $.2X-X`.) ! o.=.p             ",
"              =.8 8 XX`.-X4XgX'.M o - 8.w.q.q.q.m.L.I.I.I.I.I.L.u.; = s f g g g d A @X[.. X * * 3 [ 5XsX4X-X`.] 8 8             ",
"              =.8 8 XX`.-X4XsX'.M o ; w.0.q.q.m.J.L.I.I.I.I.n.u.l = s d s s s k G XXpXuX%.O.+ * 1 @.5X8X4X'.`.] 8 3             ",
"              -.8 3 ].5X5X_._.[.9 o ; 0.q.q.q.J.L.I.I.I.I.I.J : = s f s * & @ N {.pXbXvXzXtX+ * 1 ^ _.'.`.5X5X[.8 3             ",
"              -.8 8 %XsXsXa.' Y 5 ; l 0.q.q.e.L.I.I.I.I.I.I.v @ * f f g D _ O..XuXbXNXNXNXvX] R 2 p a.d.^.8X8X}.8 3             ",
"              ,.8 8 ].sXsXL N 3 h m 5.0.q.q.e.L.I.I.I.I.I.I.v @ * f f S XXiXkXxXbXmXNXNXNXmXiX X2 p a.d.^.sX4X}.9 9 BX          ",
"          3 8 ) XXXX5X8X8X3 o X k 2.3.0.q.q.q.J.L.I.I.I.I.I.v @ M L Z.}.iXcXuXtXvXNXNXNXNXMXtX.X1 / e e Y sX4X2X'.`.t w a       ",
"          3 8 _ OX`.5XsX4X1 o X k 2.3.q.q.q.q.e.m.L.I.I.I.I.v @ _ wXiXcXbXjX%.@.lXNXNXNXNXzXu t 1 / q 8 y sX4X3X`.-X9 8 w       ",
"          3 8 _ 2X-X6X6X6X3 o X k 2.3.w.0.q.q.q.m.L.I.I.I.I.v @ #.cXbXbXmXjX/ W hXNXNXNXNXlX. . 1 / e q y 6X6X2X2X2Xq 8 i       ",
"          3 8 +.4X8XW.p.p.e $ X k 3.3.6.6.0.q.q.m.L.I.I.I.I.A @ $.vXmXmXNXjX/ W hXNXNXNXNXlX. . 3 %.! I U H H _.4X8Xe 8 w       ",
"          3 8 +.4X4XW.L p.e $ X k 3.3.3.3.0.q.q.m.J.L.L.L.L.v @ $.vXmXbXbXuX$.$.lXNXNXNXNXzXW ~ ~ @.W I U L p._.4XsX9 8 w       ",
"          3 8 +.4X8XW.L L e $ X k 3.3.3.3.0.q.q.q.q.M.J.J.J.b @ $.vXnXaXaXpXkXzXMXNXNXNXNXMXlXuXrX~ q y U H H _.8XsXt 8 w       ",
"          3 8 +.4X4XW.H L e % 4 j m n 3.2.7.0.q.q.q.m.M.J.J.v > #.tXcXaXaXaXbXMXzXlXMXvXjXlXMXbXpX) o t U H L _.8XsXe 8 w       ",
"          8 3 +.4X5XW.H H r r T T # k 3.3.6.6.0.q.q.m.m.m.m.7.6.D ~ +XaXaXaXbXzX%.@.zXhX9 / zXbXpX` o e I L H _.8X8Xe 3 8       ",
"          8 8 +.5X4XW.H L r r ) ~ o - 3.3.3.3.0.0.q.q.q.q.q.q.q.n j [.wXpXnXbXzX$.@.hXtXy o.xXxXwX` 3 u U L L _.4X8Xe 8 8       ",
"          8 8 +.4X4XW.H L r I _ / o - 3.3.3.3.3.8.q.q.q.q.q.q.q.8.5.Z ` wXnXbXmXzXtX/ @.uXkXcX+XW / I T I L H _.4X8Xe 8 q       ",
"          8 8 +.8X8XW.L p.r r _ / o - 3.3.3.3.3.6.0.q.q.q.q.q.q.q.7.l U +XcXbXmXmXjXW O.bXbXuX.Xt @.E I I H L '.8X8Xe 8 8       ",
"          8 8 R ~.C.a.H L r r _ / o - 3.3.3.3.3.3.6.8.q.q.q.q.q.0.8.n b E #.uXnXnXcXwXwXpX$XW @. X+XE I U L H f.B.(.1 8 w       ",
"          8 8 ! ~.B.a.H L r r _ / @ ; 3.3.3.3.3.3.3.8.q.q.q.q.e.q.7.6.n h Y +XiXkXiXeXwXwX X4 o.$XoXE r U H H f./.(.1 8 q       ",
"          8 8 R ~.B.a.H L r t y E m n 3.3.3.3.3.6.0.q.q.q.q.M.L.L.L.J.m.5.b j r r e e e e W  X+XoXoXE I U L H d.~.(.1 8 8       ",
"          8 8 ( ~.B.a.H L e $ X h 3.3.3.3.3.3.3.8.q.q.q.q.q.J.I.I.I.I.M.7.b - o . . o o . r $XoXoXoXE I U H H d.C.(.1 8 w       ",
"          8 8 R ~.B.a.L p.e $ X h 3.3.3.3.3.6.w.0.q.q.q.m.Y.R.R.U.Y.J.q.0.3.n l - : J A . r $XoXoXoXE I U L H f.C.(.1 8 0       ",
"          8 8 R ~./.a.H ] y $ X h 3.3.3.3.3.6.0.0.q.q.q.m.Y.R.R.U.I.M.q.0.8.3.m - > t.r.. t  X{.A.{.Y r U L L d.C.(.6 8 q       ",
"          8 8 ( /.~.a.' W t j m n 3.3.3.3.3.3.3.8.0.q.q.q.m.M.M.m.m.q.8.l : - j u.x.&X&Xg.p.^ *.Z.] Y r U H F d./.(.1 8 q       ",
"          8 8 ( /./.a.D e @ l 3.3.3.3.3.3.3.3.3.6.0.q.q.q.q.q.q.q.q.q.5.h X X k x.>X<X,XG.x.1 ^ [.Z.Y r U H L d./.(.1 8 3       ",
"          8 8 R /./.a.D e @ l 3.3.3.3.3.3.3.3.3.3.6.6.0.q.q.8.3.b h ; j u.c.).;XqX0X0X0X<X=Xg.D 4 W I I U H L d./.(.1 8 0       ",
"          8 8 R /./.a.D e @ l 3.3.3.3.3.3.3.3.3.3.3.3.7.0.0.3.2.l # X > g.&X=X:X3X5X5X5X:X=XF.J 1 ^ Y r U L L d./.(.1 8 8       ",
"          8 8 R /.C.a.G _ y 5 # # # # # # # # # # # # # # # # # Z g.x.b.*X!.D , , , , , > B *XF 2 y I r U H L d.B.(.1 8 0       ",
"          8 8 R /./.a.L L e $ . . . . . . . . . . . . . . . . . Z b.D.H.>X!.N . . . . . . N =Xp.2 a r I U L H d./.(.1 8 w       ",
"          8 8 R /./.a.H D 3 $ l b J J J z z k X = z C r.y.y.y.f.!.*X>X&Xs.B A y.y.A # : y.p.S P s.~ 4 e U L H d.(.(.1 8 q       ",
"          8 8 R B.~.a.L ( 3 @ n 7.j.j.j.j.1.z X k 1.l.S.D.D.*X=X,X,X,X!.B : y.*XH.g.: N *XV.% K :XK 1 4 U H H d./.(.1 8 q       ",
"          8 8 R B./.a.H D 1 # r.l.S.S.H.D.z.C X l j.H.>X,X,X^.S S S S B % % f.>X>Xx.> V 0X'.o K 9X..o 4 U L L d./.(.1 8 8       ",
"          8 8 R ~./.A.] _ 8 # t.S.S.S.G.G.l.C @ l l.*X1X7X0XE.% o X X X . : f.,X>Xx.> V fX].$  .9X..o 4 U H H d.(.(.1 8 0       ",
"          8 8 R /./.~ ~ E F r.z.S.G.G.G.G.S.r.@ Z H.>X1X7X0XE.$ 7 | | } 6 @ N S Z P E.E.K V $  .9X..o 4 U L H d.(.(.1 8 a       ",
"          8 8 R /./.t t k j.S.S.S.G.G.G.G.S.r.@ S *X1X1X7X0XE.$ } &.&.&.7 . . X X V 6XQ.. . $  .9X..o 4 U H H d./.(.1 8 q       ",
"          8 8 R /./.t q > j.S.S.S.D.H.D.S.J Z A g.>X1X1X<X0X'.E.~ | } 7 6 @ j A A S ..P F B o  .9X..o 4 U H p.f./.(.1 8 w       ",
"          8 8 R ~./.t 9 > j.v.v.l.v.v.l.j.# k j.H.>X1X1X<X0XqXqXE.: . . . # C S.l.y.: M H.g.o  .dX..o 4 U H L d./.(.1 8 0       ",
"          8 8 R /./.! E M Z A A A A A A b k z v.H.G.G.G.>X<X7X7X;Xs.< 6 O % y.G.H.k.: j *Xx.o  .9X..o 4 U H H d./.(.1 8 8       ",
"          8 8 R ~./.a.G D $ X X X @ @ X @ c t.v.S.S.S.S.G.1X<X7X7X3XO.7 6 : y.*XG.k.: j *Xx.X K 9X..2 9 U H H d./.(.1 8 w       ",
"          8 8 R ~./.a.H D % 3 q o h l l b 1.h.z.l.S.S.S.D.G.*X=X!.E.Q 6 M A A F F J Z Z F F S P E.O.r r U H H d./.(.1 8 q       ",
"          8 8 R /./.a.H H r I ^ @ z 9.9.k.9.h.h.j.S.S.S.S.S.S.S.J # . % y.x.j . . = g.u.. > &Xs.1 o.) T U H H d./.(.6 8 q       ",
"          8 8 R /./.a.H H r r / ! R z 1.9.h.h.h.k.z.z.z.l.S.S.S.g.S S P !.&Xs.S S F x.g.l B s.' ~ |.! I U H H d.(.(.1 8 q       ",
"          8 8 R ~./.a.H H r I _ +X^ o m 9.1.1.t.t.t.h.h.k.l.v.v.F.=X,X,X,X,X,X,X,X>XF.v.z.y.1 / $XoX! I M H H d./.(.1 8 a       ",
"          8 8 R /./.a.H H r I [ |.y o l z z z z z z z z C r.r.r.f.g.V.^.^.^.^.^.^.f.y.r.C A I #.oXoX! I U H H d./.(.1 8 w       ",
"          8 8 R B./.a.H L r I ^ 8 1 o X X X X X X X X X X X X X X X X @ @ @ @ @ @ X X X X r [.XXoXoX! I U H L d./.(.1 8 8       ",
"          8 8 R B.B.a.p.L r r p o * * * * @ . . @ - - - - ; ; ; h h h j j j j j j j k ; . t #.[.{.XX! I M H L d./.(.1 8 w       ",
"          8 8 Y f.f.a.H H r r p $ c <.<.<.= X . ; m 2.2.3.8.0.0.0.0.n.N.K.K.K.K.K.N.N.u.o o 4 4 9 @.! I U H H a.d.V.1 8 w       ",
"          8 8 I H H H H L r r / W z c <.1.g = = k b m m m n 4.4.4.4.u.i.i.i.n.i.i.i.i.C k k = # 1 o.) I U H H H H p.1 8 i       ",
"          8 8 I H H H H H r I +.+X9 @ c 1.1.1.t.x @ . . . . . 2 . . . . . . . . . . . = t.h.<.x 1 @.! r I H L H H p.8 8 q       ",
"          8 8 I H H H H H e I R Z.$ X x c <.1.1.z * X . 1 8 0 q t t t t t 0 1 X & * = l 1.1.z B e @.E r U G G H G L 8 8 w       ",
"          8 8 I H H H H L r r R ' $ . . X x x c c x s X y Q W _ #.#.|.|.|.@.y # g <.t.1.<.z 1 ^ Z.[.E r U G G H G L 8 8 w       ",
"          8 8 I G G G G G e r Y ' t q 2 X g g x x g k t W r r ) ' ' ' ' ' ` t # g c <.c x b i o.' ' Y r I G G G G H 8 8 w       ",
"          8 8 8 8 8 8 8 8 8 8 8 8 p *.p . X X X X X i a w 0 8 8 8 8 8 8 8 w 0 . X X X X X q p a 8 8 8 8 8 8 8 8 8 8 8 8 i       ",
"          8 8 8 8 8 8 8 8 8 8 8 8 8 i p . . . . . . a q 8 8 8 8 8 8 8 8 8 q 0 . . . . . . 8 q 8 8 8 8 8 8 8 8 8 8 8 8 8 0       "
};
