/* XPM */
static char *d_u[] = {
/* columns rows colors chars-per-pixel */
"64 64 198 2 ",
"   c None",
".  c #1E1A1E",
"X  c #251B1E",
"o  c #2B1C1E",
"O  c #321D1D",
"+  c #3A1E1C",
"@  c #2E201E",
"#  c #33221E",
"$  c #3B211F",
"%  c #1D1D25",
"&  c #1C1F28",
"*  c #231D22",
"=  c #2C1D21",
"-  c #351D22",
";  c #3C1E21",
":  c #1C2026",
">  c #242126",
",  c #2B2226",
"<  c #262328",
"1  c #292629",
"2  c #2D2A2D",
"3  c #342324",
"4  c #3C2222",
"5  c #3C2B26",
"6  c #322C2E",
"7  c #302E31",
"8  c #353234",
"9  c #3C383A",
"0  c #431F1D",
"q  c #4C1D1F",
"w  c #5C1D1F",
"e  c #641A1F",
"r  c #691B1F",
"t  c #741C1E",
"y  c #7B1D1D",
"u  c #45211C",
"i  c #4B221B",
"p  c #4D2A1F",
"a  c #53251C",
"s  c #5E231D",
"d  c #552A1E",
"f  c #5E2C1E",
"g  c #60231D",
"h  c #6C2718",
"j  c #672A1A",
"k  c #71251A",
"l  c #732D1A",
"z  c #7B2F19",
"x  c #7B2B16",
"c  c #6B341D",
"v  c #73321E",
"b  c #7E301A",
"n  c #411C21",
"m  c #4A1C21",
"M  c #561C21",
"N  c #5C1B21",
"B  c #611B20",
"V  c #432521",
"C  c #4A2621",
"Z  c #4B2B23",
"A  c #412825",
"S  c #542C22",
"D  c #5D2E23",
"F  c #562320",
"G  c #5D3124",
"H  c #573025",
"J  c #463837",
"K  c #632F23",
"L  c #6D2420",
"P  c #732B21",
"I  c #633424",
"U  c #6A3723",
"Y  c #6B3925",
"T  c #6B3C2B",
"R  c #763523",
"E  c #7A3723",
"W  c #7A3C23",
"Q  c #753E26",
"!  c #73451B",
"~  c #6D401B",
"^  c #5D4238",
"/  c #734525",
"(  c #4D4B4C",
")  c #524C49",
"_  c #58524E",
"`  c #5C5754",
"'  c #635E5D",
"]  c #615952",
"[  c #725448",
"{  c #66605C",
"}  c #726C67",
"|  c #6F6B69",
" . c #851E1C",
".. c #8C1E1B",
"X. c #911F1B",
"o. c #8D2A14",
"O. c #8D221C",
"+. c #842915",
"@. c #94211B",
"#. c #9B221A",
"$. c #9E2910",
"%. c #81311A",
"&. c #8D351A",
"*. c #94361A",
"=. c #9B391B",
"-. c #98381B",
";. c #A4290E",
":. c #B5310E",
">. c #BB330D",
",. c #BF3C0F",
"<. c #A32519",
"1. c #AB2719",
"2. c #A12B1B",
"3. c #AD2819",
"4. c #BD2D17",
"5. c #B32C19",
"6. c #BB2E19",
"7. c #B52B17",
"8. c #AE3F1B",
"9. c #A13D1B",
"0. c #BC311A",
"q. c #B13F1C",
"w. c #BF3417",
"e. c #823923",
"r. c #843922",
"t. c #C03D0F",
"y. c #C83D0F",
"u. c #C12F16",
"i. c #C12F18",
"p. c #C53217",
"a. c #C93517",
"s. c #C43C12",
"d. c #CD3B16",
"f. c #C53218",
"g. c #C93318",
"h. c #D13F16",
"j. c #8E421E",
"k. c #9B471B",
"l. c #9D491C",
"z. c #91521D",
"x. c #A4441C",
"c. c #AE411C",
"v. c #A74D1E",
"b. c #B2411C",
"n. c #BA431C",
"m. c #B44B1C",
"M. c #BA4C1D",
"N. c #AE541C",
"B. c #B2531B",
"V. c #BC551D",
"C. c #BA5A1E",
"Z. c #B1581C",
"A. c #B66A1E",
"S. c #8A4725",
"D. c #944426",
"F. c #9B4926",
"G. c #925923",
"H. c #AB5120",
"J. c #BA5A2C",
"K. c #BA5B26",
"L. c #A14F28",
"P. c #B86A21",
"I. c #BC7121",
"U. c #CC4610",
"Y. c #D24313",
"T. c #DA4715",
"R. c #D54A11",
"E. c #DB4A15",
"W. c #C45D1E",
"Q. c #C1571D",
"!. c #DD5A14",
"~. c #E35414",
"^. c #E55A14",
"/. c #E85E16",
"(. c #E14E14",
"). c #C3621D",
"_. c #CA641D",
"`. c #CD6C1E",
"'. c #C66A1B",
"]. c #D06D1E",
"[. c #D5731D",
"{. c #DB761D",
"}. c #DE7B1D",
"|. c #CE731C",
" X c #E66315",
".X c #E86316",
"XX c #E96B17",
"oX c #EC6F18",
"OX c #EF761A",
"+X c #E27E1D",
"@X c #F3761B",
"#X c #F47A1C",
"$X c #DB7B20",
"%X c #857971",
"&X c #E2821E",
"*X c #E3821E",
"=X c #E28220",
"-X c #A19A92",
/* pixels */
"                                          * < < * * * * * * * * * * * * * * * * * > < < (                                       ",
"                                          * > * * - - 4 4 4 4 4 4 4 4 4 4 ; - - * * * > (                                       ",
"                                ' | ' ` _ c = = V O.@.2.0.0.0.0.0.0.0.0.6.<.@.O.i o o I [ } } } } '                             ",
"                              ] > > > > , B.3 * n #.#.3.g.g.g.g.g.g.g.g.g.3.#.@.m * = N.W > > > > %                             ",
"                              ) % * * % * v F M L 3.3.6.g.g.g.g.g.g.g.g.g.6.3.1.k N N c C % % > > %                             ",
"                          * 1 Q M.m.`.! * =  .@.#.g.g.g.g.g.g.g.g.g.g.g.g.g.g.g.<.@.@.- * # }.K.x.x.J 8 7                       ",
"                          * > I m.m.{.! * - O.#.<.g.g.g.g.g.g.g.g.g.g.g.g.g.g.g.1.#.#.- * # &X_.M.M.5 > 8                       ",
"                      } %X4 3 W V.Q._.~ * 3 5.f.g.g.g.g.g.g.g.g.g.g.g.g.g.g.g.g.g.i.6.4 * # [.W.M.V.Z 5 J                       ",
"                    2 > 5 m.m.`.}.&Xj.u * - 5.g.g.g.g.g.g.g.g.g.g.g.g.g.g.g.g.g.g.f.6.4 * o &.).&X&XV.V.v.> < 7                 ",
"                    1 > 5 m.m.`.A.# o w ..O.6.g.g.g.g.g.g.g.g.g.g.g.g.g.g.g.g.g.g.g.f.@... .X @ z.&XV.V.v.> > 9                 ",
"                8 J T I Q W.)._.l.* * w @.@.6.g.g.g.g.g.g.g.g.g.g.g.g.g.g.g.g.g.g.g.f.#.X...* * ~ '.).W.C.I G ^ _ 8             ",
"              _ > > H.V.W.}.=XW.z * * w O.@.6.g.g.g.g.g.g.g.g.g.g.g.g.g.g.g.g.g.g.g.f.#.X...* * a &.[.&X}.Q.V.W > *             ",
"              _ > > H.V.W.$X&X).z * * w ..@.6.g.g.g.g.g.g.g.g.g.g.g.g.g.g.g.g.g.g.f.f.#.X...* * a *.[.+X}.C.V.W > *             ",
"              ` > * P.[.{.B.B.j.A * * w ..@.6.g.g.g.g.g.g.g.g.g.g.g.g.g.g.g.g.g.g.f.f.@.X...* * = A N.C.C.[.[.S.> *             ",
"              ` > > I.&X&X*.*.v > * * w ....#.#.<.g.g.g.g.g.g.g.g.g.g.g.g.p.g.g.1.#.#.X.....* * % > &.=.x.+X+XG.> *             ",
"              { > > I.+X&X&.&.v > * * w ........#.g.g.g.g.p.g.g.g.g.p.g.g.p.g.g.<...........* * * , &.=.x.&X}.G., , -X          ",
"          * > I H.N.$X+X$X* > A D * * w ........#.6.6.6.p.p.g.g.g.g.p.p.g.4.6.6.#...........* * 0 L 3 3 Z *X}.`.B.C.6 2 6       ",
"          * > Y V.V.{.&X}.% > A K * * w ..............<.p.p.g.p.p.g.p.p.f.<.X............. .* * 0 P , > 5 *X}.].V.W., > 2       ",
"          * > Y _.W.`.`.`.* , Z K * * w ..............<.p.p.p.p.p.g.p.p.i.<............... .* * u P 3 , 5 |.`.`._._., > 8       ",
"          * > / {.+Xl.%.%.3 4 S K * * w ..............@.#.<.<.<.<.<.<.<.#.@............... .* * U J.G A C z z B.}.+X3 > 2       ",
"          * > / }.}.k.b %.4 4 S K * = w .................................................. .* * U J.H A C b %.B.{.*X, > 2       ",
"          * > / }.+Xk.b b 4 4 S K * * M y y .......................................... .y y * * U J.S A C z z N.+X*X3 > 2       ",
"          * > / }.}.k.z b 4 4 S K * * n N B  .........................................e N N * * U J.G A C z b B.+X*X3 > 2       ",
"          > * / }.{.l.b z 4 4 C D * * n N B  .........................................e N M * * Y J.G A V b z B.+X+X5 > >       ",
"          > > / {.}.l.z b 4 o # C m m w t y ..........................................y y t m m C S O 4 C z b N.{.+X3 > >       ",
"          > > / }.{.k.z b 4 X * - N N t .................................................. .N N ; * * $ V z z N.}.+X3 > 1       ",
"          > > / +X+Xl.b %.4 X * - N N t .................................................. .w N n * * 4 V z b Z.+X+X3 > >       ",
"          > > D c.q.&.z b 4 X * - N N t ....................................................w N n * * $ C b z *.8.n.% > 2       ",
"          > > G c.8.&.z b 4 X = - N N t ....................................................e N n * * $ C z z *.b.n.% > 1       ",
"          > > D c.8.&.s u X n m M y y  .........@.1.1.3.3.3.1.3.3.3.3.3.1.3.3.1.@...........y t w m n o o i z =.c.n.& > >       ",
"          > > K c.8.&.i * * M N r ............X.#.u.4.u.u.u.u.u.u.u.u.u.u.u.u.4.#.X.............t N N = * O z =.q.n.% > 2       ",
"          > > D c.8.&.i * * M N r ..........@.#.<.u.4.u.u.u.u.u.u.u.u.u.u.u.u.4.<.#.#...........t N N = * O z *.q.n.% > <       ",
"          > > D c.b.&.i * * M N r ........X.7.6.4.4.u.u.u.u.u.u.u.u.u.u.u.u.u.u.u.u.4.@.........t N N = * O b =.q.n.: > 1       ",
"          > > K b.c.&.i * * M N r ........X.7.6.4.4.4.u.u.u.u.u.u.u.u.u.4.u.u.4.4.4.6.@..... . .t N N = * O z -.b.n.% > 1       ",
"          > > K b.b.&.i * * - ; ; m q m m q s s g s g g g g s s g g g g g g s s g s s q q m q m n ; ; * * O b =.b.n.% > *       ",
"          > > D b.b.&.u * * * * * * * * * * * * * * * * * * * * * * * * * * * * * * * * * * * * * * * * * O b =.b.n.% > 1       ",
"          > > D b.b.&.i * * - - - - - - ; - ; 4 4 4 ; 4 4 ; 4 4 4 4 ; ; ; ; ; ; ; 4 ; ; - - - - - - - * * O b =.b.n.% > >       ",
"          > > D b.q.&.i * * t  .......X.@.#.6.0.f.f.f.f.f.f.f.f.f.f.f.f.f.f.f.f.f.0.6.<.#.@.X.X.X... .= * O b =.8.n.% > 1       ",
"          > > D b.b.&.i * * y ....X.X.X.@.#.6.f.p.g.p.a.a.a.a.a.a.a.a.a.g.g.g.g.g.f.f.<.#.@.X.@.X... .= * O z =.b.n.% > 2       ",
"          > > D b.b.&.i * * y ....X.@.<.7.6.f.g.d.E.E.E.E.E.E.E.E.T.T.T.T.T.T.T.d.a.p.6.7.5.X.@.X.X. .= * O z =.n.n.% > 1       ",
"          > > D 8.c.&.i * * y  ...@.#.5.g.p.a.a.h.^.~.~.~.~.~.~.~.~.~.~.(.~.(.(.h.a.a.p.u.6.X.X.X... .= * O z =.b.n.% > 1       ",
"          > > D 8.b.&.i * * y ..X.#.<.7.a.a.d.h.T./.^.^.^.^.^.^.~.^.^.^.~.~.~.~.T.Y.d.p.p.6.#.#.X.X. .= * O b =.b.n.% > >       ",
"          > > D c.b.&.i * * O.<.1.a.p.a.a.d.OX@X@X#X#X#X#X#X#X#X#X#X#X#X#X#X#X#X#X@X@Xd.p.g.6.i.1.X.O.= * O b =.n.n.% > 1       ",
"          > > D b.b.&.i * * O.<.3.a.a.p.a.d.@X#X#X#X#X#X#X#X#X#X#X#X#X#X#X#X#X#X#X@X@Xd.p.p.6.i.1.@.O.= * O z =.n.n.% > 6       ",
"          > > D b.b.&.i * * O.<.5.a.d.E.^.^.@X#X#X#X#X#X#X#X#X#X#X#X#X#X#X#X#X#X@X@X@X~.~.E.u.f.3.@.O.= * O z =.b.n.% > 1       ",
"          > > D b.b.&.i * * O.<.5.d.d.~..X.X@X#X#X#X#X#X#X#X#X#X#X#X#X#X#X#X#X#X#X@X@X/.^.~.p.p.3.#.O.= * O %.*.b.n.% > 2       ",
"          > > D c.b.*.i * * @.3.6.h.Y.~..X.X@X#X#X#X#X#X#X#X#X#X#X#X#X#X#X#X#X#X#X@X@X/.^.~.d.d.5.#.@.= * O b -.b.n.% > 1       ",
"          > > D b.b.&.i * * 2.4.a.~.~./..X.X@X#X#X#X#X#X#X#X#X#X#X#X#X#X#X#X#X#X@X@X@X/.^.^.~.E.w.<.@.= * O z =.b.n.% > >       ",
"          > > D c.b.&.i * * 2.4.d.^.^./. X.X@X#X#X#X#X#X#X#X#X#X#X#X#X#X#X#X#X#X#X@X@X/.^.^.~.~.s.<.@.= * O z =.b.n.% > 2       ",
"          > > D c.b.&.h s o i F l R.E.^. X.X@X#X#X#X#X#X#X#X#X#X#X#X#X#X#X#X#X#X#X@X@X^.^.~.y.y.+.q 0 O + j z =.b.n.% > 1       ",
"          > > D b.b.&.z z 4 X * a Y.Y.!. X.X@X#X#X#X#X#X#X#X#X#X#X#X#X#X#X#X#X#X#X@X@X^.^.~.>.>.k * X 4 C z z =.b.n.% > 1       ",
"          > > D b.b.&.z z 4 X * p U.Y.E.^.^.oXOX@X#X#X#X#X#X#X#X#X#X#X#X#X#X#X#X X!.!.R.R.R.>.>.k * * $ C z z -.n.n.% > 1       ",
"          > > D c.b.&.z z 4 X * p s.y.Y.R.R. XXXoX#X#X#X#X#X#X#X#X#X#X#X#X#X#X@XU.>.>.>.>.>.>.>.h * * 4 p z z =.b.n.% > 6       ",
"          > > D b.b.&.z z 4 X * a s.s.U.R.R. XXXXXOXOXOXOXOXOXOXOXOX@XOXOX@XOXOXU.>.>.>.>.>.:.:.h = o 4 C z z =.b.n.% > 2       ",
"          > > D 8.b.&.z b 4 4 I S.$ $ +.>.>.,.,.,.,.t.t.,.t.s.t.t.,.t.t.t.t.t.,.>.>.>.;.;.;.+ + U L.S A C z b =.b.n.% > >       ",
"          > > D 8.8.&.%.b 4 A Y S.* * x :.:.:.>.>.>.>.>.>.>.>.>.>.>.>.>.>.>.>.>.>.>.>.;.;.$.% * U J.G A i z b =.b.n.% > 2       ",
"          > > C *.*.&.z z 4 A Y D.4 4 j o.o.o.o.o.o.o.o.o.o.o.o.o.o.o.o.o.o.o.o.o.o.o.+.+.x # $ W J.G A C z z &.=.9.% > 2       ",
"          > > V z z z z b 4 4 Y J.J.F.p * * * * * * * * * * * * * * * * * * * * * * * * * @ J.J.J.J.I A C z z z z %.% > 8       ",
"          > > V z z z z z 4 A Y J.J.F.i * * * * * = * * * * * * * * * * * * * * * * * * * @ J.J.J.J.G 4 V z b z z %.> > 1       ",
"          > > V z z z z z 3 A D D.D.r.u * * d d d d d A * * $ I E E E 3 * O i i i q 0 = * o D.D.D.D.S 4 C l l z l b > > 2       ",
"          > > A z z z z b 4 4 D e.e.e.u * = d f f j f V * * 3 K E E e.O * O i i i i i = * X r.e.e.r.S 4 C l l z l b > > 2       ",
"          > > A l l l l l 3 4 C R R R p # X i p p d d $ * * 3 I R R R O * o u 0 0 + + O O + R R R R C 4 V l l l l z > > 2       ",
"          > > > > > > > > > > > * > > > > * * * = $ $ O * * * > > > > % * * * * * * X * > > > > > > > > > > > > > > > > 8       ",
"          > > > > > > > > > > > > > > > > > . * X o o X . . * > > > > . * . . . . . . * > > > > > > > > > > > > > > > > 1       "
};
