/* XPM */
static char *_228570ccadd496a8a1d324410071752YLFyVbptwpKCFwIe[] = {
/* columns rows colors chars-per-pixel */
"64 64 212 2 ",
"   c None",
".  c #151216",
"X  c #1A1417",
"o  c #1C1619",
"O  c #1D1A1A",
"+  c #221719",
"@  c #23191A",
"#  c #2C1B1A",
"$  c #2C171A",
"%  c #341C1B",
"&  c #3B1D1C",
"*  c #1D211B",
"=  c #2B211C",
"-  c #212B1F",
";  c #29281C",
":  c #342319",
">  c #3B231B",
",  c #372B1D",
"<  c #282620",
"1  c #352C25",
"2  c #3B2C25",
"3  c #243322",
"4  c #293823",
"5  c #3B3125",
"6  c #3D332A",
"7  c #383922",
"8  c #431D1D",
"9  c #481E1D",
"0  c #551F1D",
"q  c #4C2716",
"w  c #4E2917",
"e  c #45241A",
"r  c #4C221E",
"t  c #4E2918",
"y  c #452818",
"u  c #54221F",
"i  c #5C221F",
"p  c #512A19",
"a  c #55291B",
"s  c #4D311C",
"d  c #40311C",
"f  c #56341C",
"g  c #5C341D",
"h  c #62231E",
"j  c #632A1E",
"k  c #6C231F",
"l  c #66341F",
"z  c #6B331F",
"x  c #663A1D",
"c  c #7E391E",
"v  c #72381F",
"b  c #5A2521",
"n  c #43352A",
"m  c #4D3B2C",
"M  c #423226",
"N  c #553B27",
"B  c #402C20",
"V  c #642420",
"C  c #6B2520",
"Z  c #6B2A22",
"A  c #632B25",
"S  c #742621",
"D  c #7A2723",
"F  c #742A21",
"G  c #7A2A23",
"H  c #623E25",
"J  c #753120",
"K  c #7B3920",
"L  c #7A3323",
"P  c #2A4228",
"I  c #2E4F2E",
"U  c #2D512E",
"Y  c #335B33",
"T  c #305732",
"R  c #344E2B",
"E  c #366236",
"W  c #396637",
"Q  c #74431F",
"!  c #7A481E",
"~  c #6F411E",
"^  c #4E4131",
"/  c #534231",
"(  c #5D4A34",
")  c #5B4531",
"_  c #694127",
"`  c #674328",
"'  c #7D4521",
"]  c #794921",
"[  c #664E37",
"{  c #754E33",
"}  c #6A533A",
"|  c #665138",
" . c #745338",
".. c #765A3F",
"X. c #775539",
"o. c #755C41",
"O. c #756043",
"+. c #842B23",
"@. c #8B2D23",
"#. c #942D25",
"$. c #9C2E26",
"%. c #8A3323",
"&. c #9D3225",
"*. c #993725",
"=. c #A12F26",
"-. c #A43126",
";. c #AB3327",
":. c #A33228",
">. c #AD3328",
",. c #AA3928",
"<. c #B23527",
"1. c #BB3627",
"2. c #B93827",
"3. c #BD3927",
"4. c #BB3628",
"5. c #B63A29",
"6. c #BA3A28",
"7. c #B33728",
"8. c #C43927",
"9. c #CD3C27",
"0. c #C53A28",
"q. c #CF3C28",
"w. c #CD3D29",
"e. c #CE3C28",
"r. c #C13727",
"t. c #D03D29",
"y. c #D03D28",
"u. c #814C1F",
"i. c #9C531F",
"p. c #814A20",
"a. c #884821",
"s. c #954422",
"d. c #9C4722",
"f. c #995621",
"g. c #825B3C",
"h. c #865120",
"j. c #A24224",
"k. c #AC4425",
"l. c #AE4C23",
"z. c #A34D22",
"x. c #BB4C25",
"c. c #B64626",
"v. c #A45522",
"b. c #AE5C21",
"n. c #AB5521",
"m. c #B45424",
"M. c #B35E22",
"N. c #BB5E22",
"B. c #BA5323",
"V. c #8C643E",
"C. c #BE6423",
"Z. c #A56322",
"A. c #C84628",
"S. c #D1422A",
"D. c #D44F28",
"F. c #C85226",
"G. c #DB5627",
"H. c #DD5B26",
"J. c #D25228",
"K. c #D25826",
"L. c #E05E26",
"P. c #C46623",
"I. c #CD6324",
"U. c #CB6924",
"Y. c #C46B25",
"T. c #DE6126",
"R. c #D26B24",
"E. c #DA6B24",
"W. c #DC7427",
"Q. c #E16326",
"!. c #E36C25",
"~. c #E57226",
"^. c #E97526",
"/. c #E77926",
"(. c #E97B26",
"). c #EA7F28",
"_. c #835F41",
"`. c #836444",
"'. c #8B6A49",
"]. c #976C46",
"[. c #95704B",
"{. c #9E764C",
"}. c #A8774B",
"|. c #A67C54",
" X c #A56D45",
".X c #EC8228",
"XX c #EB8529",
"oX c #AC8256",
"OX c #B88858",
"+X c #CC8E5A",
"@X c #C68856",
"#X c #D18E59",
"$X c #CA935D",
"%X c #C7915A",
"&X c #D4945D",
"*X c #EC995F",
"=X c #E8925A",
"-X c #CB9560",
";X c #CF9962",
":X c #D59B63",
">X c #DA9E65",
",X c #EF9F63",
"<X c #DEA067",
"1X c #EEA266",
"2X c #E4A569",
"3X c #EEA468",
"4X c #EDA96C",
"5X c #E5A96B",
"6X c #F2AB6D",
"7X c #F0A468",
"8X c #F3AF70",
"9X c #F3B171",
/* pixels */
"                                              @ % % % % % % % % % % % % % % @                                                   ",
"                                          o @ C $.2.2.2.2.2.2.2.2.2.2.2.-.+.u o o .                                             ",
"                                        @ % % D ;.9.e.w.w.w.w.w.w.w.e.e.2.#.h $ % #                                             ",
"                                    o o u =.=.;.>.9.w.t.t.t.t.t.t.t.t.t.t.t.w.1.-.V o o                                         ",
"                                    $ % V ;.<.w.9.2.<.<.>.>.<.<.<.>.>.>.3.w.w.1.;.S % @                                         ",
"                                o @ V +.&.0.0.w.3.u & & & & & & & & & & F w.w.9.0.;.+.i o o                                     ",
"                                o # D ;.2.w.0.>.:.& @ @ @ @ @ @ @ @ @ @ i >.<.3.w.1.-.C @ o                                     ",
"                                o # @.w.w.w.,.& & e y y y y y y y y y y e & & F w.w.0.D @ o                                     ",
"                                $ & #.w.w.S.:.o o y w w w w w q q q w p > o o V S.w.w.+.% $                                     ",
"                            X & G #.2.w.@.r e y y w w w w w p V.%X}.p w q y y e 9 G 0.>.@.F $ X                                 ",
"                            o 8 #.;.2.6.Z + # w w w w w w q w }.6X$Xq q w w w > o i 2.7.-.+.% O                                 ",
"                            o r ,.<.F b e > > w w w w w q g.].+X6X>X].].q w w y % e i @.6.&.% o                                 ",
"                            o r 2.2.r o % w w w w w w w y %X6X6X6X6X6X9Xy w w w w > o F w.:.% o                                 ",
"                            o r 2.2.r o % w f _ _ _ _ _ H $X6X6X6X6X6X9XH _ _ H w > o D w.:.% o                                 ",
"                            o r 2.2.r o % w { 4X4X4X4X4X4X6X6X6X6X6X6X6X4X4X4XOXp > o D w.:.& o                                 ",
"                            o r 2.2.r o , ` V.6X6X6X6X6X6X6X6X6X6X6X6X6X6X6X6X%X` B o D w.:.% o                                 ",
"                            o r 2.2.r o ..6X6X6X>X^ 1 :X6X6X6X6X6X6X8X[.1 [ 8X6X6X`.o D w.:.% o                                 ",
"                            o r 2.2.r o ..6X6X6X:X1 o ;X6X6X6X6X6X6X9X`.o m 9X6X6X`.o D w.:.% o                                 ",
"                            o r 2.2.r o ..6X6X6X:X1 O ;X6X6X6X6X6X6X9X`.o m 9X6X6X`.o D w.:.% o                                 ",
"                            o r ,.,.r o ..6X6X6X:X1 O ;X6X6X6X6X6X6X9X`.o m 9X6X6X`.o F 6.&.% o                                 ",
"                            o 8 $.$.8 o  .*X,X6X5XoX|.2X6X6X6X6X6X6X6X-X|.OX6X1X,X_.o C ;.@.% o                                 ",
"                            o 8 #.#.8 o  .=X*X6X6X6X6X;X-X2X6X6X6X>X-X<X6X6X6X1X*Xg.o V -.+.% o                                 ",
"                            o 8 #.#.8 o X.=X*X6X6X6X6X( 2 oX6X6X6X`.5 [.6X6X6X1X*Xg.o V -.+.% o                                 ",
"                            o 8 #.$.u % { @X#X6X6X6X6X/ < '.-X-X-X| < '.6X6X6X&X@XX.% C -.+.% o                                 ",
"                            o 8 #.=.#.+.A 6 | 6X6X6X6XOX|.^ 6 6 6 o.|.%X6X6X6X'.5 b +.$.-.+.% o                                 ",
"                            o 8 #.-.$.$.V o m 6X6X6X6X6X9Xm o o @ '.6X6X6X9X9XO.o u $.-.-.+.% o                                 ",
"                            o 8 #.-.=.$.+.S Z n / >X6X6X6XOXoXoXoX:X6X6X8X2 X 8 G +.$.-.-.+.% o                                 ",
"                            o 8 #.=.=.=.$.#.D o 1 $X2X2X2X2X2X2X2X2X2X2X5X2 o u $.$.$.-.-.+.% o                                 ",
"                        . X V S $.-.<.2.;.$.@.V A [ } } } } } } } } } } } Z V D $.&.&.;.4.-.S b X .                             ",
"                        o @ =.$.=.-.r.w.<.$.$.$.@.% o o o o o o o o o o + #.$.$.=.=.=.2.e.1.-.+.+ X                             ",
"                        o $ ;.-.2.1.0.w.r.2.2.=.$.D S @.@.@.@.@.@.@.@.@.+.&.=.;.2.2.1.0.e.r.-.+.+ X                             ",
"                        o $ -.;.0.w.w.w.w.w.8.-.-.=.=.9.t.t.t.t.t.w.w.r.2.-.-.<.w.w.w.w.w.r.-.+.+ X                             ",
"                    . 8 i k 2.1.9.w.w.t.q.t.9.1.2.<.;.F h h h h h h h +.;.3.1.8.e.e.w.t.w.8.2.-.h i o .                         ",
"                  . o i $.=.e.e.w.w.w.w.w.w.w.w.9.4.<.& o + o + o + @ S =.t.w.w.w.w.w.w.w.w.e.r.$.#.o o                         ",
"                  . o i $.=.w.e.w.w.w.w.w.w.<.C C V V ' p.p.p.p.p.p.' z i V C #.t.w.t.w.t.w.w.0.=.#.o o                         ",
"                  . O b $.=.w.e.w.w.w.w.w.w.&.o o o + P././././.^.^.W.x o o o h t.t.t.t.t.w.w.0.-.$.o o                         ",
"                  . o 9 S D @.@.@.@.@.@.@.@.F o o X o P.!.M.v.v.v.U.E.x X X X 8 %.@.@.@.@.@.@.+.S C o o                         ",
"                  . o O O @ @ @ @ @ @ @ @ + f .X.X).(.~.U.y + + + p./.(..X.XXXs @ @ @ @ @ @ @ @ @ @ o o                         ",
"                  . O & r r r & @ @ t f f f ! /././.~.b.i.x f f f ! b.U.(.(.(.Q f f f > o @ 8 e r r @ o                         ",
"                  . O G 6.7.:.+.% > b.I.I.I.R.!.!.!.E.: # v.I.I.I.~ : a.(.(.(.E.R.R.R.Q o % @.:.6.c.% o X o                     ",
"                  . O +.S.0.>.@.% > C.!.P.N.N.N.N.N.M.o X m.Q.Q.Q.v o x C.Y.C.C.C.P.~.u.o $ G &.A.S.e = = @                     ",
"                  . o +.S.0.7.@.% > C.E.p # # # # # # o o n.Q.T.Q.v o @ # # # # # d Y.u.o o % u 6.S. X{.{.n                     ",
"                  . o +.q.8.<.@.$ : C.W.s * * * * O O o X l.H.L.L.v o O O O * * * , Y.u.X o o & 2.q.=X1X1X(                     ",
"                  . O [.4X6X6X6X4X+XM . P E E E Y U T o X l.H.A.7.j X 4 T T E E E T O x W.f.= M :X6X3X1X1X(                     ",
"                  . O [.1X3X1X1X1X+Xn o P Y Y E Y I U # # z.K.c.,.Z # 4 U T E E T I ; Q !.v.= n &X1X1X1X+X/                     ",
"                  . O [.1X3X3X3X1X+Xn X 5 3 P E T 3 * d.d.v l a u J s.N - 4 E Y - 4 h.N.Q.v.= M &X1X1X&X) =                     ",
"                  . O [.3X3X3X1X1X+Xn o s o 3 E T * X G.G.r o o o v H.K o - W Y X : P.!.Q.z.= M &X1X1X#X1 O                     ",
"                  . o [.1X7X3X&X..( = o Q f.] 3 7 a.s.H.H.j.%.r o z H.B.s.' 3 R f.Z.W.!.Q.d.# = ( [ [ (                         ",
"                  . o [.3X3X3X@X2 o o o f.!.n.o > K.H.L.L.D.A.j o z L.H.H.m.X d (.(.(.!.Q.d.# o o O o o                         ",
"                      m  . . .) # # ] a.P.~.M.o & c.A.H.L.A.A.j o l H.J.A.j.X d (.(.~.Q.H.d.# o .                               ",
"                      . o o o o o > m.T.~.~.M.o & ,.2.H.H.A.c.j o l H.A.5.*.o d (.~.!.H.G.d.# X                                 ",
"                        . X o % V L F.H.!.~.U.u.' F F c c v J ' p.Q c J Z L ] f.(.~.Q.F.*.z @ X                                 ",
"                            o 8 :.6.J.J.T.!.~.(.U.# o o X X @ f.(.u.X o X t .X(.(.~.T.k.C 9 @ o                                 ",
"                            X & F %.x.G.T.Q.!.!.I.g t t t t f b./.f.s s s Q (.~.~.!.H.j.C 9 + .                                 ",
"                                o # s.G.G.G.H.Q.Q.~.~.~./.(.(.(.(.(..X(.)./.~.!.H.H.G.K o .                                     ",
"                                o # K l.l.l.l.m.B.T.Q.!.!.!.!.!.!.~.~.~.!.!.!.K.l.l.k.j o .                                     ",
"                                o O # > > > > > a F.G.H.H.H.H.H.H.H.H.J.J.H.H.j.> > > #                                         ",
"                                o o O o $ % $ o % k.x.x.x.x.x.x.x.x.x.c.k.x.x.%.% % % $                                         ",
"                                  o o o S +.C o @ > > > > > > > > > > > > > > u +.+.+.0 X .                                     ",
"                              . . & 8 8 @.$.+.+ o o o o X X X X X X o O o o X 8 #.#.#.i o .                                     ",
"                              o o #.>.;.-.;.-.;.$.% o               X O & ;.;.;.-.;.;.C O .                                     ",
"                              . X @.-.=.$.$.$.#.+.$ X                 o % #.#.$.$.$.$.h o .                                     ",
"                                  & & & & & & % % @ X                     % & & & & & %                                         ",
"                                  o o o o o o o o o o                     o o o o o o X                                         "
};
