/* XPM */
static char *idle2[] = {
/* columns rows colors chars-per-pixel */
"64 64 207 2 ",
"   c None",
".  c #110F14",
"X  c #0F1014",
"o  c #141216",
"O  c #191417",
"+  c #161418",
"@  c #1C1619",
"#  c #1E191A",
"$  c #211719",
"%  c #231919",
"&  c #2C1A1A",
"*  c #28171A",
"=  c #341B1B",
"-  c #3B1C1C",
";  c #1E211B",
":  c #2B221C",
">  c #21291E",
",  c #27221D",
"<  c #35221A",
"1  c #3B2219",
"2  c #392C1F",
"3  c #2C2521",
"4  c #292C22",
"5  c #392D26",
"6  c #293422",
"7  c #3D3329",
"8  c #3E362A",
"9  c #421E1C",
"0  c #4C1E1D",
"q  c #521F1E",
"w  c #4C2717",
"e  c #4E2817",
"r  c #45221B",
"t  c #4B231E",
"y  c #4E2818",
"u  c #402B1F",
"i  c #55221F",
"p  c #5A231F",
"a  c #532B1B",
"s  c #5B2D1E",
"d  c #4F321D",
"f  c #55341C",
"g  c #5B351D",
"h  c #583B1F",
"j  c #61241E",
"k  c #68291F",
"l  c #65331F",
"z  c #653A1D",
"x  c #6B361E",
"c  c #79371F",
"v  c #5B2520",
"b  c #542621",
"n  c #453B2E",
"m  c #4A392C",
"M  c #453429",
"N  c #533C2C",
"B  c #5B3725",
"V  c #4F2520",
"C  c #642520",
"Z  c #6A2621",
"A  c #6C2921",
"S  c #642C25",
"D  c #732621",
"F  c #7B2722",
"G  c #742A21",
"H  c #7B2A22",
"J  c #7A3321",
"K  c #773821",
"L  c #683F26",
"P  c #2C462A",
"I  c #2B4C2C",
"U  c #345C33",
"Y  c #2D522F",
"T  c #376236",
"R  c #386537",
"E  c #7B461F",
"W  c #6C401E",
"Q  c #4D402E",
"!  c #58412F",
"~  c #594734",
"^  c #6C4329",
"/  c #694124",
"(  c #7E4720",
")  c #7E4920",
"_  c #774320",
"`  c #654733",
"'  c #6A533A",
"]  c #6B5C3E",
"[  c #78583A",
"{  c #754F31",
"}  c #745D41",
"|  c #842C24",
" . c #8B2C23",
".. c #852721",
"X. c #932C24",
"o. c #9B2E26",
"O. c #873125",
"+. c #8C3024",
"@. c #833C20",
"#. c #8F3A23",
"$. c #953225",
"%. c #9D3126",
"&. c #923E22",
"*. c #A12F27",
"=. c #A43126",
"-. c #AB3227",
";. c #AB3328",
":. c #A93A28",
">. c #B33427",
",. c #BB3627",
"<. c #B43629",
"1. c #BC3728",
"2. c #B3392A",
"3. c #BB3B29",
"4. c #B83927",
"5. c #C33927",
"6. c #CB3B27",
"7. c #C33A28",
"8. c #CE3D29",
"9. c #CD3D29",
"0. c #CD3C28",
"q. c #D13E29",
"w. c #D03D28",
"e. c #D03E26",
"r. c #87481F",
"t. c #814A20",
"y. c #8C4D20",
"u. c #9C4224",
"i. c #9B4C21",
"p. c #845021",
"a. c #9C5521",
"s. c #975721",
"d. c #885B38",
"f. c #AA4B23",
"g. c #B74526",
"h. c #A65822",
"j. c #B05622",
"k. c #93683F",
"l. c #AC6223",
"z. c #BD6424",
"x. c #B66123",
"c. c #C54C27",
"v. c #C34628",
"b. c #CD402A",
"n. c #C54C28",
"m. c #C94A28",
"M. c #D2422B",
"N. c #D14E29",
"B. c #CA5426",
"V. c #D35327",
"C. c #DA5527",
"Z. c #DD5C26",
"A. c #D35328",
"S. c #DC5A28",
"D. c #D95628",
"F. c #E05E28",
"G. c #C26624",
"H. c #C26A24",
"J. c #CE6B25",
"K. c #DE6126",
"L. c #D66825",
"P. c #CF7426",
"I. c #D17929",
"U. c #E16326",
"Y. c #E36B26",
"T. c #E26628",
"R. c #E67426",
"E. c #E87626",
"W. c #E97A26",
"Q. c #E97D27",
"!. c #8E6A49",
"~. c #816445",
"^. c #956340",
"/. c #966842",
"(. c #976D45",
"). c #9B734C",
"_. c #A2774F",
"`. c #A87A4E",
"'. c #A47C52",
"]. c #A97E54",
"[. c #EB8127",
"{. c #ED8228",
"}. c #B68657",
"|. c #C7925E",
" X c #D2955E",
".X c #C58E5B",
"XX c #EA935A",
"oX c #EC995E",
"OX c #CD9862",
"+X c #D39962",
"@X c #D69B64",
"#X c #ED9C61",
"$X c #DEA067",
"%X c #DBA36A",
"&X c #E4A266",
"*X c #EEA366",
"=X c #E7A669",
"-X c #E3A569",
";X c #EDA569",
":X c #EDA96B",
">X c #E5AD6F",
",X c #F2AB6D",
"<X c #F2AB6D",
"1X c #F0A468",
"2X c #F2AF70",
"3X c #F2B272",
"4X c #F2B974",
/* pixels */
"                                                    @ # # # # # @ # # @ # # # @ @                                               ",
"                                              + @ = D X.=.=.=.=.=.=.=.=.=.=.o.D D * O +                                         ",
"                                              $ $ = F -.8.8.8.8.8.8.8.8.8.8.1.X.X.& $ $                                         ",
"                                          @ &  . .o.<.5.8.8.8.8.8.8.8.8.8.8.6.7.7.X. .F $ +                                     ",
"                                          @ = o.=.5.0.8.8.8.w.w.w.w.w.w.w.8.8.8.8.>.o.| $ @                                     ",
"                                      + = D F 1.1.8.q.i i i i i p p p p p p | 8.8.7.1.-.A Z @ @                                 ",
"                                      @ 9 =.=.8.8.8.w.@ @ @ @ @ @ @ @ @ @ @ j 8.8.6.8.7.X. .@ @                                 ",
"                                      # 9 7.7.8.4.Z A 1 1 1 1 1 1 1 1 1 1 1 r Z Z %.8.5.4.=.@ @                                 ",
"                                    $ * i M.8.b.=.@ @ a y y y w w w y y y y 1 @ @ G 8.6.7.-.* *                                 ",
"                                  + 9 D  .w.3.G C = = a y y y [ (.d.w y y y r < < i G  .6.3.D A & +                             ",
"                                o # i =.>.M.=.$ * y y e e y e `.,X}.w y y w y y y = @ r 8.6.=.o.- #                             ",
"                                o # p 7.%.b t 1 1 y y e y d./.|.<X X/.(.e e y y y r 1 - p Z 7.<.- #                             ",
"                                o @ j 8.$.@ * y y y y e a  X<X,X,X<X<X4Xe y y y y y y 1 @ = w.5.9 #                             ",
"                                o @ C 8.$.@ * e a / ^ ^ ^ +X,X,X,X,X,X3X^ ^ ^ ^ ^ g y 1 @ = w.7.9 #                             ",
"                                X # C 8.$.@ * e L @X=X=X=X:X,X,X,X,X,X<X=X=X=X=X=Xd.y 1 @ = M.7.9 #                             ",
"                                X @ p 8.$.@ & B { &X,X,X,X,X,X,X,X,X,X,X,X,X,X,X,Xk.B u @ = M.7.9 #                             ",
"                                X @ C 8.$.@ n ,X,X,X=X8 n OX<X,X<X,X,X,X,X] n '.,X<X,X).@ = M.7.- #                             ",
"                                o @ C 8.$.@ m ,X,X,X-XO $ |.,X<X<X<X<X,X<XQ # !.,X,X,X).# = M.7.- #                             ",
"                                X # C 8.$.@ n ,X,X<X-X@ * |.,X<X<X<X<X<X<XQ # !.<X,X<X).@ = 8.3.- #                             ",
"                                o # v 7.+.@ m ,X,X,X-X@ $ |.<X<X,X<X<X<X<XQ # !.,X,X,X).# = 5.4.- #                             ",
"                                . @ i -.H @ m #X*X,X:X'.].-X,X,X,X<X<X<X<X}.'.+X,X*XoX/.@ = ;.%.- @                             ",
"                                o # i ;.H @ m XXoX,X,X,X:X-X$X:X,X<X<X-X$X=X,X,X,X#XXX^.@ = ;.o.- #                             ",
"                                o @ i -.F @ m XXoX,X,X,X$X~ 7 }.,X<X2X' 7 _.<X,X,X#XXX^.@ = ;.o.- @                             ",
"                                o # i =.F @ m XXoX,X,X,X@X7 @ '.,X,X2XN @ !.<X,X,X#XXX^.@ = ;.o.- #                             ",
"                                o @ i =.o. .H 7 ~ $X,X,X=X}.'.~ 8 8 8 ~.].OX<X,X,X~.7 b  . .=.o.= @                             ",
"                                o @ i =.=.%.| @ 5 %X3X,X,X,X,X~ # # @ '.,X,X,X3X3X' @ - =.*.=.o.= @                             ",
"                                o @ i =.=.=.X.Z C N N 3X,X,X,X].!.!.!.OX,X,X-X' ! B C D o.*.=.o.= @                             ",
"                                + @ i =.=.=.o.o.H @ o >X=X-X=X-X-X-X-X-X-X-X@XM @ C o.o.o.*.*.o.- @                             ",
"                              + - v | 3.4.=.*.%. .C p ' ' ' ' ' ' ' ' ' ' ' ' S C | o.*.,.4.=.o.D C = o                         ",
"                            o @ 0 X.=.8.5.*.*.*.o.o. .$ @ @ @ @ @ @ @ @ @ @ *  .o.o.o.=.0.6.*.*.o.o.- @                         ",
"                            o @ q o.-.8.6.1.1.,.>.*.o. . . . . . . . . . . . .o.=.-.1.1.8.0.,.,.*.o.- @                         ",
"                            + @ q o.-.8.8.8.8.8.1.=.-.0.8.w.w.w.w.w.w.w.w.8.5.-.=.>.0.0.8.8.0.6.=.o.- @                         ",
"                          . 0 j F >.1.8.8.w.8.8.6.1.,.>.-.D j j j j j j j j D ,.,.5.8.8.8.8.0.6.-.*.D C = +                     ",
"                        + @ Z o.;.8.8.w.w.w.8.8.8.0.5.=.o.= @ @ @ @ @ @ @ @ - 5.6.0.8.8.8.8.8.6.-.=.*.*.- @                     ",
"                        + @ Z o.-.8.8.8.8.8.8.8.-.Z Z p s ( ) t.t.( t.) ) t._ j k  .8.8.8.8.8.0.1.1.=.*.- @                     ",
"                        + @ Z o.-.6.8.8.8.w.w.8.+.@ @ @ < J.W.E.W.E.E.E.E.E.x.$ @ j w.w.w.w.8.8.8.8.-.=.- @                     ",
"                        + @ 9 C Z G G G G H H H k z z z W L.W.h.y.r.y.z.R.Y.G.f d s H H H H G G G G Z C & @                     ",
"                        + @ # $ $ $ $ $ # # $ $ y {.[.[.Q.W.E.f $ $ $ s.E.Y.R.Q.Q.) $ $ $ @ # $ $ $ $ # @ @                     ",
"                        + @ - t t i = @ < f g g E Q.W.W.R.x.j.W f f f E h.J.E.E.E.a.f f f d @ $ t V r r * @                     ",
"                        + @ +.M.M.M.H @ x E.R.E.R.E.E.E.J.1 @ j.Y.Y.Y.a @ a.W.E.E.W.E.E.W.P.@ = 3.M.3.>.9 @                     ",
"                        + @ O.M.b.b.G @ x E.L.z.z.z.z.z.l.< @ j.T.T.Y.a @ t.H.H.G.H.z.H.R.P.@ = g.M.3.>.9 @                     ",
"                        + @ O.M.3.;.Z @ z W.a.$ $ $ $ * $ @ @ f.Z.Z.K.a @ $ * * * * $ 1 J.P.@ = 3.M.3.2.9 @                     ",
"                        o O | 0.3.2.A @ z {.a.; ; ; # # # # @ f.Z.Z.Z.a @ # ; # ; # # < P.I.O & 4.e.>.>.9 @                     ",
"                    o , '.:X,X;X[ + l U.i.o 4 R R T U Y I ; @ +.2.m.Z.a @ P T T T U Y I # + OX:X1X1X,X=Xm @                     ",
"                    + 3 _.*X*X*X} @ l U.i.: 6 U U T T I P , * $.:.v.V.s * P U U T U I P # O +X;X1X:X*X&Xm @                     ",
"                    + 3 _.*X*X*X} @ l F.L.G.p.; 6 R U # , | %.p - 1 r #.g.u ; P T I # : = O +X;X:X:X*X&Xm @                     ",
"                    + 3 _.*X*X*X} @ l Z.U.E.a.@ > R U O & %.2.r @ @ @ :.N.t @ P T P @ & = O  X*X:X:X:X-Xm @                     ",
"                    o 3 _.*X.Xm 3 @ l Z.K.E.J.j.( > 2 j.f.B.V.t @ A $.c.C.j.f.g > h j.f.< @ 2 N  X;X*X&Xm @                     ",
"                    o 3 `.;X}.O @ @ l C.Z.R.Y.T.i.O < U.Z.Z.Z.a @ O.3.V.Z.Z.Z.x @ g K.B.= @ @ 3  X:X;X&Xm @                     ",
"                        N ` ~   + @ l S.Z.E.R.R.a.O = v.m.C.Z.a @ | 2.N.C.m.v.k @ g Y.K.u.@.@ % ! ` ` ` :                       ",
"                        + @ +     @ l S.K.W.E.W.h.o = 3.g.D.Z.s @ | 2.A.Z.v.3.Z @ g R.Y.D.c.O @ # @ @ @                         ",
"                          +       @ s v.c.T.Y.W.H.E E G G c c ( t.K A c c G A K t.h.Y.Y.D.B.Z Z & @ O +                         ",
"                                  @ b :.g.S.K.E.E.E.J.@ @ @ @ a.Q./ @ @ @ @ @ y.W.E.Y.T.Z.D.2.:.- @                             ",
"                                    = v J V.C.K.K.Y.L.t.t.t.t.H.Q.l.t.p.p.) ( z.R.R.Y.K.A.c.v i *                               ",
"                                    @ @ r N.N.V.C.U.U.Y.Y.R.E.W.Q.Q.[.[.[.R.R.Y.Y.Y.T.Z.m.g.@ @                                 ",
"                                    O @ = J J J &.Z.Z.Z.Z.K.U.Y.Y.Y.Y.Y.Y.K.K.K.K.r.@.@.J x @ @                                 ",
"                                    O @ @ @ $ $ t C.C.C.C.C.C.C.C.C.C.C.V.C.C.C.V.@ @ $ @ @ @ @                                 ",
"                                    - i i i r 9 i u.u.u.u.u.u.u.u.u.u.u.u.u.u.u.&.9 9 9 9 & @ +                                 ",
"                                X @ p 7.3.7.-.X.k @ @ @ @ @ @ @ @ @ @ # @ @ @ @ @  .X.X.X.0 @                                   ",
"                                o @ p 4.,.4.=.X.D - & @ @ O + + + + + + @ @ * - - X.o.o.X.i @                                   ",
"                                o @ i o.o.o.X.X.X.o.p @ @               O @ - =.-.>.>.-.=.i @                                   ",
"                                  + 0  . . . .......q + o               O @ =  .X.o.o.o. .0 +                                   ",
"                                    @ # @ @ @ @ @ @ O                   O @ @ # # # # # #                                       ",
"                                      @ @ @ @ O O O +                     O O O O O O O O                                       "
};
