/* XPM */
static char *b04aa275c8db4463d135515fd1933627jftt4DwXxszVL29w[] = {
/* columns rows colors chars-per-pixel */
"64 64 210 2 ",
"   c None",
".  c #151316",
"X  c #1A1417",
"o  c #171418",
"O  c #1C1619",
"+  c #1E181A",
"@  c #100F12",
"#  c #231617",
"$  c #211719",
"%  c #2C1719",
"&  c #23191A",
"*  c #2A191A",
"=  c #331B1A",
"-  c #3A1C1C",
";  c #1F271D",
":  c #29221F",
">  c #212A1F",
",  c #25211E",
"<  c #35231A",
"1  c #3C2219",
"2  c #3F281A",
"3  c #232E21",
"4  c #3A2B24",
"5  c #253724",
"6  c #373F24",
"7  c #431E1C",
"8  c #4C1E1D",
"9  c #571F1E",
"0  c #4C2716",
"q  c #4E2817",
"w  c #442419",
"e  c #4B241C",
"r  c #42291B",
"t  c #4E2918",
"y  c #512917",
"u  c #53211E",
"i  c #5B251F",
"p  c #512A18",
"a  c #5C281E",
"s  c #4D331C",
"d  c #5D331C",
"f  c #58361D",
"g  c #68281F",
"h  c #62351E",
"j  c #62391D",
"k  c #683E1F",
"l  c #70321E",
"z  c #7E3C1F",
"x  c #77381F",
"c  c #5E2520",
"v  c #562220",
"b  c #4A3929",
"n  c #443429",
"m  c #5C3322",
"M  c #513C2C",
"N  c #5E3D23",
"B  c #652420",
"V  c #6A2420",
"C  c #6E2A21",
"Z  c #742722",
"A  c #7B2721",
"S  c #732A21",
"D  c #7B2B22",
"F  c #6C3222",
"G  c #643D25",
"H  c #763321",
"J  c #7F3E20",
"K  c #733920",
"L  c #2C4629",
"P  c #2E532F",
"I  c #335B32",
"U  c #325530",
"Y  c #394225",
"T  c #376236",
"R  c #386537",
"E  c #3A6938",
"W  c #73431F",
"Q  c #7C461F",
"!  c #54402E",
"~  c #6B472C",
"^  c #7D4A20",
"/  c #644B34",
"(  c #644C35",
")  c #714F31",
"_  c #734532",
"`  c #69523B",
"'  c #745131",
"]  c #72593D",
"[  c #7F5B3B",
"{  c #6F5A40",
"}  c #823D1F",
"|  c #842B23",
" . c #8B2B24",
".. c #932C25",
"X. c #9D2E26",
"o. c #8B3324",
"O. c #853822",
"+. c #923324",
"@. c #9E3426",
"#. c #9D3A26",
"$. c #A12F26",
"%. c #A53226",
"&. c #AC3327",
"*. c #A33128",
"=. c #AB3328",
"-. c #A83B28",
";. c #A83925",
":. c #B33626",
">. c #BA3627",
",. c #B23629",
"<. c #B93628",
"1. c #B43A29",
"2. c #BC3B29",
"3. c #B93827",
"4. c #C43B29",
"5. c #CF3D29",
"6. c #CD3E29",
"7. c #CE3C28",
"8. c #CB3B27",
"9. c #D33E2A",
"0. c #D13E2A",
"q. c #D13E29",
"w. c #84441F",
"e. c #83491F",
"r. c #8A4E1F",
"t. c #804920",
"y. c #804720",
"u. c #994B21",
"i. c #8F5321",
"p. c #935422",
"a. c #995220",
"s. c #835B3B",
"d. c #855B38",
"f. c #AB4424",
"g. c #AA4825",
"h. c #B24C25",
"j. c #BE4827",
"k. c #A75923",
"l. c #B65D23",
"z. c #B85624",
"x. c #91663F",
"c. c #BA6423",
"v. c #B46224",
"b. c #C24429",
"n. c #CE412A",
"m. c #CB4C29",
"M. c #CC4E27",
"N. c #D34F27",
"B. c #D2412A",
"V. c #D24E28",
"C. c #CD5328",
"Z. c #CA5825",
"A. c #D45327",
"S. c #DA5327",
"D. c #DE5C26",
"F. c #DB5928",
"G. c #E05E27",
"H. c #C36323",
"J. c #CB6425",
"K. c #CE6D25",
"L. c #D66D25",
"P. c #DB6E25",
"I. c #DF6126",
"U. c #DB7325",
"Y. c #D57326",
"T. c #E16426",
"R. c #E46C26",
"E. c #E67226",
"W. c #E87426",
"Q. c #E97A26",
"!. c #E77A28",
"~. c #826343",
"^. c #8C6642",
"/. c #8D6A49",
"(. c #966943",
"). c #9A754C",
"_. c #98744C",
"`. c #A26E47",
"'. c #A4764A",
"]. c #A57D54",
"[. c #A87F56",
"{. c #BA7A4F",
"}. c #B48253",
"|. c #BB8A5A",
" X c #AD8051",
".X c #BE9261",
"XX c #C38F5B",
"oX c #C18654",
"OX c #CA925E",
"+X c #C5915E",
"@X c #D68B58",
"#X c #E48955",
"$X c #E28655",
"%X c #EA945B",
"&X c #EC995F",
"*X c #CC9761",
"=X c #D99B62",
"-X c #EC9D62",
";X c #DDA369",
":X c #D6A067",
">X c #EDA166",
",X c #E3A66B",
"<X c #E7A86C",
"1X c #E8A56A",
"2X c #F0A669",
"3X c #F2AB6D",
"4X c #F2AB6D",
"5X c #F4B06F",
"6X c #F2AF70",
"7X c #F2B171",
/* pixels */
"                                              . + + X + + X + X + X X X X X                                                     ",
"                                              . X X + + X X X X X + X X X X                                                     ",
"                                          + + Z  ... .@.%.%.%.%.%.%.%.%.%...X X o                                               ",
"                                          - = ..&.,.&.4.6.6.6.6.6.6.6.6.5.3.- - % &                                             ",
"                                      X X ..| <.4.4.4.6.6.6.6.6.6.6.6.6.6.8.%.X.A 8 X                                           ",
"                                      X X $.X.4.6.0.0.0.0.0.0.0.9.0.0.0.0.6.8.<...9 +                                           ",
"                                . X 8 .. .6.8.6.0.e * * * * * * * * * * V 6.6.6.4.&...7 X o                                     ",
"                                o + u %.X.0.6.8.8.7 $ $ $ $ $ $ + + + + B 4.8.8.6.<.%.8 + +                                     ",
"                                o + c 4.4.6.4.i 7 w w w w w w w w w w w = 7 7 g 0.8.4.u + +                                     ",
"                                o + B 6.6.6.4.7 + w t t t t q t p p p 0 * + + 8 6.6.6.u + X                                     ",
"                            . X B ..%.6.6.e 7 w w t t t q q q ~ XX}.m t w w w w 7 o.6.%...i X .                                 ",
"                            . + Z *.,.B.B.X X w q q t t q q q ~ 3X=XG q q t q 1 X D B.<.*.V & X                                 ",
"                            o + | 4.%.u u 1 1 0 q t q t q ~ (.'.3X1X`.d.f q q w = e i @.4.S + X                                 ",
"                            . +  .6.@.+ X p t q q q t q q (.3X3X3X3X3XOXN q q q t = + +.6.D & X                                 ",
"                            o +  .6.@.+ X p q ~ ) ' ' ) )  X3X4X3X3X3X=X[ ' ' N y < + +.0.D & X                                 ",
"                            . +  .6.@.+ X y 0 oX3X3X3X3X3X3X3X3X3X3X3X3X3X3X2Xx.y 1 + +.0.D & X                                 ",
"                            . +  .6.@.+ X d.d.*X4X;X:X<X4X3X3X3X3X3X4X;X:X<X3X}.d.M + +.0.D & X                                 ",
"                            . +  .6.@.+ X 6X3X4X7Xb X /.4X4X3X3X3X4X7Xb X ~.4X3X4X~.+ +.0.D & X                                 ",
"                            . +  .n.@.+ X 4X3X3X7Xb + /.6X4X4X3X3X3X7XM + ~.3X3X3X~.+ +.6.D & X                                 ",
"                            . + | n.%.+ X 4X3X3X5Xb + /.6X4X4X4X4X4X6XM + ~.3X3X3X~.+ +.6.D & X                                 ",
"                            . + D 2.+.+ X 3X3X4X5Xb X /.6X4X4X3X3X4X7XM X ~.3X3X3X~.+ | <.S & X                                 ",
"                            . + Z =. .+ X &X%X2X4X,X;X<X4X4X4X4X3X4X4X,X;X<X4X-X%Xs.+ D &.V & X                                 ",
"                            . + Z =. .+ X %X%X2X4X3X3XXX_.+X4X4X4X|._.*X3X3X4X&X%Xs.+ A %.V $ X                                 ",
"                            . + Z =. .X X %X%X2X3X3X3X^.& /.4X4X4X] & ].3X3X3X&X%X[ + Z %.V & X                                 ",
"                            . + Z =...7 8 `.`.=X3X3X3X_.n { [.[.[.( n }.3X3X3X{.`._ 7 | *.V + X                                 ",
"                            . + Z %.%.*.=.. X |.3X3X3X<X;X( X O + ] ;X<X3X3X3Xb X B *.%.%.V & X                                 ",
"                            . + Z %.%.@.*.+ # _.XX<X3X4X4X` & & & ~.3X3X4X|.|.n + B $.*.*.B + X                                 ",
"                            . + Z %.%.*.*.*...= + .X3X3X3X7X7X7X7X6X3X3X7XX + Z *.$.$.*.%.B & X                                 ",
"                            * = Z *.%.&.&.X...7 % ].OXOXOXOXOXOXOXOXOX+X*X% = Z X.X.$.%.&.Z = *                                 ",
"                        . X V ..X.*.&.8.8.X.X... .4 : : : : : : : : : : , .. .X.X.$.$.>.8.&. .V X X                             ",
"                        . + Z X.X.X.&.6.5.X.X.X...= X X X X X X X X X X X %.X.X.X.X.X.>.5.3.X.Z + X                             ",
"                        . + Z X.<.6.6.6.5.6.6.6.6.6.6.0.0.6.0.0.0.0.6.6.8.$.%.&.6.0.0.0.6.3.X.Z + +                             ",
"                        O & Z X.>.6.6.6.6.5.5.6.6.3.,.,.,.,.,.,.,.,.,.,.&.&.&.,.6.6.6.6.6.>.%.A * &                             ",
"                    X X A %.$.X.>.6.5.6.5.5.5.5.4.7 $ $ $ $ $ $ $ $ $ $ X 0.7.6.6.0.5.6.6.7.7.>.$. .$ .                         ",
"                    X + A $.*.%.>.6.6.6.6.5.8.,.%.e < < < < < < < < < < + ,.&.3.6.6.0.6.5.5.8.>.X. .& .                         ",
"                    X + A *.>.8.5.6.6.6.6.6.%.7 * p.J.J.J.J.J.J.J.J.K.k.= % % u 6.0.6.6.5.5.5.>.$. .& .                         ",
"                    X + A &.4.0.0.0.0.0.0.B.;.- + k.R.R.R.E.E.W.W.E.E.H.< + + 7 n.B.0.0.0.0.6.2.=...& .                         ",
"                    X + + + + + + + + + + + * p.v.L.R.R.R.d # # # Q E.R.H.H.Z.u.O + + + + + + + + + + .                         ",
"                    X + + + + + + + + $ & $ = c.E.E.E.P.W.d O # O W !.W.E.E.R.l.O $ + + + + + + + + + .                         ",
"                    X + H -.-.-.1 + k l.l.c.c.U.E.E.E.d t r.l.l.c.e.t e.E.E.E.P.c.c.c.d + u  .+.-.+.* .                         ",
"                    X + +.n.n.n.e + y.R.R.L.L.L.L.L.L.< + a.R.R.R.w.+ j P.L.L.L.P.P.W.x + c *.,.B.1.- $                         ",
"                    X + +.n.n.n.e + t.E.L.d j j j j j & X u.T.T.T.w.+ < j j j j j j Y.W + - v | B.4.| C . .                     ",
"                    X + +.6.n.B.e + t.E.L.X X X X X X X X u.G.D.T.w.+ X X X X X X X K.W + + + i B.n.,.@.X o                     ",
"                    X + (.#X#X#XoX! < s r I I I I I I > X O.j.m.D.} + 3 L P I I I I s W k.h + G $X$X$X{.+ X                     ",
"                    X + ).>X>X>X>X( X X X E R R T T T > X D 1.b.D.O.+ 3 P I T T R R + z T.J + / >X>X>XOX+ X                     ",
"                    X + ).>X>X>X>X( X f k.3 > I T 5 > F O.C i a h H o.m ; 5 T I 3 > i.z.T.J + / >X>X>XOXX X                     ",
"                    X + _.>X>X>X-X( X e.Q.O X U T ; X +.b.i + + + C b.D + 3 R U + X K.T.G.J + / >X>X-XOXX X                     ",
"                    X + ).>X>X-X^.n + t.W.e.W 6 L K z j.V.+.C e + l V.f.O.~ L Y Q e.U.T.G.J + 4 ~.~.~.] .                       ",
"                    X + _.>X-X-X4 + + ^ R.E.K.2 & z.D.D.D.b.1.S + l D.D.D.u.O r U.W.W.T.G.J + + + + + X                         ",
"                      . ( ^.^.x.m F F k.T.W.K.2 & f.M.F.D.b.2.C + l D.A.M.o.+ r U.Q.W.T.D.J + X . . . @                         ",
"                        . + + + o.m.M.D.D.W.K.r * +.1.A.D.b.1.C + l D.M.2.| + r U.Q.Q.T.D.J + X                                 ",
"                          X X + | 2.m.D.D.R.L.p.^ C C x z S S K t.Q } x C H ^ p.E.E.R.A.M.H + X                                 ",
"                            X + D =.b.D.D.T.R.!.Y.1 + + + + + W Q.i.+ + + j E.E.W.R.D.m.b.S + X                                 ",
"                            . X c D #.C.C.T.T.R.L.j s s s s s p.Q.k.s s s e.R.R.E.R.D.#.o.i X .                                 ",
"                                . + c 1.1.D.D.D.I.T.T.R.E.E.E.W.Q.W.W.W.W.R.D.D.D.D.S.e + +                                     ",
"                                . + e #.+.h.h.h.z.F.I.T.R.R.R.R.E.E.R.E.E.T.D.A.h.h.g.r + +                                     ",
"                                . + + + + + + + * h.S.S.S.S.S.S.S.S.S.A.S.N.V.f.+ + + + + +                                     ",
"                                X & & & & $ $ + & f.C.C.C.C.C.C.C.C.C.C.C.M.M.f.+ $ & & & &                                     ",
"                            . X  .4.4.4.4.X.| % + + X X X X X X X X X X X X + - ,.2.2.2.2.C X .                                 ",
"                            X + A ,.3.>.3...A % + X X X X X X X X o . X + & 7 u %.&.&.&.&.g + X                                 ",
"                            X + Z *.*.$.$.X.A % X                     + + - ....$.$.X.....9 + X                                 ",
"                            . o B  . .| | | V * .                       X -  . . . .| A A 8 . .                                 ",
"                                + & & $ $ $ +                               & & $ $ $ $ & +                                     ",
"                                . X . X X X .                               X X X X X X X                                       "
};
