/* XPM */
static char *l0[] = {
/* columns rows colors chars-per-pixel */
"64 64 223 2 ",
"   c None",
".  c #15131C",
"X  c #1A141D",
"o  c #1A181F",
"O  c #37140C",
"+  c #241416",
"@  c #2A1415",
"#  c #23141B",
"$  c #2C1C1C",
"%  c #29161B",
"&  c #341515",
"*  c #3B1A17",
"=  c #361219",
"-  c #3B1319",
";  c #341C1B",
":  c #391716",
">  c #29231F",
",  c #34231C",
"<  c #191720",
"1  c #1D1B22",
"2  c #151B21",
"3  c #221E25",
"4  c #2B1E21",
"5  c #391F24",
"6  c #162626",
"7  c #1B362D",
"8  c #2C2224",
"9  c #26232A",
"0  c #2B262C",
"q  c #2D292E",
"w  c #222026",
"e  c #382725",
"r  c #2E2B31",
"t  c #312C31",
"y  c #3A373B",
"u  c #441409",
"i  c #4B1509",
"p  c #4E180A",
"a  c #561607",
"s  c #411519",
"d  c #471716",
"f  c #5C1116",
"g  c #531C13",
"h  c #5A1E13",
"j  c #541418",
"k  c #591A18",
"l  c #651C0D",
"z  c #671506",
"x  c #741704",
"c  c #741B07",
"v  c #7B1D06",
"b  c #741C0A",
"n  c #7C1C09",
"m  c #780F13",
"M  c #641215",
"N  c #6C1115",
"B  c #671B17",
"V  c #7B1214",
"C  c #7B1A16",
"Z  c #711F18",
"A  c #741516",
"S  c #610F14",
"D  c #47241B",
"F  c #5B2616",
"G  c #583419",
"H  c #6F210E",
"J  c #73210E",
"K  c #6A2715",
"L  c #782714",
"P  c #6A371B",
"I  c #753718",
"U  c #402924",
"Y  c #492829",
"T  c #49382C",
"R  c #653729",
"E  c #633628",
"W  c #602923",
"Q  c #1B4936",
"!  c #21523C",
"~  c #764A1A",
"^  c #4A4222",
"/  c #6D542F",
"(  c #423F43",
")  c #235C41",
"_  c #2A774D",
"`  c #494547",
"'  c #484548",
"]  c #575455",
"[  c #685B58",
"{  c #6E6968",
"}  c #861C06",
"|  c #931E02",
" . c #9B1E02",
".. c #880F12",
"X. c #900F12",
"o. c #851014",
"O. c #8B1013",
"+. c #881815",
"@. c #941313",
"#. c #9B1614",
"$. c #9D1814",
"%. c #A41E05",
"&. c #AA1E0A",
"*. c #A41A14",
"=. c #AB1D15",
"-. c #A41514",
";. c #B11E14",
":. c #8D2004",
">. c #85250D",
",. c #8C240C",
"<. c #8F2C0E",
"1. c #86290F",
"2. c #942103",
"3. c #9C2305",
"4. c #942A0C",
"5. c #97290C",
"6. c #9C320F",
"7. c #852713",
"8. c #8D3311",
"9. c #873815",
"0. c #9A2F15",
"q. c #A32406",
"w. c #AA2809",
"e. c #B32C06",
"r. c #B52908",
"t. c #BC2E09",
"y. c #B72808",
"u. c #A6360F",
"i. c #BB390B",
"p. c #AC2614",
"a. c #A92815",
"s. c #B52114",
"d. c #BB2315",
"f. c #B32A14",
"g. c #B92B17",
"h. c #AC3715",
"j. c #B0371B",
"k. c #893E21",
"l. c #C61E13",
"z. c #C22D0A",
"x. c #C43106",
"c. c #C33209",
"v. c #CB3409",
"b. c #C93808",
"n. c #D43A09",
"m. c #DA3D0A",
"M. c #D53908",
"N. c #C42616",
"B. c #C82716",
"V. c #C52916",
"C. c #CB2915",
"Z. c #C32F18",
"A. c #D12E16",
"S. c #CD3318",
"D. c #D63114",
"F. c #DA3415",
"G. c #DB3819",
"H. c #E43E19",
"J. c #E13C0A",
"K. c #985A19",
"L. c #8F4B16",
"P. c #BD420E",
"I. c #A84311",
"U. c #AF5313",
"Y. c #B56416",
"T. c #834931",
"R. c #924C2B",
"E. c #AC5832",
"W. c #BD693D",
"Q. c #DC4009",
"!. c #DC480B",
"~. c #D3500D",
"^. c #E34409",
"/. c #EC4C09",
"(. c #E64A0A",
"). c #F14D08",
"_. c #EB5B0C",
"`. c #E7560B",
"'. c #F45409",
"]. c #F5590B",
"[. c #F15107",
"{. c #E6451B",
"}. c #E9451B",
"|. c #E7481D",
" X c #E15D10",
".X c #D57214",
"XX c #ED620E",
"oX c #F5630D",
"OX c #F76B0F",
"+X c #F87C12",
"@X c #F77712",
"#X c #EA7812",
"$X c #CA5F34",
"%X c #D56A39",
"&X c #DD713A",
"*X c #C66C3E",
"=X c #E06F39",
"-X c #E4773C",
";X c #B67345",
":X c #E77D45",
">X c #FA7C45",
",X c #FC7D49",
"<X c #F47A45",
"1X c #DF8317",
"2X c #E98215",
"3X c #F98414",
"4X c #FA8A16",
"5X c #DD9958",
"6X c #D59255",
"7X c #D58B4E",
"8X c #ED8444",
"9X c #E78346",
"0X c #FB824A",
"qX c #F58849",
"wX c #FC8E50",
"eX c #E59B58",
"rX c #FB9453",
"tX c #F69A56",
"yX c #EEA55C",
"uX c #FBA25A",
"iX c #FCAA5F",
"pX c #F3A65D",
"aX c #FCAC61",
/* pixels */
"                                            ] t t t t t t t t t t t t t `                                                       ",
"                                            ] . . < X X X X X X X X X X t                                                       ",
"                                      y ( ( T a.h.j.j.j.j.h.A N M M M N B y ` ` ]                                               ",
"                                      X < < s G.{.}.|.|.|.H.*.@.O.O.O.O.m . X X `                                               ",
"                                  ` ' W K K 7.C.S.S.{.|.|.{.Z.g.g.g.*.@.O.k j j Y ` ]                                           ",
"                                  . . 0.D.F.C.s.=.=.G.|.|.}.}.{.{.}.N.=.=.=.#.@.M X 9                                           ",
"                                y k k B L L L B B B 0.g.Z.S.G.G.H.}.D.N.d.;.*.#.V d s                                           ",
"                              . . Z.F.; . . . . . . s o.#.=.N.A.G.}.H.H.A.d.;.#.@.O.M X 3                                       ",
"                              . . L 7.& @ + + + + + = f V *.d.C.D.G.G.H.A.d.d.*.#.@.M X 1                                       ",
"                              X . . . u a u O u u u @ . j O.=.d.N.B.A.H.A.N.N.N.=.@.M . 3                                       ",
"                              + + + + K 9.p O u u i & + s M +.=.d.B.C.G.C.B.B.B.;.#.A - Y                                       ",
"                          < . p p a p =X>XI u i i i i a @ . f @.=.B.B.B.B.B.B.B.d.=.=.=.C X q                                   ",
"                          < . i a I P :XwXR.K O O i p p & # j V *.B.B.B.C.C.B.B.d.=.=.=.C . q                                   ",
"                          < . p l uXiXaXiXrX:X. X i p p p i @ . Z B.V.C.C.C.C.B.d.=.=.=.C X q                                   ",
"                          < . I R.iXaXaXaXtXtX/ / k.I i i i @ . Z B.V.C.C.C.C.B.d.=.=.=.C X q                                   ",
"                          < . W.wXaXaXaXaXaXiXaXtX>X$Xu i u @ . Z B.V.V.C.C.C.B.d.=.=.=.C X q                                   ",
"                          < . R.;XaXaXiXaXiXpX;X;X<X%XP P P ; . Z N.B.V.C.C.B.B.d.=.=.=.+.= 5                                   ",
"                          < . . < aXaXaXiXiXyX. e rXrXwXwX0XR . Z N.B.V.V.C.C.B.d.=.=.=.$.o.S < 1                               ",
"                          < . X X aXaXaXaXaXyX. e uXuXtXtX0XR . Z N.B.V.C.C.B.d.s.=.=.=.$.o.M < o                               ",
"                          < X . X aXiXaXaXaXyX. e aXaXiXuX>XR X Z N.B.V.C.C.d.=.=.=.=.=.$.o.M X o                               ",
"                          $ 4 8 8 aXaXaXaXaXpX8 Y uXiXuXtX>XR . Z B.B.C.C.V.d.=.=.=.=.=.$.o.M X o                               ",
"                      . X =X&XaXaXiXaXaXaXaXiX0X0X,X,X>X0X>XR . Z B.B.V.d.=.=.=.=.=.=.=.$.o.M X o                               ",
"                      . . -X-XaXaX5XeXaXiX5X5XwXwX,X,X0X:X%XE # C N.N.N.d.=.=.=.=.*.*.*.#.o.M X o                               ",
"                      . . 8X8XaXeX. e iXeXX 3 rXrX,X0X0XT.X B *.=.=.=.=.=.=.=.=.$.O.O.O.O.o.M X o                               ",
"                      1 1 9X9XaXeXX e eX7XX # tXrX,X0X<XT.X B =.=.=.=.=.=.=.=.*.#.O.O.O.O.o.M 1 3                               ",
"                          X $ &X-XpX6X. 8 tXtXiXuX>X*XX j $.*.=.=.=.=.=.=.=.@.O.O.O.O.O.M X 0                                   ",
"                          . 4 qX8XiX5X. 8 uXuXiXuX,X*X. j =.=.=.=.=.=.=.=.=.@.O.O.O.O.O.M X 0                                   ",
"                            [ e U tXtX*X*XqXqX=XE.e D +.$.=.=.=.=.=.=.O.O.O.O.O.O.O.O.O.M X 0                                   ",
"                              . X 9X9X8X8X8X8X%XE.. - =.=.=.=.=.=.=.=.O.O.O.O.O.O.O.O.O.M . 0                                   ",
"                                ] U U U e U U e D N +.B.C.C.C.C.N.=.=.=.#.O.O.O.O.O.O.O.o.m f 1 t                               ",
"                                  . . . . . . . % o.@.C.C.C.C.C.N.=.=.=.#.O.O.O.O.O.O.O.O.O.M X X                               ",
"                                  . X l l . X M N O.#.C.C.C.C.C.C.V.s.=.*.*.*.*.#.O.O.O.O.O.M X X                               ",
"                                  . X %.%.. X o.o.@.-.B.C.C.C.C.C.C.d.=.=.=.=.=.#.O.O.O.O.O.N X X                               ",
"                              . 8 ,.4.v.v.4.1.@ = #.-.=.;.B.C.C.C.C.s.=.=.=.=.=.*.*.@.O.O.O.o.N N < X                           ",
"                              . X x.x.Q.^.M.b.. # @.#.-.=.N.B.C.C.C.s.=.=.=.=.=.=.=.#.O.O.O.O.O.@.. .                           ",
"                              . X m.!.XXXX(.^.4.1.= = - M #.#.#.$.;.=.=.=.=.=.=.$.@.O.O.O.O.O.o.o.. .                           ",
"                              . # ^.`.@X@XoX].M.i.. . . j O.O.O.O.=.=.=.=.=.=.=.#.O.O.O.O.O.O.o.o.. .                           ",
"                          X ; L L F F G G G F F K u.6.4.l - = = = s s s s s s - - - - = - = = = =                               ",
"                          . * b.b.. . . . . . . D /.^.M.K . . . . . . . . . . . . . . . . . . . .                               ",
"                          . % 6.L K F . . M Z 9.I K 8.`.U.L.9.8.8.8.1.1.1.L g . : J H J H J h . . ` y                           ",
"                          . . . X (.b.. . #.t.OXU.. G +X+X+X_.(.(.(.Q.m.n.x.J . h e.e.t.e.e.,.. . . .                           ",
"                      ' [ L L . X oX X. . &.z./.u.. , I I I I L I.XX_.`.!.c.H . h e.t.c.c.x.w.h h g g ] ]                       ",
"                      . ; /.!.. X ].~.. X y.v.'.u.. . . . . . . ~ 4X3X+X Xv.J . h e.t.M.M.M.v.y.y.r.w.. .                       ",
"                      . ; XX X. X 6.8.G P >.,.u.L . 2 6 7 7 2 . ~ 4X@XoX`.Q.4.g h H >.c.v.M.M.c.c.y.r.. .                       ",
"                      . , 4X2X. . . . .X1X. . . . . 6 ) _ _ 7 . ~ 4XOX'.'.[.n.e.J . g t.c.^.m.M.n.c.t.. .                       ",
"                      . , 4X2X. X F g L.K.g h K D . 6 Q ! ) T G K.4XOX'./.^.b.t.>.: g >.<.6.u.u.5.4.>.1 t                       ",
"                      . , 3X2X. # m.c.. . v.M./.h.. . . . . K.4X4X3XoX).m.c.c.c.e.3.l . . . . . . . .                           ",
"                      . , +X#X. # (.~.. . v.J.).h.. . 2 > D Y.3X3X+X_.(.M.c.c.c.e.3.b & & & $ . . t q                           ",
"                      . ; oX_.. # 3X.X. . n.'.3XY.. 6 Q / 4X3X+XOX'.m.c.c.c.c.c.t.q.q.q.q.e.>.. .                               ",
"                      w $ I.I.: d U.L.: ; <.I.Y.L.: > 7 ^ K..XXX_./.n.c.c.c.t.t.e.q.q.q.q.e.>.. .                               ",
"                          X X t.e.. ; m.b.. . . * M.<.. . . 1.n.b.c.c.c.c.c.y.%.q.q.q.q.q.e.>.. .                               ",
"                          9 4 4.4.# d Q.b.X X # * M.4.# # # >.v.c.c.c.c.t.t.r.%.q.q.q.q.3.4.H 1 9                               ",
"                              . . x.x.(./.[.[.'.'.].].].'.[.b.w.w.t.t.t.r.%.%.%.q.q.3.q.J . r                                   ",
"                              . . 5.5.i.i.i.i.i.i.P.P.P.P.P.w.} ,.4.5.5.,.} } } } n n >.l # e                                   ",
"                          . . . . . . . . . . . . . . . . . . . . . . . . . . . . . . . & 2.b . w                               ",
"                        { X X . X . . X X # # # # # # # # # # # # X X X X X X X X . . X : 2.b . 3                               ",
"                      . % e.q.:.:.. X @.@.C.A.D.D.D.D.D.l.C.C.C.C.@.@.X.X.X.X.X.f . : 3.3. .c . 3                               ",
"                      . $ w.3. .3.X # V V a.p.f.f.f.f.f.p.p.p.p.p.o.V V V V V V j X d  . . .c . 3                               ",
"                        { . X | | 2.c . . . . . . . . . . . . . . . . . . . . . s 2.2. . . .c . 3                               ",
"                        { 1 # v v | c . . . . . . 1 1 1 1 1 1 1 1 1 1 1 . . . X d 2.2.| } c l 1 9                               ",
"                            ] . X } | } x x x . 3                       ` . s 2.2.| :.} a . 1                                   ",
"                            ' . + v } x z z z . 3                       y . : } v v c c p . .                                   ",
"                                  . . . . . . . 1                   t . . . . . . . . . 9                                       ",
"                                  . . . . . . . o                   y . . . . . . . . . 9                                       "
};
