/* XPM */
static char *c377ed10b23c4554dafa1faebda0e97b9TuuDyoKbshXHPST[] = {
/* columns rows colors chars-per-pixel */
"64 64 220 2 ",
"   c None",
".  c #15131C",
"X  c #1A151C",
"o  c #19181F",
"O  c #0F131C",
"+  c #3D130B",
"@  c #24141A",
"#  c #2A151A",
"$  c #221A1D",
"%  c #261316",
"&  c #341516",
"*  c #32141A",
"=  c #3B1419",
"-  c #32191A",
";  c #3C1917",
":  c #3B231A",
">  c #3D281B",
",  c #1D1B22",
"<  c #171821",
"1  c #211F25",
"2  c #2A1D23",
"3  c #182827",
"4  c #1B342D",
"5  c #193B31",
"6  c #2D292F",
"7  c #272428",
"8  c #382927",
"9  c #36292A",
"0  c #2F2B31",
"q  c #312E33",
"w  c #373439",
"e  c #39353A",
"r  c #39363A",
"t  c #27332B",
"y  c #451209",
"u  c #4C1408",
"i  c #471207",
"p  c #590F13",
"a  c #570F13",
"s  c #4D1913",
"d  c #441519",
"f  c #4B1419",
"g  c #461816",
"h  c #551216",
"j  c #5C1014",
"k  c #531B14",
"l  c #581B17",
"z  c #581606",
"x  c #631506",
"c  c #6C1A0C",
"v  c #7C1B05",
"b  c #771706",
"n  c #690F14",
"m  c #790F14",
"M  c #621215",
"N  c #6C1114",
"B  c #6D1D1A",
"V  c #721314",
"C  c #7C1114",
"Z  c #7C1915",
"A  c #492318",
"S  c #562419",
"D  c #59361B",
"F  c #6E210E",
"G  c #662515",
"H  c #782712",
"J  c #773918",
"K  c #703014",
"L  c #461F23",
"P  c #552A24",
"I  c #56372A",
"U  c #4C362E",
"Y  c #703E38",
"T  c #1F4536",
"R  c #1A5039",
"E  c #22553D",
"W  c #364830",
"Q  c #72491A",
"!  c #574031",
"~  c #77432C",
"^  c #705232",
"/  c #286B4A",
"(  c #494547",
")  c #585455",
"_  c #615C5B",
"`  c #6C6868",
"'  c #8D1B09",
"]  c #871805",
"[  c #9A150D",
"{  c #941A08",
"}  c #840F13",
"|  c #8A0F13",
" . c #980F16",
".. c #851013",
"X. c #8A1113",
"o. c #831A16",
"O. c #8B1717",
"+. c #951313",
"@. c #9A1514",
"#. c #9D1A14",
"$. c #921D15",
"%. c #A51E06",
"&. c #AA1E07",
"*. c #A21B0A",
"=. c #A81E09",
"-. c #A51B14",
";. c #AB1D15",
":. c #B11E15",
">. c #88230C",
",. c #932206",
"<. c #98290B",
"1. c #972E12",
"2. c #8C3112",
"3. c #A42405",
"4. c #A62A07",
"5. c #AA2906",
"6. c #A32B0B",
"7. c #AB2C0A",
"8. c #AC2309",
"9. c #BA2C07",
"0. c #B4260A",
"q. c #BC290A",
"w. c #B72809",
"e. c #AB350F",
"r. c #BC330A",
"t. c #B5340B",
"y. c #AE2115",
"u. c #B22115",
"i. c #BC2415",
"p. c #BE2816",
"a. c #A43410",
"s. c #A83316",
"d. c #B7381A",
"f. c #953524",
"g. c #C22F09",
"h. c #C53209",
"j. c #CC3409",
"k. c #CB3508",
"l. c #D4350A",
"z. c #D53A0A",
"x. c #DD3E0A",
"c. c #C32616",
"v. c #C42A16",
"b. c #CA2916",
"n. c #D22F16",
"m. c #CB3415",
"M. c #C63517",
"N. c #D43116",
"B. c #DD3B1A",
"V. c #D73617",
"C. c #E13F13",
"Z. c #874D18",
"A. c #995418",
"S. c #AD4410",
"D. c #B14911",
"F. c #B45815",
"G. c #AB5014",
"H. c #B46618",
"J. c #944C2D",
"K. c #834731",
"L. c #935436",
"P. c #B9552D",
"I. c #A95B38",
"U. c #91613D",
"Y. c #AC643C",
"T. c #B16C3F",
"R. c #DA460A",
"E. c #D6550E",
"W. c #CA510E",
"Q. c #E3440B",
"!. c #EB4C0B",
"~. c #E9480A",
"^. c #F24909",
"/. c #EC510A",
"(. c #E95A0D",
"). c #F35309",
"_. c #F35A0B",
"`. c #E6451C",
"'. c #E6441B",
"]. c #E8471D",
"[. c #D66A12",
"{. c #D47616",
"}. c #D37917",
"|. c #EB640E",
" X c #F56A0F",
".X c #F5670D",
"XX c #E66A12",
"oX c #F26910",
"OX c #EC7A13",
"+X c #F57411",
"@X c #F67B13",
"#X c #F87812",
"$X c #D45E30",
"%X c #D26032",
"&X c #E6743B",
"*X c #E87A3E",
"=X c #EA713A",
"-X c #A27348",
";X c #B36E40",
":X c #E87A45",
">X c #F57941",
",X c #FC7C49",
"<X c #FA7945",
"1X c #F98314",
"2X c #FA8D16",
"3X c #F68A18",
"4X c #FA9218",
"5X c #FA9217",
"6X c #EF8016",
"7X c #BC8450",
"8X c #BA824F",
"9X c #C38852",
"0X c #EB8749",
"qX c #FA864C",
"wX c #E79B57",
"eX c #FC9252",
"rX c #FC9F59",
"tX c #FBA45B",
"yX c #FCA95F",
"uX c #FCAC61",
/* pixels */
"                                                w . . . . < X . . . X . X                                                       ",
"                                        ) r r r f.d.d.d.d.$.o.N N N N N M q r r r                                               ",
"                                        r < < X s.'.`.'.'.u.-.X.X...| X.C X X X X                                               ",
"                                    _ ` Y k S S d.'.`.`.'.v.i.#.@.+.X.X...f d = = U _                                           ",
"                                    . . m.B.`.].].`.`.`.'.'.'.b.i.i.-.-.-.-.-.X.| d X X                                         ",
"                                  ) * * s.s.M.m.V.B.B.B.B.B.B.b.c.i.;.;.;.;.;.+.X.h * -                                         ",
"                                X X +.X.. . V X.-.u.b.b.b.b.b.b.b.b.b.u.;.;.;.;.;.@.X.h . 7                                     ",
"                                . X ..C % X j N #.;.c.b.b.b.b.b.b.b.b.i.;.;.;.;.;.@.X.h . .                                     ",
"                                . X x x z + X . V +.;.c.b.b.b.b.b.b.b.b.b.;.;.;.;.@.X.h . .                                     ",
"                                X X F F z + @ X M C #.:.i.b.b.b.b.b.b.b.b.;.;.;.;.@.X.j @ 2                                     ",
"                            . . u u >X=XF u y i X . j X.#.b.b.b.b.b.b.b.b.:.;.;.;.@.X.X.} a . .                                 ",
"                            . . i y >X>XF i y i @ . M X.@.b.b.b.b.b.b.b.b.;.;.;.;.#.X.X.X.p X .                                 ",
"                            . . 0X0XtXtX>X&X; X X . M X.#.b.b.b.b.b.b.b.b.b.b.u.;.;.;.@...p X .                                 ",
"                            . X qXeXtXtX<X>X; X X . M | #.c.i.b.b.b.b.b.b.b.b.u.;.;.;.@...p X .                                 ",
"                            . . tXuXuXuXyXuXtXtXJ u % . d -.-.i.b.b.b.b.b.b.b.u.;.;.;.@.X.j X .                                 ",
"                            . X tXuXuXuXuXuXtXrXJ y @ . d -.-.i.b.b.b.b.b.b.b.u.;.;.;.@.X.j X .                                 ",
"                            . . 8 8 uXuXU 9 9XuXwXwXU . d ;.-.c.b.b.b.b.b.;.;.;.;.;.;.@.X.j X .                                 ",
"                            . . . . uXuX8 . 8XuXuXuX! . d ;.-.c.b.b.b.b.b.;.;.;.;.;.;.@.X.j X .                                 ",
"                            . . . . uXuX8 . 7XuXuXuX! . d -.-.c.b.b.b.u.;.;.;.;.;.;.;.@.X.p X .                                 ",
"                            . . . . uXuX8 . 7XuXuXuXI . d ;.-.c.b.b.b.u.;.;.;.;.;.;.;.@.X.p X .                                 ",
"                        w 0 J.J.-X-XuXuXI.J.:XeXeXeXI . d ;.-.c.b.i.i.;.;.;.;.;.;.-.@.+...j X .                                 ",
"                        . . &X&XuXuXuXyX<X<X<X,X,X<XI . d ;.;.c.b.;.;.;.;.;.;.;.;.@.X.X...p X .                                 ",
"                        . . &X&XuXuX^ ^ qXqX,X,XK.I B Z o.-.-.;.:.;.;.;.;.;.;.;.;.@.X.X...p X .                                 ",
"                        X . *X*XuXuX7 . qXqX,X,XP X Z ;.;.;.;.;.;.;.;.;.;.;.;.;.;.@.X.X...j X .                                 ",
"                        ( r ~ ~ 0X0XU.U.eXeXL.K.G l $.;.;.;.;.;.;.;.;.;.;.@.@.@.+.X...N f L ( (                                 ",
"                            . . 0X0XtXtXeXeXU . o.;.;.;.;.;.;.;.;.;.;.;.;.X.X.X.X.X...f . q                                     ",
"                            w r Y.Y.0X0XT.;XP d $.;.;.;.;.;.;.;.;.;.;.-.#.X.X.X.| | ..j * 8                                     ",
"                                . . %X$X. . Z ;.;.;.;.;.;.;.;.;.;.;.;.+.X.X.X.X.X.X.......j X .                                 ",
"                                , 1 P.P.@ @ o.;.i.v.c.c.i.;.;.;.;.;.;.#.+.X.X.X.X.X.X.....j X .                                 ",
"                                    . . V X.-.:.b.N.N.N.b.;.;.;.;.;.;.;.;.+.X.X.X.X.X.X.X.j X .                                 ",
"                                    . . N ..-.:.b.N.n.N.b.u.y.;.;.;.;.;.;.+.X.X.X.X.X.X.X.j X .                                 ",
"                                    . . X X O.:.b.n.n.N.N.N.b.;.;.;.;.;.;.;.;.;.-.-.-.+.X.} C M , 1                             ",
"                                    X X X X o.#.p.b.n.N.N.N.n.y.y.;.;.;.;.;.;.;.;.-.-.+.X.....N . X                             ",
"                                , X h.h.h.r.# . V +.v.N.N.V.V.N.N.u.;.;.;.;.;.;.;.@.X.X.X.....N . X                             ",
"                                , . x.z.z.k.- $ N ..u.v.b.N.N.N.N.u.;.;.;.-.-.-.-.+.X.X.X.....N . X                             ",
"                                1 .  X.X@X@XR.R.A X X X f X.+.;.;.;.;.;.-.X.X.X...X.X.X.X.X...N . o                             ",
"                                1 . |.|.OXOX!.!.A X X X d ..X.#.#.-.-.#.#...................C N . o                             ",
"                            1 6 X . : : > A E..Xt.6.6.6.G # # # # # # # # @ @ @ @ @ @ @ @ @ @ @ . . , 0                         ",
"                            . . . . . . . X [.+XR.h.h.h.F . . . . . . . . . . . . . . . . . . . . . . .                         ",
"                            . . G.D.. . a.1.S D F.XXXXXXW.S.S.S.S.<.<.# . h V V V V V = . @ o.o.Z V . .                         ",
"                            . . oXoX. . x.z.# . H.2X4X4X#X_._._./.j.j.& . V [ [ [ [ [ f . # :.:.:.-.. .                         ",
"                            . . +X+X. . /.~.a.1.D D D D D G J  X.X~.Q.& . o.8.0.0.8.=.Z M h f f q.6.X .                         ",
"                            . . #X#X. . _.).^.^.g . . . . . : #X+X)./.; . >.9.g.h.q.0.*.+.N . O 9.7.. .                         ",
"                            . . J J Z.Z.J 2.H H 7 4 T T 4 . : @X#X)./.>.F s k t.z.j.h.q.-.N . . 9.4.. .                         ",
"                            . . . . 3X6X. X X X 5 E / / T . : 1X#X).).r.9.# . e.Q.x.x.z.0.c . . 9.4.. .                         ",
"                            . . S S A.A.k l k s t T E E W D J 1X1X).).h.r.k g 2.a.a.a.<.>.k . . 9.7.. .                         ",
"                            . . ~.Q.. . l.j.w.w.; . . . Q 2X2X2X1X).).k.h.w.5.- . . . . . . . . h.7.. .                         ",
"                            . . /.!.. . z.l.q.q.= . < 3 Q 1X1X1X@X~.~.k.h.9.w.s & & & & & * * # 6.1.6 q                         ",
"                            . . 3X3X. . !.~.l.l.; . 5 R Q )._. X(.h.h.h.k.h.j.8.%.3.3.3.%.*.@...< q                             ",
"                            q 7 F.H.* - e.e.<.<.g - 4 5 I D.W.|.(.h.h.h.h.9.9.8.%.%.3.%.*.[  .C X 0                             ",
"                                , . z.k.. . . . 1.z.A . . . ; z.k.h.h.h.h.&.%.%.%.%.%.%.@. .@.} X 0                             ",
"                                w 7 r.r.X X X X 1.R.S X X X g z.k.h.h.g.g.&.&.%.%.%.*.*.@. ...V , r                             ",
"                                    . . 4X4X2X2X1X2X2X4X1X XR.g.g.h.g.&.&.&.%.%.%.[ +. .| N . .                                 ",
"                                    . . }.}.{.}.{.}.{.{.[.E.t.6.4.4.6.' ' ' ' ' ' ..} ..m j . .                                 ",
"                                    . . $ $ $ $ $ $ $ $ $ $ @ X @ @ X X X X X X X X X X X 0                                     ",
"                                    . . X X X X X . . . . . . . . . . . . . . . . . . . X 6                                     ",
"                                , , . . M.m.m.m.p.y.y.y.-.-.#.#.X.} ..........= . l ,.,.' b , X                                 ",
"                                . X . . m.N.N.V.N.i.i.i.u.:.;.;.@.+.+.+.+.+.+.d X c 3.3.{ v . .                                 ",
"                            7 , 7.7.,.>.@ # # # # % % % % % % % @ @ @ @ @ @ @ s ,.3.5.3.] ] b b 7 6                             ",
"                            . . t.t.3.,.. . . . . . . . . . . . . . . . . . . s 3.3.5.3.] ] v v . X                             ",
"                                X X ' { v v v c x x % . q                 X . s 3.3.4.3.] x X X                                 ",
"                                . . ,.,.' ,.' v b b % . w                 , . s 4.4.4.4.v x . .                                 ",
"                                    @ @ @ @ @ @ X @ 7                 , . . . X @ % @ @ X 9                                     ",
"                                    . . . . . . . .                   7 . . . . . . . . . w                                     "
};
