/* XPM */
static char *_8acb9fa7e2d4a14c8c0e2761600f629bWYF9pqVg1kFVcBP[] = {
/* columns rows colors chars-per-pixel */
"64 64 232 2 ",
"   c None",
".  c #15131C",
"X  c #1B151C",
"o  c #1D181D",
"O  c #13151B",
"+  c #39130E",
"@  c #22151B",
"#  c #2A141A",
"$  c #231A1D",
"%  c #2C1A1A",
"&  c #291314",
"*  c #331413",
"=  c #3B1614",
"-  c #35131A",
";  c #3B1419",
":  c #34191A",
">  c #3C1B1A",
",  c #3E1917",
"<  c #37231B",
"1  c #3B201F",
"2  c #3A301F",
"3  c #191720",
"4  c #1C1A22",
"5  c #221D24",
"6  c #2C1C23",
"7  c #172625",
"8  c #17352C",
"9  c #232027",
"0  c #25232A",
"q  c #2A262B",
"w  c #2C272B",
"e  c #382727",
"r  c #322D32",
"t  c #343136",
"y  c #363439",
"u  c #3A363A",
"i  c #3C393D",
"p  c #2F2D31",
"a  c #42140B",
"s  c #4B1509",
"d  c #4B1509",
"f  c #571709",
"g  c #4B1316",
"h  c #4C1C15",
"j  c #43141A",
"k  c #491318",
"l  c #441C1B",
"z  c #4B1A1A",
"x  c #441916",
"c  c #551216",
"v  c #5B1618",
"b  c #591A16",
"n  c #6C1B0D",
"m  c #681B08",
"M  c #721D0C",
"N  c #781C08",
"B  c #6C1215",
"V  c #621A19",
"C  c #6A1E19",
"Z  c #641815",
"A  c #731314",
"S  c #7B1114",
"D  c #7D1916",
"F  c #731B18",
"G  c #730F15",
"H  c #48231A",
"J  c #592717",
"K  c #52321B",
"L  c #7B220E",
"P  c #632314",
"I  c #6D2312",
"U  c #6B2B15",
"Y  c #65271A",
"T  c #7B2311",
"R  c #7C2B14",
"E  c #742616",
"W  c #6A3618",
"Q  c #753518",
"!  c #521F23",
"~  c #4A2B26",
"^  c #572922",
"/  c #4A362A",
"(  c #56392B",
")  c #453638",
"_  c #553D37",
"`  c #673A2A",
"'  c #723826",
"]  c #1E4032",
"[  c #244935",
"{  c #6C411B",
"}  c #764419",
"|  c #7F4117",
" . c #65462C",
".. c #664834",
"X. c #764832",
"o. c #7A563A",
"O. c #6F5037",
"+. c #5E4232",
"@. c #403D41",
"#. c #276E47",
"$. c #4A4649",
"%. c #585455",
"&. c #8C1C04",
"*. c #831A05",
"=. c #921E04",
"-. c #9B1E04",
";. c #961C0B",
":. c #880F13",
">. c #8C1013",
",. c #831A16",
"<. c #861515",
"1. c #931314",
"2. c #9B1614",
"3. c #9C1A14",
"4. c #941A15",
"5. c #A71D06",
"6. c #A41B14",
"7. c #AB1D15",
"8. c #A01714",
"9. c #B11F15",
"0. c #82260F",
"q. c #8C260E",
"w. c #9E2205",
"e. c #9A2E0E",
"r. c #96260C",
"t. c #9E320E",
"y. c #842B11",
"u. c #8B2C11",
"i. c #852416",
"p. c #9D2A15",
"a. c #972516",
"s. c #883515",
"d. c #953612",
"f. c #A32206",
"g. c #AD2B0A",
"h. c #A92709",
"j. c #B52907",
"k. c #BB2D09",
"l. c #B62E09",
"z. c #AC330E",
"x. c #A5370F",
"c. c #BE3109",
"v. c #B4340B",
"b. c #A72816",
"n. c #B52115",
"m. c #BB2415",
"M. c #BA2B15",
"N. c #A83B11",
"B. c #873E20",
"V. c #C43109",
"C. c #CD3609",
"Z. c #CB3A0A",
"A. c #D23A0A",
"S. c #DB3C0A",
"D. c #D23609",
"F. c #C32615",
"G. c #C32B15",
"H. c #CC2A15",
"J. c #CA2715",
"K. c #D12C15",
"L. c #D12D15",
"P. c #C53417",
"I. c #D63216",
"U. c #DC3416",
"Y. c #D43D18",
"T. c #C12F09",
"R. c #E23C18",
"E. c #E13F0B",
"W. c #864517",
"Q. c #9F5C18",
"!. c #B9440F",
"~. c #A24212",
"^. c #B64711",
"/. c #B95B15",
"(. c #875638",
"). c #974E2F",
"_. c #A65937",
"`. c #AF502A",
"'. c #B36A3E",
"]. c #BD6B17",
"[. c #C7430D",
"{. c #DB410B",
"}. c #DC4C0B",
"|. c #D3470B",
" X c #D9530D",
".X c #D45D11",
"XX c #C35912",
"oX c #E34B0B",
"OX c #EC4A0A",
"+X c #E7440A",
"@X c #EC5A0D",
"#X c #E8530C",
"$X c #F3590B",
"%X c #F24B08",
"&X c #DA7416",
"*X c #CF6814",
"=X c #F6680E",
"-X c #ED7E15",
";X c #EA7613",
":X c #F57311",
">X c #F87814",
",X c #E76910",
"<X c #C05F3A",
"1X c #C4693C",
"2X c #D56D3E",
"3X c #BC7C49",
"4X c #A56E44",
"5X c #C97946",
"6X c #D97943",
"7X c #E87742",
"8X c #FA7845",
"9X c #F08316",
"0X c #BC824E",
"qX c #C4854E",
"wX c #D8854D",
"eX c #CC8D54",
"rX c #C48751",
"tX c #DB9456",
"yX c #D69457",
"uX c #DE8E51",
"iX c #E5854B",
"pX c #E69A58",
"aX c #FB9555",
"sX c #F39A56",
"dX c #FB9C58",
"fX c #F69754",
"gX c #F68D4E",
"hX c #F3A55E",
"jX c #FCA45D",
"kX c #FCA85F",
"lX c #EEA35E",
"zX c #FCAC61",
/* pixels */
"                                                    O . . . . . . . . . . . . X                                                 ",
"                                                    . . . . . . . . . . . . . X 5                                               ",
"                                              o X 5 Z D ,.,.,.,.,.,.a.b.b.b.M.b.Y X 9 i                                         ",
"                                              4 . o D 6.6.6.6.6.6.6.F.I.U.U.U.P.Y X 9 i                                         ",
"                                          %._ v v V 4.6.9.n.n.F.F.F.H.H.F.F.F.M.a.E E ` %.%.                                    ",
"                                          9 z 4.3.6.6.7.n.F.J.I.U.U.K.F.n.7.7.n.P.Y.P.s.5 q                                     ",
"                                      4 ) V D 6.7.7.9.n.F.J.H.L.I.I.m.3.A v v v I E E Y C b 9                                   ",
"                                      3 6 4.6.7.7.7.n.F.J.J.H.K.K.H.7.S k @ @ @ @ @ @ z 6.,.4 y                                 ",
"                                  r ) v Z 6.7.7.9.n.F.H.K.H.K.K.H.m.D g = * = * * * * = b v V ! 5                               ",
"                                9 4 > >.>.6.7.7.n.F.H.H.K.K.K.K.F.n.V # + d d a a a s + @ ; 4.B 4 $.                            ",
"                                5 X - 1.2.7.7.7.n.H.H.K.K.K.K.K.b.F k * a f f f s f R J . # Z j 4 $.                            ",
"                                4 X - 2.8.7.7.7.n.H.K.K.K.K.K.H.i.; = a d f f f s E `.W.. X * * 4 $.                            ",
"                                4 X - 8.6.7.7.n.F.H.K.K.K.K.b.i.b = a d a a a h E `.7X5XO. .+ * 4 $.                            ",
"                                5 X ; 6.7.7.7.F.H.K.K.K.K.K.E : = a d a * & @ H ).7XsXsXtX3X+ * 4 $.                            ",
"                              q : j v 6.7.7.9.H.K.K.K.K.K.K.C @ * d d f Y `  .(.5XaXzXzXzXpX' ^ 4 $.                            ",
"                            o 5 j G <.6.7.7.9.H.K.K.K.K.K.K.C @ * d d U `.6XwXuXsXkXzXzXzXhX6X_.4 $.                            ",
"                            . o g :.>.6.7.7.7.F.H.K.K.K.K.K.C @ H Q B.).6XiX5X3XpXzXzXzXzXlX4X(.4 $.                            ",
"                            . o g >.>.7.7.7.7.9.n.H.K.K.K.K.I @ ` 1X6XiXsXqXO...rXzXzXzXzXyXe e 4 $.                            ",
"                            O o k >.>.6.6.7.7.7.n.H.K.K.I.I.I @ X.wXaXdXkXqX( / 0XzXzXzXzXeX. . 4 $.                            ",
"                            O o g >.>.1.1.6.7.7.n.H.K.K.K.K.I @ o.pXkXkXzXqX( / 0XzXzXzXzXeX. . 4 $.                            ",
"                            O o k >.>.>.>.6.7.7.n.F.H.H.H.H.C @ o.pXjXdXaX5Xo.o.eXzXzXzXzXyX/ / ~ _                             ",
"                            . o k >.>.>.>.6.7.7.7.n.m.F.F.F.V @ o.pXaX8X8X7XwXyXlXzXzXzXzXhXeX5X<X( q                           ",
"                            . 5 j A S >.>.3.6.7.7.7.n.m.F.m.F ; X.3XiX8X8X8XdXhXyXeXhXpXqXeXhXaX7X` .                           ",
"                                e # g >.>.1.1.6.7.7.7.7.9.9.3.4.Y ( _.8X8X8XdXyXo...tX0Xw _ tXaX7X` X                           ",
"                                p X - >.>.>.>.6.6.7.7.7.7.7.7.7.F l ).2X7XgXdXtXo...0X4Xe +.tXuX1X( X                           ",
"                                t X - >.>.>.>.>.2.7.7.7.7.7.7.7.3.<.Y ` 1XgXdXhXtX4X( ..5XwXiX'.~ )                             ",
"                                t X - >.>.>.>.>.1.6.7.7.7.7.7.7.7.3.v ~ _.iXsXjXkXqX/  .fXfX5X(.5 )                             ",
"                                r X - >.>.>.>.>.>.1.2.7.7.7.7.7.6.2.S Z ^ X.5XgXfXiX1X1X7X'./ _                                 ",
"                                r @ ; >.>.>.>.>.>.>.2.7.7.7.7.9.7.3.1.S j ~ _.6X6X6X6X2X1X_.4 u                                 ",
"                            q r ! A S >.>.>.>.>.1.6.6.7.7.7.m.H.H.H.F.n.<.Z l e e e e e e e                                     ",
"                            . o k >.>.>.>.>.>.>.2.7.7.7.7.7.F.K.L.K.K.m.3.B - X . . X X . 4                                     ",
"                            . o k >.>.>.>.>.1.8.6.7.7.7.n.I.R.R.U.I.F.7.6.>.S v - : T P . 4                                     ",
"                            X o k >.>.>.>.>.1.6.6.7.7.7.n.I.R.R.U.I.m.7.6.2.>.B - , r.0.. 5                                     ",
"                        y e z B S >.>.>.>.>.>.>.2.6.7.7.7.n.m.m.n.n.7.4.v : - z y.z.|.[.e.s.u $.                                ",
"                        0 @ c >.>.>.>.>.>.>.>.>.1.6.7.7.7.7.7.7.7.7.7.<.j X X l z.OX$X#XS.z.4 y                                 ",
"                        9 @ c >.>.>.>.>.>.>.>.>.>.1.1.6.7.7.2.>.B j ; z 0.x.^.XX,X>X>X:X$X Xe.Y 4 t                             ",
"                        5 @ c >.>.>.>.>.>.>.>.>.>.>.>.3.6.6.>.:.c # X , e.|. X.X*X&X&X&X.X XZ.E 4 t                             ",
"                            6 # # # # # # # # # # # # # % # # # P e.z.v.|.!.Y < < < < < < J }.R 3 t                             ",
"                            . . . . . . . . . . . . . . . . . . P v.C.A.oX!.H . . . . . . H  Xs.4 t                             ",
"                          4 @ c Z I I L M n g X = n T y.u.u.u.d.!.}.oX[.s.J I u.u.P # > u.y.U Q s.` 4                           ",
"                          4 @ A ;.g.g.g.g.-.n X h ;.k.V.C.C.|. X#X@X@X^.J : y.{.A.p.: H {.N.% W .XQ 3 4                         ",
"                          4 # q.l.T.V.D.D.j.L X b g.D.+X#X@X~.U U U U J % % d.OX+Xz.> K :X/.o W ;X} X 4                         ",
"                          9 # r.V.V.V.S.S.l.L X b k.{.OX=X:XW.% X X o X . : d.#X+Xz.> K 9X].$ { -X} . 4                         ",
"                    u u ~ R q.l.V.D.S.S.S.V.0.@ P A.OX%X=X:XW.$ 8 ] [ ] 7 @ H U Y Q W.W.W K $ { -X} X 4                         ",
"                    p q l g.V.V.V.S.E.E.S.V.0.@ U }.%X%X=X:X| $ ] #.#.#.8 . . X X K *XQ.. . $ { -X} X 4                         ",
"                    0 9 , g.V.V.V.C.D.C.V.T P I t.oX%X%X$X:X/.W.( [ ] 8 7 @ h I I U } Q R J o { -X} X 4                         ",
"                    0 9 , g.c.c.k.c.k.k.g.% x g.A.OXOX%X$X:X;X,XW.: . . O % T V.k.r.: H A.t.o { 9X} X 4                         ",
"                      q 1 P I I I I I I Z h n c.C.S.S.S.oX$X=X:XXXs.2 7 O % u.S.D.h.: h {.z.o { -X} X 4                         ",
"                          o X X X @ @ X @ N r.T.V.V.V.V.S.OX$X=X=X.X .8 7 : u.+XS.h.: h {.z.o W ;X} 4 5                         ",
"                            X 4 X x b b Z =.f.j.k.T.V.V.C.S.}.}.^.W./ 7 H I I R R E P P R E U Q W.( 4                           ",
"                              t @ n 5.5.h.5.f.f.g.k.V.V.V.V.V.V.T # O % u.z.h O O > e.y.O , [.s.3 u                             ",
"                                5 ^ n ;.5.f.f.f.h.j.j.j.k.V.V.V.e.U U Q !.[.s.U U R z.e.b J s.' 9                               ",
"                                  y X A 5.-.-.w.w.w.f.f.h.k.c.c.Z.}.#X@X@X@X@X@X@XoXZ.c.l.q.4 u                                 ",
"                                  q X c n n n n n M M M L 0.0.0.d.t.N.~.~.~.~.~.~.d.u.0.T I 4                                   ",
"                              y 9 4 X X X X X X X X X X X X X X o o o @ @ @ @ @ @ o o o o 9                                     ",
"                              r X * * * * @ . . @ - - - - ; ; ; j ; j z z z z z z z z ; . 9                                     ",
"                              r $ N *.&.&.= X . ; A :.:.>.3.6.6.6.6.b.M.G.G.G.G.G.M.M.i.X o 5 4 4 i                             ",
"                              i r n N &.=.f = = g Z B B A D ,.,.,.,.q.p.p.p.b.p.p.p.p.T x x = % 4 @.                            ",
"                                  4 X N =.-.-.w.n @ O O O . . . . . . . . . O O . . . = w.f.&.n 4 @.                            ",
"                                  . X n N &.=.=.n * X . 4 9 0 0 0 0 0 0 0 9 4 X & * = h =.=.n b 4 $.                            ",
"                                  . . . X m m N N m a X 0                   q # f &.w.-.*.n 4 u                                 ",
"                                  0 0 4 X f f m m f x w t                   q # f N *.N n Z r $.                                ",
"                                      y . X X X X X u                       q . X X X X o w                                     ",
"                                      y . . . . . . t                       0 . . O . . . 9                                     "
};
