/* XPM */
static char *becf0c8dd4fe4dc7b38f7887f569b45epHapZojqQOAaB9zR[] = {
/* columns rows colors chars-per-pixel */
"64 64 229 2 ",
"   c None",
".  c #15131D",
"X  c #1A151D",
"o  c #1E181E",
"O  c #3C130A",
"+  c #33120D",
"@  c #2B1414",
"#  c #23131A",
"$  c #2B151A",
"%  c #23191C",
"&  c #261718",
"*  c #34131A",
"=  c #3E1219",
"-  c #311B1B",
";  c #381918",
":  c #2E110F",
">  c #2E201C",
",  c #37251C",
"<  c #1C1A21",
"1  c #181920",
"2  c #211E25",
"3  c #2C1C20",
"4  c #3B1F25",
"5  c #192A29",
"6  c #1D362E",
"7  c #232127",
"8  c #252329",
"9  c #2A272D",
"0  c #2D2223",
"q  c #352524",
"w  c #3A2E2A",
"e  c #382928",
"r  c #312E33",
"t  c #39363A",
"y  c #3C393D",
"u  c #363337",
"i  c #29352A",
"p  c #43140A",
"a  c #4A1509",
"s  c #541406",
"d  c #54190C",
"f  c #591609",
"g  c #4A1514",
"h  c #431319",
"j  c #4D1318",
"k  c #471915",
"l  c #511C14",
"z  c #541619",
"x  c #5C1E19",
"c  c #581415",
"v  c #4E0F19",
"b  c #6E1B05",
"n  c #67190A",
"m  c #751903",
"M  c #7C1A09",
"N  c #790F12",
"B  c #651315",
"V  c #6C1316",
"C  c #641A11",
"Z  c #691C13",
"A  c #641819",
"S  c #731314",
"D  c #7C1114",
"F  c #751816",
"G  c #7C1B17",
"H  c #4B2418",
"J  c #592315",
"K  c #5C2119",
"L  c #562817",
"P  c #58331A",
"I  c #6C230F",
"U  c #7B220D",
"Y  c #74230F",
"T  c #6A2113",
"R  c #642515",
"E  c #742312",
"W  c #7B2512",
"Q  c #7B2D13",
"!  c #722717",
"~  c #663517",
"^  c #773A17",
"/  c #492624",
"(  c #542926",
")  c #543228",
"_  c #563428",
"`  c #4D3735",
"'  c #1C4335",
"]  c #21573E",
"[  c #214737",
"{  c #6E441C",
"}  c #5B4534",
"|  c #76462F",
" . c #3E3C40",
".. c #423F42",
"X. c #255E43",
"o. c #2C7B50",
"O. c #454245",
"+. c #4B4749",
"@. c #4C484A",
"#. c #514E4F",
"$. c #584D4F",
"%. c #5D5A5B",
"&. c #585454",
"*. c #584F50",
"=. c #625151",
"-. c #666262",
";. c #8B1B03",
":. c #851D0A",
">. c #9A1B04",
",. c #860F13",
"<. c #861013",
"1. c #8B1113",
"2. c #8B1E16",
"3. c #941413",
"4. c #9A1514",
"5. c #9D1914",
"6. c #940F12",
"7. c #AA1C0A",
"8. c #A51A08",
"9. c #A51B15",
"0. c #AB1D15",
"q. c #A11712",
"w. c #B31F14",
"e. c #88240C",
"r. c #982A0D",
"t. c #842D12",
"y. c #892D19",
"u. c #892915",
"i. c #962915",
"p. c #8B3111",
"a. c #8D3D14",
"s. c #843514",
"d. c #943A12",
"f. c #A32206",
"g. c #AE2407",
"h. c #AA2A06",
"j. c #AB2709",
"k. c #B42B0A",
"l. c #BD2D0A",
"z. c #B32409",
"x. c #AB320D",
"c. c #BB340B",
"v. c #B4340C",
"b. c #A22A14",
"n. c #AC2115",
"m. c #B42115",
"M. c #BD2415",
"N. c #A33810",
"B. c #C22E09",
"V. c #C5320A",
"C. c #CA3409",
"Z. c #C83B0C",
"A. c #D4350A",
"S. c #D33B0A",
"D. c #DB3D0A",
"F. c #DF370B",
"G. c #C42415",
"H. c #C92615",
"J. c #CB2A15",
"K. c #C52A15",
"L. c #D32D15",
"P. c #D92E15",
"I. c #DA3115",
"U. c #D73215",
"Y. c #E33D0A",
"T. c #E23315",
"R. c #EA3613",
"E. c #E33D16",
"W. c #E33E18",
"Q. c #8F4215",
"!. c #974513",
"~. c #9C5617",
"^. c #B9430F",
"/. c #A54812",
"(. c #B24511",
"). c #B74A10",
"_. c #B96517",
"`. c #DD420A",
"'. c #D44C0E",
"]. c #DC5A0D",
"[. c #CC510E",
"{. c #E5430A",
"}. c #EB440A",
"|. c #ED4C0B",
" X c #E04107",
".X c #F24C0B",
"XX c #F1470A",
"oX c #E9560C",
"OX c #F3530A",
"+X c #F55C0B",
"@X c #E44019",
"#X c #D86512",
"$X c #CF7217",
"%X c #D56712",
"&X c #F6650D",
"*X c #F76B0F",
"=X c #E66610",
"-X c #F36C10",
";X c #E17B15",
":X c #E87513",
">X c #F67411",
",X c #F87411",
"<X c #EE6C0F",
"1X c #E7723C",
"2X c #F0713E",
"3X c #B17144",
"4X c #DD7944",
"5X c #E77844",
"6X c #F97743",
"7X c #EA8215",
"8X c #FA8B16",
"9X c #F98515",
"0X c #DC9556",
"qX c #D99859",
"wX c #D2894F",
"eX c #EB8446",
"rX c #E48145",
"tX c #FB834A",
"yX c #FC8A4E",
"uX c #F58548",
"iX c #FD8D51",
"pX c #E59957",
"aX c #FC9E59",
"sX c #F99A56",
"dX c #E18F53",
"fX c #FBA55D",
"gX c #FBA95E",
"hX c #F3A55D",
"jX c #FCAC61",
/* pixels */
"                                                        X . . . . X . . . . . . .                                               ",
"                                                        X X . X X X . . . . . . X +.                                            ",
"                                                X X X / F F F F B B i.i.b.b.b.b.b./ < 2 7                                       ",
"                                                1 X X h 9.0.0.0.3.1.L.P.R.R.R.R.R.l X X .                                       ",
"                                            #.$.A A A G w.M.G.G.m.n.L.L.J.J.J.J.J.W T ! T %.&.                                  ",
"                                            . j G.G.G.G.G.L.T.T.T.T.I.L.9.9.9.9.9.G.T.E.U.. 2                                   ",
"                                        O.- = A G.G.G.G.G.L.T.T.T.I.M.n.V V V V V u.u.i.y.x K                                   ",
"                                        X = 1.5.G.G.G.G.G.L.T.T.T.L.<.V . . . . . . . . . U.K.# r                               ",
"                                        < = 3.9.G.G.G.G.G.J.L.J.m.9.c g @ @ @ @ @ @ @ @ @ ! T . 8                               ",
"                                        < h 0.w.G.G.G.H.H.G.G.w.<.S . # a a a p p a a s s . . . X                               ",
"                                    -.$.$ z 0.w.G.G.G.G.H.H.G.0.B z X @ s s s s a p p I I X X @ ; -.-.                          ",
"                                  &.X $ <.1.0.w.G.G.G.G.G.G.G.2.. # a a s f f f a O O 1X1XX # :.:.. <                           ",
"                                  #.X $ 3.3.0.w.M.G.G.H.H.n.2.Z # @ a p p a a a d R J uXuX` ) n n X 2                           ",
"                                  #.X $ 0.0.0.0.0.m.J.J.J.x X # p O a p . X . X _ 6X2XfXgXgX0XX X X 2                           ",
"                                  #.X $ 0.0.0.0.0.m.J.J.J.x X # O O p O X q q w | uX6XgXjXjXpXw q X 2                           ",
"                                    X $ 0.0.0.0.0.m.J.J.J.x X # p O : + p 1XtXsXaXjXjXjXjXjXgXtX4XX 2                           ",
"                                  +.X $ 0.0.0.0.0.m.J.G.G.x X & L J L L J 5XeXwXwXjXjXjXjXjXhX3X3XX 7                           ",
"                                    X $ 0.0.0.0.0.m.J.n.0.z X ) tXyXgXgXaXjX0X. w jXjXjXjXjXqX< X X 7                           ",
"                                  +.X $ 0.0.0.0.0.m.M.0.0.z X ) yXiXgXgXfXjX0X. w jXjXjXjXjXqXo X X 7                           ",
"                                  #.X $ 0.0.0.0.0.0.0.0.0.z X ) yXiXjXjXjXjX0X. w jXjXjXjXjXqXo X X 7                           ",
"                                    X $ 9.0.0.0.0.0.0.0.0.z X ) yXiXgXgXfXfXdXw } jXjXjXjXjXpXq 0 X 2                           ",
"                                    X # <.3.0.0.0.0.0.0.0.z X ) yXiXaXtX6XtXtXjXjXjXjXjXjXjXgX6X4X2 2                           ",
"                                    X # <.3.0.0.0.0.0.0.0.z X ( 5X5XaXtX6XyXiXjXjXqXwXgXjXqXqXtX5Xo 2                           ",
"                                    X # <.3.0.0.0.0.0.0.0.9.5.F 3 / 6X6X6XyXiXjXjXe X sXpX. 0 5X5Xo 2                           ",
"                                    X # <.3.0.0.0.0.0.0.0.0.9.D X ; 2X5X6XyXiXjXjXw X pX0X2 q 5X5XX <                           ",
"                              O.9 4 D D <.<.1.3.0.0.0.0.0.0.0.5.D V 3 ) tXsXaXjXjXpX0Xq 0 wXwXq e                               ",
"                              y X * 1.1.1.<.<.3.0.0.0.0.0.0.0.9.1.S . / uXsXaXgXjXjXgXX . pXwX< 9                               ",
"                              y X * 3.1.1.<.<.<.<.5.0.0.0.m.J.J.m.0.<.V . . . eXuXuXuXeXeX. 7                                   ",
"                              y X * 1.<.<.<.<.<.1.5.0.0.0.M.I.U.m.w.<.S . X . rXeXeXeXeX4XX 9                                   ",
"                              y X * 1.<.<.3.9.9.9.0.0.0.0.M.I.I.L.L.w.9.N S N X X X X X X X 9                                   ",
"                              u X * 1.<.1.3.0.0.0.0.0.0.0.M.U.I.P.L.m.0.<.D D X X . X X X X 9                                   ",
"                          %.O.( S D 1.1.9.0.0.0.0.0.0.m.L.L.L.L.J.J.0.q.<.= $ :.:.. X V B X 9                                   ",
"                          ..X j 1.1.1.3.0.0.0.0.0.0.0.m.L.L.L.L.H.G.0.5.<.$ X g.z.& # <.<.X 8                                   ",
"                          ..X j 1.1.1.3.0.0.0.0.0.0.M.G.L.L.L.H.9.5.V c $ t.c.`. X%X%X$ $ B B 9 9                               ",
"                          ..X j 1.1.1.3.0.0.0.0.0.w.G.H.L.J.J.M.5.1.v = . N.}.OXOX*X-X. X <.<.# 8                               ",
"                          ..X j 1.1.1.<.1.3.0.0.0.9.3.5.0.G $ $ # * b.k.x.].&X9X8X>X>XZ.[.$ * X < u 7                           ",
"                          O.X j <.<.<.<.<.1.9.9.9.5.1.1.5.F . . . $ V.C.C.].=X7X7X:X:X{.|.X X X X X <                           ",
"                      #.u 8 X X # # # # # # & & # # # # # k x.x.v.c.|.|.'.- % % % % % $X8X'.(.. X X <                           ",
"                      t X X X X X X . . . X . X . . . X . k S.S.S.S.OXOX'.& . X . X X $X8X+X=Xd.^ X <                           ",
"                      t X j V S M M M l . * M U e.R X ; N.^.oXoXoX^.L L H E i.X . p.d.L P >X>X&X].o <                           ",
"                      t X B 4.q.g.g.g.Z . k f.z.V.e.. H |.OX&X&X&X).. . . r.{.X . S.|.X . :X>X&X].o <                           ",
"                      t X B 5.7.V.B.l.Y . k g.l.C.v.p.Q J R ~ ~ ~ H . l l.D.|.& . ].&XZ.v.P ~ :X;X% <                           ",
"                      t X B q.z.C.V.V.Y . l l.C.A.S..X(.. . . . . X . x A.{..X$ . =X,X.X{.X > 7X;X% <                           ",
"                      t X E k.l.S.C.V.Y . J S.D.{.}.OX(.. 1 ' ' ] [ . $ l J J d./.P P L J X > 7X;Xo <                           ",
"                      u 1 W V.V.D.S.c.Y . R  X{..X.XOX(.X 5 ] X.o.X.. . . . . =X,X% . . . X > 7X;Xo <                           ",
"                      t 1 W B.V.C.r.l l E r.D. X+X&X*X#X~.{ 5 5 6 5 X * B E W L P W t.u.u.X - 7X;Xo <                           ",
"                      t X W l.V.B.E . ; V.C.A.`.&X>X8X8X9X_.. . . X X g q.B.A.. . l.A.Y.F.X > 7X;Xo <                           ",
"                      &.y ) R T T l g C V.C.A.`.+X&X,X,X8X$X^ ^ 6 5 . J S.Y.}.X . Z.{.}.{.X - :X#Xo <                           ",
"                          y X X X * >.>.C.C.C.D.OXOX+X*X8X9X*X#X] ' . R .X.X.X# . `..XXX{.X - oX].% <                           ",
"                           .X $ z B 8.8.V.C.C.C.D.`.OX+X<X#Xs.^ 6 i ^ ^ Q Q Q ! R Q s.t.Q ~ ^ s.^ e +.                          ",
"                          y X h 6.4.8.7.V.V.V.B.B.C.XX}.}.v.. . . , >X!.. . . oX'.. . . . =X#X. <                               ",
"                            r w = c 8.8.g.g.g.g.z.k.V.V.A.Z.d.Q.d./.>X%XQ.d.d.+XoXp.p.p.p.~ ^ *.%.                              ",
"                              @.X * 8.8.8.8.f.f.g.g.g.k.V.S.+X&X&X&X*X*X&X|.|.+XOX{.{.{.{.X 8                                   ",
"                                y ` B C C C C C Z C C Z E Q a.a.Q.a.Q.a.a.p.p.a.p.t.t.t.t.8 8                                   ",
"                                    X . . . . . . . . . . . . . . . . . . . . . . . . . X                                       ",
"                                t ` k g g g k $ . # h h h j x x x x K K x x x x K X . . X                                       ",
"                              O.X * >.>.>.>.;.d . * 1.3.3.m.E.W.@XW.@X@XW.E.E.E.E.- . . X X X X 2                               ",
"                              +.X @ >.;.;.;.M n p g c c c Z y.y.y.y.y.y.y.y.y.y.y.% X R C T x X 2                               ",
"                              O.X & ;.;.;.;.M M m n . . . . . . . . . . . . . . . . - c.v.k.h.. <                               ",
"                                   .X X f n m m m n # X . 2 t y y y t y t 1 X ; k k l h.h.r.e.7 <                               ",
"                                  %.X . . * b b b b b n . y               2 . e.h.f.h.h.h.X 9                                   ",
"                                    9 r . @ d d d d d a . y               < . C U U U U U 9 u                                   ",
"                                        . . . . . . . . X  .              < . . . . . X .                                       ",
"                                        . . . . . . . . X y               2 . . . . X X .                                       "
};
