/* XPM */
static char *_b7532067c8e4199fbe7b3b674248bb6bVMaF0DRSAzNgfN5[] = {
/* columns rows colors chars-per-pixel */
"64 64 226 2 ",
"   c None",
".  c #15131D",
"X  c #1A151D",
"o  c #1B171D",
"O  c #3D120A",
"+  c #33130F",
"@  c #211316",
"#  c #23141B",
"$  c #2C151A",
"%  c #26191C",
"&  c #2C1C1C",
"*  c #2A1314",
"=  c #341515",
"-  c #3B1414",
";  c #33151A",
":  c #3C1419",
">  c #341819",
",  c #3B1A19",
"<  c #371815",
"1  c #3C221A",
"2  c #181720",
"3  c #1B1921",
"4  c #171D22",
"5  c #231E23",
"6  c #331C20",
"7  c #1A2626",
"8  c #1A322D",
"9  c #26242A",
"0  c #282429",
"q  c #2F2C32",
"w  c #302D33",
"e  c #3A363A",
"r  c #3A363A",
"t  c #342E28",
"y  c #43140A",
"u  c #4B1509",
"i  c #4B1507",
"p  c #531708",
"a  c #541D0E",
"s  c #551607",
"d  c #451B15",
"f  c #4B1B14",
"g  c #4B1519",
"h  c #451617",
"j  c #5D1215",
"k  c #541A13",
"l  c #591D19",
"z  c #551917",
"x  c #67190A",
"c  c #781B08",
"v  c #7C0F13",
"b  c #641413",
"n  c #6C1315",
"m  c #601B10",
"M  c #651A16",
"N  c #731114",
"B  c #751A16",
"V  c #791717",
"C  c #600F14",
"Z  c #45251A",
"A  c #5C2316",
"S  c #532518",
"D  c #562317",
"F  c #57321B",
"G  c #652414",
"H  c #6C2313",
"J  c #6D2B14",
"K  c #732411",
"L  c #772816",
"P  c #6A3517",
"I  c #783013",
"U  c #53392C",
"Y  c #583834",
"T  c #47322E",
"R  c #66392B",
"E  c #763A2A",
"W  c #1B4435",
"Q  c #2A4C36",
"!  c #774219",
"~  c #574136",
"^  c #425B36",
"/  c #644C37",
"(  c #644935",
")  c #79563B",
"_  c #704A33",
"`  c #433E42",
"'  c #4B3F41",
"]  c #1F5F43",
"[  c #276646",
"{  c #2C7A4F",
"}  c #454145",
"|  c #484447",
" . c #4D4A4C",
".. c #484548",
"X. c #544B4C",
"o. c #504E51",
"O. c #575455",
"+. c #645C5D",
"@. c #676262",
"#. c #891A05",
"$. c #971C08",
"%. c #890F13",
"&. c #851314",
"*. c #8B1113",
"=. c #891B15",
"-. c #931414",
";. c #9B1614",
":. c #9E1A14",
">. c #901B15",
",. c #A51B06",
"<. c #A81909",
"1. c #A41A14",
"2. c #AA1D15",
"3. c #A31714",
"4. c #B31E15",
"5. c #89240A",
"6. c #9C2305",
"7. c #96280B",
"8. c #8D2B14",
"9. c #8A2616",
"0. c #9A2416",
"q. c #912B16",
"w. c #942717",
"e. c #8B3211",
"r. c #8E3A13",
"t. c #963712",
"y. c #A22406",
"u. c #AB2406",
"i. c #AA2906",
"p. c #AD240A",
"a. c #AE290A",
"s. c #A4280B",
"d. c #B32407",
"f. c #BC2B09",
"g. c #B52907",
"h. c #A8340E",
"j. c #BA3109",
"k. c #A62115",
"l. c #B42215",
"z. c #BB2415",
"x. c #B12814",
"c. c #A93415",
"v. c #B13814",
"b. c #C92E09",
"n. c #C43209",
"m. c #CB3409",
"M. c #C93709",
"N. c #D2350A",
"B. c #D33B0A",
"V. c #DB3C0A",
"C. c #D8360A",
"Z. c #C32615",
"A. c #C52815",
"S. c #CD2B16",
"D. c #CA2715",
"F. c #D32D16",
"G. c #D92F16",
"H. c #DA3116",
"J. c #DD3415",
"K. c #DB3317",
"L. c #D12E0A",
"P. c #E33F09",
"I. c #E43615",
"U. c #E13C19",
"Y. c #E73914",
"T. c #964A16",
"R. c #985318",
"E. c #8F4E17",
"W. c #B8420E",
"Q. c #B24B11",
"!. c #A64F14",
"~. c #965937",
"^. c #865338",
"/. c #B85E36",
"(. c #DC420A",
"). c #D3440B",
"_. c #DB520D",
"`. c #E3430B",
"'. c #E9450A",
"]. c #EC4A09",
"[. c #E44C0B",
"{. c #F14B08",
"}. c #EC550B",
"|. c #F1530A",
" X c #F45B0B",
".X c #E7431B",
"XX c #E8421A",
"oX c #C56816",
"OX c #F3620D",
"+X c #F7690F",
"@X c #EC6C10",
"#X c #F76C10",
"$X c #F77912",
"%X c #EF6F0F",
"&X c #CA6338",
"*X c #E86B39",
"=X c #F6783F",
"-X c #8A6440",
";X c #936942",
":X c #A97347",
">X c #B67043",
",X c #FA7443",
"<X c #FB7A46",
"1X c #FA7C46",
"2X c #EE7D46",
"3X c #D16F43",
"4X c #2E8051",
"5X c #F98214",
"6X c #F78214",
"7X c #B9844F",
"8X c #CE844C",
"9X c #CA8D53",
"0X c #D68F53",
"qX c #EB8649",
"wX c #F58D4C",
"eX c #FC854C",
"rX c #F9904E",
"tX c #EB9957",
"yX c #FB9352",
"uX c #F89D57",
"iX c #F68C50",
"pX c #FCA45B",
"aX c #FCA95F",
"sX c #F5A55C",
"dX c #E7A25D",
"fX c #FCAC61",
/* pixels */
"                                                       .. . . . . . . . . . . .                                                 ",
"                                                X X X E 0.0.w.0.0.B B B B n j j 0 9 q 9                                         ",
"                                                . X X L G.G.G.G.G.2.2.2.2.-.&.v . . X .                                         ",
"                                             .O.D L L c.K.J.J.G.H.A.Z.Z.A.l.k.k.H L l M X.o.                                    ",
"                                            . X t..X.X.X.X.X.XH.J.I.Y.Y.Y.Y.Y.Y.Y.Y.z.l.# 3                                     ",
"                                        | | z l v.U.U.U.J.U.U.H.J.z.x.0.q.q.q.q.q.q.B B g z 6                                   ",
"                                        . . x.A.G.J.K.K.G.G.G.G.H.&.v ; . . . . . . . . &.3.; X e                               ",
"                                        . . x.D.G.H.K.I.H.G.G.A.A.n j = X @ @ @ @ @ = - j n $ X r                               ",
"                                        . . x.D.D.D.H.I.I.H.J.1.;.X . + O y y y i i c c @ . X X r                               ",
"                                        $ # x.D.D.D.G.J.J.G.S.>.&.@ X + O y y y u u c c @ . # # '                               ",
"                                    X . 2.k.A.D.D.D.D.D.D.z.k.. . y y O O u u y i y *X*X& . v ;.h .  .                          ",
"                                    3 . 4.k.D.D.S.S.D.D.A.k.9.X X y i O O y y y a a =X=XT 0 B =.h 2 o.                          ",
"                                    3 . 2.2.D.S.S.S.F.S.0.. @ y y p s * . . . F *X*XpXaXsXsXU . . X o.                          ",
"                                    % # 2.2.D.S.S.F.S.S.0.. @ i i p s = & & 0 R <X<XpXfXfXfX( 5 X X o.                          ",
"                                X # -.-.2.k.D.S.S.S.S.S.0.. @ i u p p /.2XqXtXuXaXaXfXfXfXaXiXqXU X  .                          ",
"                                . # ;.;.2.2.A.S.S.S.S.S.0.X X a a a a &XeXwXtXtXfXfXfXfXfXfXtXtXU X  .                          ",
"                                X # 3.3.2.2.A.S.S.S.S.S.0.X o qXqXqXtXsXpX) 5 _ fXfXfXfXfXfX/ 5 o X ..                          ",
"                                . # 3.3.2.2.Z.D.S.S.S.F.0.X X rXeXuXfXfXfX) X / fXfXfXfXfXfX~ . . X  .                          ",
"                                . # 1.1.2.2.2.2.S.S.F.F.0.X o fXaXfXfXfXfX) X / fXfXfXfXfXfX~ . . X  .                          ",
"                                . # 1.1.2.2.2.2.F.F.F.S.0.X X fXfXfXaXaXaX) X / fXfXfXfXfXfX~ . . . ..                          ",
"                                . @ *.*.1.2.2.2.l.l.l.k.=.X X pXpX<X,X1XeXtXdXdXfXfXfXfXfXfX9X7X>X/.Y w O.                      ",
"                                . # *.*.1.2.2.2.2.2.2.2.=.. X pXaX,X,X<XeXuXfXfXfXfXfXfXfXfXfXfXyX<XR 2 ..                      ",
"                                o.X.g h 1.2.2.2.2.2.2.2.:.M M / ( *X,X<XeXuXfXfX-X/ 9XfX-X/ 9XfXyX1XR 2 |                       ",
"                                    3 . 3.2.2.2.2.2.2.2.2.2.:.. . &X,X<XeXuXfXfXU 2 :XfXT 2 :XfXyX1XR 2 |                       ",
"                                    3 . -.-.-.-.:.2.2.2.2.2.1.z z R ^.3XrXuXfXfX:X^.) ;X) ) 8XpX>X~.~ r                         ",
"                                    3 . &.&.*.*.;.2.2.2.2.2.2.1.3.# . >XyXpXfXfXfXfXt . 7XfXuXyX_ X  .                          ",
"                                  r : : %.*.*.*.-.;.:.2.2.2.2.2.1.z h E ~.8XuXpXuXuX^._ 8XuX>X~.( o                             ",
"                                X # *.*.*.*.*.*.*.&.-.2.2.2.2.2.2.:.*.$ . ~.rXrXrXwXwXwXqXqXU . +.                              ",
"                                X # *.*.*.*.*.*.-.-.;.2.2.l.l.l.l.2.3.M g E ~.~.~.~.~.~.~.~.t . @.                              ",
"                                X # *.*.*.*.*.*.2.2.2.2.2.D.D.D.D.S.D.l.2.z . . . . . . . . . . +.                              ",
"                              +.$ : *.*.*.*.-.-.1.2.2.2.2.D.D.F.F.D.D.2.1.j $ # . . ; ; $ $ X . +.                              ",
"                            . ; *.*.*.*.*.*.3.2.2.2.2.2.2.D.D.F.F.D.D.*.v v v C . . y.d.$.$.< . O.                              ",
"                            . ; *.*.*.*.*.*.3.2.2.2.2.l.l.D.D.D.D.4.4.v n n b j ; > i.f.y.i.k ; Y                               ",
"                            X ; *.*.*.*.*.*.3.2.2.2.l.D.D.D.D.z.z.-.*.; . . . H C.V. X X|.|.f.p.g X }                           ",
"                            . ; *.*.*.*.*.*.:.1.1.1.4.Z.Z.Z.z.:.k.&.v , $ & $ L V.P.OX+X|. Xn.d.f 2 ..                          ",
"                            . ; *.*.*.*.*.*.*.*.&.&.;.2.2.1.=.. . . . 8.M.M.B.[.OXOX5X5X].].'.P.A . }                           ",
"                            5 , N N N N N N N N N N &.>.>.>.B $ $ $ & h.B.h.8.t.T.T.R.!.t.t.M.'.A . }                           ",
"                                . . . . . . . . . . . . . . . M.n.n.n.`.|.I . . . . . . . . h.'.A . }                           ",
"                              ` o o # o o o . . X X @ @ X o @ M.M.M.M.(.[.L X X . X . . X . t.(.D X }                           ",
"                          9 X , p.a.a.a.6.y.@ . 5.g.n.).)._._.%XOXOXOXS % G j.n.)._.& . q.n.f # o X }                           ",
"                          q o : f.f.f.f.u.p.X . 5.f.B.'.'.}.}.$X%X%X%XZ . G B.V.]. X& . h.V.d . % & T                           ",
"                       .9 l $.p.V.V.N.m.g.g.X . h.'.|.OXQ.& & & & & & X . J  X XN.L.# . v.|.S . E.%XP 3 |                       ",
"                      } . z p.f.V.V.m.m.j.j.X . h.{. XOXQ.. . . . . . . . J #X#XC.L.@ . Q. XS . E.$XI . }                       ",
"                      } . H V.V.`.`.n.n.> > 5.7.B.{. XOXQ.. . Q [ [ [ 7 . & 1 1 , > !.oXF 1 # . E.$X! X }                       ",
"                      } . J `.`.`.`.n.n.. . s.n.(.{. XOXQ.. . [ { 4X{ 7 . . . . . . oX6XF . . . E.$X! . `                       ",
"                      ` . % d d , , > > c 5.j.n.(.{. X$X@XQ.T.7 7 7 7 o . f 7.7.c B 1 Z L t., . E.$X! . }                       ",
"                      ` . . . . . . . . i.g.n.n.V.{.OX5X$XOX}.. . . . . . H b.m.<.<.# . h.V.f . E.5X! . `                       ",
"                        O.9 . $ n b x B f.f.n.n.m.V.[. X X X}.t.t.Q W 4 . H V.P.m.C.$ . h.'.S . E.5X! . }                       ",
"                          3 . : <.<.d.g.n.n.n.n.n.n.V.{.|. X XOX X^ ] 7 . H '.'.V.P.$ . h.].D . E.5X! . }                       ",
"                          3 . : <.<.u.d.g.g.f.n.n.n.N.V.(.(.(.P J t 8 S 9.G G G l A l H G J L L P P U o.                        ",
"                          3 . , <.<.<.u.u.u.f.n.n.n.n.n.n.n.n.. . . . K `.J . . . . 7.m.d . 7.B.D X `                           ",
"                              T h f <.,.,.y.u.p.p.p.g.n.n.n.n.e.e.r.r.W.].W.e.e.e.e.j.n.5.K G G Y q                             ",
"                                . X <.,.,.y.y.y.y.y.g.n.n.n.n.].].|. X X X].].].].].M.n.n.j.d .                                 ",
"                            | ~ d - b m m m m m m m x K K K K e.e.r.r.r.r.e.8.e.e.e.K K K K Z o                                 ",
"                          q 2 , 6.5.. . . . . . . . . . . . . . . . . . . . . . . . . . . X                                     ",
"                          0 . , y.6.k k X . $ : : : h g g g g g g z l l l l l l l l o . . . ..o.                                ",
"                          0 . , y.y.y.i.# . b *.*.*.1.4.4.4.4.2.3.S.J.K.J.J.J.J.J.J.; . . . . .                                 ",
"                            r T x c y.i.u f k b j j B B B B B B n 9.q.q.9.9.9.9.9.9.l k f f # .                                 ",
"                                . $ i.i.#.5.= . . . . . . . . . . . . . . . . . . . 7.i.6.y.d .                                 ",
"                                . # 5.5.#.#.= . 9 0 q q q q q q q q q 3 . X X X $ $ 7.y.c c = .                                 ",
"                                . . . X c #.- .                       e . y x x 6.y.y.6.= .                                     ",
"                                9 5 . . x c = .                       e . - x x 7.7.5.5.= 9                                     ",
"                                    . . X X X .                       e . . X X X X X X                                         ",
"                                    X . . . . .                       e . . . . . . . .                                         "
};
