/* XPM */
static char *_7c3984e489d41ef8fada791234a1acc9dLqXmFNC1xX8jlx[] = {
/* columns rows colors chars-per-pixel */
"64 64 180 2 ",
"   c None",
".  c #151216",
"X  c #161419",
"o  c #1A151A",
"O  c #1E191D",
"+  c #221A1E",
"@  c #2C1B1D",
"#  c #321C1E",
"$  c #3B1E1D",
"%  c #3B211E",
"&  c #1F1B20",
"*  c #231D22",
"=  c #2C1D21",
"-  c #351D22",
";  c #3C1E21",
":  c #342023",
">  c #3C2022",
",  c #431E1E",
"<  c #4C1D1F",
"1  c #5C1D1F",
"2  c #641A1F",
"3  c #691B1F",
"4  c #741C1E",
"5  c #7B1D1D",
"6  c #41201D",
"7  c #4C221D",
"8  c #4F291F",
"9  c #51251D",
"0  c #5E221E",
"q  c #552A1E",
"w  c #5E2C1E",
"e  c #622317",
"r  c #6B2517",
"t  c #60231D",
"y  c #6E2618",
"u  c #602D1E",
"i  c #7D2514",
"p  c #762816",
"a  c #71251A",
"s  c #732C1B",
"d  c #411C21",
"f  c #4A1C21",
"g  c #551D21",
"h  c #5C1B21",
"j  c #611B20",
"k  c #442520",
"l  c #532420",
"z  c #6A2120",
"x  c #851E1C",
"c  c #8C1E1B",
"v  c #911F1B",
"b  c #832613",
"n  c #832C15",
"m  c #8D2A14",
"M  c #8D221C",
"N  c #882C18",
"B  c #9E2910",
"V  c #94211B",
"C  c #99221B",
"Z  c #9B231B",
"A  c #99211B",
"S  c #9C231A",
"D  c #9D231A",
"F  c #9D221B",
"G  c #9F231B",
"H  c #9E2419",
"J  c #9F241A",
"K  c #9B201C",
"L  c #9B2219",
"P  c #A4290E",
"I  c #B5310E",
"U  c #BB330D",
"Y  c #BF3C0F",
"T  c #A02419",
"R  c #A12519",
"E  c #A1251A",
"W  c #A62619",
"Q  c #A72619",
"!  c #A6251A",
"~  c #A4261B",
"^  c #A32519",
"/  c #A82618",
"(  c #A9261A",
")  c #AA2719",
"_  c #AD271A",
"`  c #AE271A",
"'  c #AB2718",
"]  c #A3281C",
"[  c #A12D1A",
"{  c #AB281B",
"}  c #AE281A",
"|  c #AC2818",
" . c #B52B17",
".. c #BD2D17",
"X. c #B12E1B",
"o. c #B32F1A",
"O. c #B32B18",
"+. c #B92C18",
"@. c #B92D18",
"#. c #BA2C19",
"$. c #BA2D19",
"%. c #B82F1B",
"&. c #BD2E19",
"*. c #BE2F19",
"=. c #BE2E19",
"-. c #BE2F1A",
";. c #BC2E18",
":. c #BF3417",
">. c #BB311A",
",. c #BA301B",
"<. c #BB311B",
"1. c #BB301A",
"2. c #BE3119",
"3. c #C03D0F",
"4. c #C83D0F",
"5. c #C02E17",
"6. c #C12F16",
"7. c #C12F19",
"8. c #C22F18",
"9. c #C02F18",
"0. c #C33017",
"q. c #C43017",
"w. c #C43117",
"e. c #C53117",
"r. c #C53017",
"t. c #C63117",
"y. c #C73117",
"u. c #C73217",
"i. c #C53217",
"p. c #C93517",
"a. c #C43C12",
"s. c #CD3B16",
"d. c #C13019",
"f. c #C23018",
"g. c #C33019",
"h. c #C53118",
"j. c #C43119",
"k. c #C43018",
"l. c #C63118",
"z. c #C73118",
"x. c #C63119",
"c. c #C53219",
"v. c #C63218",
"b. c #C73218",
"n. c #C63219",
"m. c #C73219",
"M. c #C33218",
"N. c #C83218",
"B. c #C93218",
"V. c #C83318",
"C. c #C93318",
"Z. c #C83219",
"A. c #C93219",
"S. c #C83319",
"D. c #C93319",
"F. c #CA3218",
"G. c #CA3318",
"H. c #CA3319",
"J. c #C8321A",
"K. c #C83518",
"L. c #D13F16",
"P. c #CD4311",
"I. c #CC4A10",
"U. c #D24313",
"Y. c #DA4715",
"T. c #D54A11",
"R. c #DB4A15",
"E. c #DF5614",
"W. c #DD5C15",
"Q. c #E14E14",
"!. c #E35414",
"~. c #E55A14",
"^. c #E85E16",
"/. c #E66315",
"(. c #E86316",
"). c #E96B17",
"_. c #EC6F18",
"`. c #EF761A",
"'. c #F3761B",
"]. c #F47A1C",
/* pixels */
"                                                  * * * * * * * * * * * * * * *                                                 ",
"                                                  - - : : > : > > > > > : ; - -                                                 ",
"                                            O * ; M V ] <.<.<.<.<.<.<.<.#.! V M , O O                                           ",
"                                            * * d K Z } H.H.H.H.H.H.H.H.H._ Z V f * *                                           ",
"                                          + g g z } _ #.H.H.H.H.H.H.H.H.H.#.} | a h g @                                         ",
"                                      X * = x V G H.z.H.H.H.H.H.H.H.H.H.H.H.H.z.! V V - * O                                     ",
"                                      X * - M Z ! H.z.H.H.H.H.H.H.H.H.H.H.H.H.H.) G Z - * O                                     ",
"                                      X * : X.d.d.z.H.H.H.H.H.H.H.H.H.H.H.H.H.H.z.7.#.> * O                                     ",
"                                      X * - X.z.z.z.H.H.H.H.H.H.H.H.H.H.H.H.H.H.H.z.*.: * &                                     ",
"                                  O O 1 x M *.z.z.z.H.H.H.H.H.H.H.z.H.H.H.H.H.H.H.z.d.V x x O O                                 ",
"                                  * * 1 V V *.z.z.z.z.H.z.z.H.z.H.H.H.H.z.H.H.z.H.z.d.Z v x * * X                               ",
"                                  * * 1 M V *.z.z.z.z.z.z.z.z.z.H.H.H.H.z.z.z.z.z.z.d.Z v x * * X                               ",
"                                  * * 1 c V *.z.z.z.z.z.z.H.H.H.H.z.H.H.H.H.H.z.z.z.d.Z v x * * X                               ",
"                                  * * 1 c V *.z.z.z.z.z.z.z.z.z.H.z.H.H.z.H.z.z.z.z.d.Z v x * * X                               ",
"                                  * * 1 c c Z G ! z.z.z.z.z.z.z.H.z.z.z.z.u.z.z.) G G v c c * * X                               ",
"                                  * * 1 c c c v G z.z.z.z.u.z.z.z.z.u.z.z.u.z.z.T v c c c c * * X                               ",
"                                  * * 1 c c c v Z #.#.*.u.y.z.z.z.z.u.u.z.5.#.#.G c c c c x * * X                               ",
"                                  * * 1 c c c c c v c ! u.u.z.u.u.z.u.u.d.) v c c c c c c x * * X                               ",
"                                  * * 1 x c c c c c c ! 0.u.u.u.u.z.u.u.7.! c c c c c c c x * * X                               ",
"                                  * * 1 x c c c c c c V H T T T T T T T H V c c c c c c c x * * X                               ",
"                                  * * 1 x x c c c c c c c c c c c c c c c c c c c c c c c x * * X                               ",
"                                  * * g 5 5 x x c c c c c c c c c c c c c c c c c c c x 5 5 * * X                               ",
"                                  * * d h j x x c c c c c c c c c c c c c c c c c c x 2 h h * * X                               ",
"                                  * * d h j x c c c c c c c c c c c c c c c c c c c c 2 h g * * O                               ",
"                            . X @ f f 1 4 5 x c c c c c c c c c c c c c c c c c c c c 5 5 4 f f # X .                           ",
"                            O * - h h 4 x c c c c c c c c c c c c c c c c c c c c c c c c x h h ; * +                           ",
"                            O * - h h 4 x c c c c c c c c c c c c c c c c c c c c c c c c x 1 h d * +                           ",
"                            O * - h h 4 x c c x c c c c c c c c c c c c c c c c c c c c c x 1 h d * +                           ",
"                            O = - h h 4 x c c c c c c c c c c c c c c c c c c c c c c c c c 2 h d * +                           ",
"                        X X d f g 5 5 x c c c c V ) ) _ } } | } } } _ _ ) _ _ ) V c c c c c 5 4 1 f d o X                       ",
"                      X * * g h 3 c c c c c c v Z 5...5.5.5.5.5.5.5.5.5.5.5.5...G v c c c c c x 4 h h = * O                     ",
"                      X * * g h 3 c c c c c V Z T 5...5.5.5.5.5.5.5.5.5.5.5.5...! Z Z c c c c x 4 h h = * O                     ",
"                      X * * g h 3 x c c c v +.*.....5.5.5.5.5.5.5.5.5.5.5.0.5.5.5.5...V c c c x 4 h h = * O                     ",
"                      X * * g h 3 c c c c v  .@.......5.5.5.5.5.5.5.5.5.5.5.5.......@.V c c x x 4 h h = * O                     ",
"                      X * * - ; ; f < f f < 0 0 0 0 t t t t t t t t t t t t t 0 t 0 0 < < f < f d ; ; * * O                     ",
"                      X * * * * * * * * * * * * * * * * * * * * * * * * * * * * * * * * * * * * * * * * * O                     ",
"                      X * * - - - - - - - - ; > > > ; > > ; > > > > ; ; ; ; ; ; ; > ; ; - - - - - - - * * O                     ",
"                      X * * 4 x c c c v V Z #.2.d.d.d.d.d.d.d.d.d.d.d.d.d.d.d.d.d.2.*.T G V v v v c x = * O                     ",
"                      X * * 5 x c v v v V Z *.d.u.z.u.p.K.p.K.K.p.K.p.p.z.y.y.z.z.d.d.T Z V v V v c x = * O                     ",
"                      X * * 5 x c v V ! @.#.d.z.s.R.R.R.R.R.R.R.R.Y.Y.Y.Y.Y.Y.Y.s.K.u.#.@.O.v V v v x = * O                     ",
"                      X * * 5 x c V Z O.z.u.p.p.L.~.!.!.!.!.!.!.!.!.!.!.Q.!.Q.Q.L.p.p.u.0.*.v v v c x = * O                     ",
"                      X * * 5 c c Z G @.K.p.s.L.Y.^.~.~.~.~.~.~.!.~.~.~.!.!.!.!.Y.U.s.u.0.*.G Z v v x = * O                     ",
"                      X * * M ! } K.u.K.K.s.`.'.'.].].].].].].].].].].].].].].].].'.'.s.u.z.*.7.) v x = * O                     ",
"                      X * * M ! } K.K.u.p.s.'.].].].].].].].].].].].].].].].].].].'.'.s.u.u.*.7.) V M = * O                     ",
"                      X * * M ! O.p.s.R.~.~.'.].].].].].].].].].].].].].].].].].'.'.'.!.!.R.5.d.} V M = * O                     ",
"                      X * * M ! O.s.s.!.(.(.'.].].].].].].].].].].].].].].].].].].'.'.^.~.!.0.0.} Z M = * O                     ",
"                      X * * V } @.L.U.!.(.(.'.].].].].].].].].].].].].].].].].].].'.'.^.~.!.s.s.X.G V = * O                     ",
"                      X * * [ ..K.!.!.^.(.(.'.].].].].].].].].].].].].].].].].].'.'.'.^.~.~.E.R.:.! V = * O                     ",
"                      X * * [ 2.s.~.~.^./.(.'.].].].].].].].].].].].].].].].].].].'.'.^.~.~.!.!.a.^ V = * O                     ",
"                            7 l s T.R.~./.(.'.].].].].].].].].].].].].].].].].].'.'.'.~.~.!.4.4.N < ,                           ",
"                            O * 9 U.U.E./.(.'.].].].].].].].].].].].].].].].].].].'.'.~.~.!.U U a * +                           ",
"                            O * 8 P.U.R.~.~._.`.'.].].].].].].].].].].].].].].]./.W.W.T.T.T.U U a * +                           ",
"                            O * 8 a.4.U.T.T./.)._.].].].].].].].].].].].].].].'.I.U U U U U U U y * +                           ",
"                            X * 7 a.a.P.T.T./.).).`.`.`.`.`.`.`.`.`.'.`.`.'.`.`.I.U U U U U I I r * O                           ",
"                                  % % n U U Y Y Y Y 3.3.Y 3.a.3.3.Y 3.3.3.3.3.Y U U U P P P $ $ #                               ",
"                                  * * p I I I U U U U U U U U U U U U U U U U U U U U P P B & * X                               ",
"                                  o O e m m m m m m m m m m m m m m m m m m m m m m m b b i o O                                 ",
"                                      . * * * * * * * * * * * * * * * * * * * * * * * * * O                                     ",
"                                      . * * * * * * * * * * * * * * * * * * * * * * * * * O                                     ",
"                                      . * * 9 q q q q k * *           O * # 7 7 7 < , = * O                                     ",
"                                      . * = q w w u u k * *           O * # 7 7 7 7 7 = * O                                     ",
"                                        X + 8 8 8 9 9 6 * *           O * @ 6 , , $ $ o X .                                     ",
"                                            * * = % % # * *           O * * * * * * +                                           ",
"                                            O * + @ @ + O O           o * O O O O O O                                           "
};
